<?xml version="1.0" encoding="iso-8859-1"?>
<!-- Generator: Adobe Illustrator 16.0.4, SVG Export Plug-In . SVG Version: 6.00 Build 0)  -->
<!DOCTYPE svg PUBLIC "-//W3C//DTD SVG 1.1//EN" "http://www.w3.org/Graphics/SVG/1.1/DTD/svg11.dtd">
<svg version="1.1" id="biplane_xA0_Image_1_" xmlns="http://www.w3.org/2000/svg" xmlns:xlink="http://www.w3.org/1999/xlink"
	 x="0px" y="0px" width="237.84px" height="123.84px" viewBox="0 0 237.84 123.84"
	 style="enable-background:new 0 0 237.84 123.84;" xml:space="preserve">
<g>
	<path style="fill-rule:evenodd;clip-rule:evenodd;" d="M45.604,11.995c-0.158,0.009-0.337,0.073-0.469,0.02
		c-2.948-1.188-5.862-0.439-8.848-0.075c-2.862,0.349-5.364,1.516-7.966,2.513c-0.083,0.032-0.13,0.159-0.231,0.289
		c0.605,0.256,1.03-0.134,1.471-0.294c2.518-0.913,5.053-1.718,7.733-2.045c2.676-0.326,5.341-0.415,7.932,0.38
		c2.669,0.819,5.218,1.963,7.727,3.199c2.262,1.115,4.587,2.104,6.836,3.244c2.899,1.469,5.919,2.667,8.812,4.161
		c3.577,1.847,7.307,3.396,10.95,5.118c3.485,1.647,6.927,3.389,10.42,5.019c3.434,1.602,6.931,3.069,10.355,4.689
		c1.449,0.685,2.927,1.307,4.346,2.075c1.896,1.027,3.939,1.779,5.901,2.69c3.326,1.545,6.628,3.14,9.958,4.677
		c1.176,0.542,2.38,1.145,3.581,1.472c0.879,0.239,1.923,0.231,2.882,0.474c2.345,0.593,4.52,1.618,6.719,2.61
		c-1.404,0.129-2.468-1.174-4.153-1.03c1.604,1.12,3.299,1.23,4.82,1.794c0.235,0.087,0.246-0.372,0.401-0.351
		c0.3,0.04,1.07-0.459,0.715,0.523c-0.115,0.317,0.26,0.473,0.4,0.485c2.011,0.172,3.689,1.415,5.648,1.713
		c0.277,0.042,0.986,0.616,0.862-0.402c-0.019-0.15,0.171-0.085,0.277-0.052c2.896,0.893,5.725-0.069,8.576-0.321
		c2.927-0.258,5.85-0.525,8.789-0.633c4.247-0.157,8.493-0.38,12.722-0.836c0.317-0.034,0.524,0.145,0.792,0.156
		c0.643,0.027,1.301,0.221,1.603-0.712c0.146-0.449,0.663-0.913,1.25-0.661c0.516,0.221,1.144,0.462,1.188,1.186
		c0.064,1.057,0.544,0.94,1.115,0.385c0.43-0.417,0.833-0.509,1.391-0.258c0.747,0.335,1.475-0.142,2.224-0.167
		c1.242-0.04,2.394,0.278,3.632,0.79c-0.895-1.555-2.13-1.986-4.521-1.64c0.541-0.816,1.068-1.266,2.068-0.838
		c2.816,1.205,4.778,3.246,6.173,5.938c0.852,1.645,2.066,3.117,2.632,4.894c0.369,1.16,1.218,2.121,1.355,3.426
		c-0.513-0.098-0.763-0.425-0.928-0.798c-1.254-2.835-2.644-5.589-4.218-8.269c-0.569-0.969-1.03-1.982-2.084-2.236
		c-1.686-0.406-3.466-1.167-5.167-0.292c-1.072,0.552-1.972,1.355-3.288,1.41c-1.736,0.072-3.471,0.082-5.205,0.017
		c-0.358-0.013-0.941-0.023-0.922-0.55c0.046-1.224-0.713-0.862-1.424-0.899c-3.153-0.167-6.265,0.387-9.392,0.574
		c-3.509,0.21-7.016,0.662-10.535,0.828c-2.021,0.095-4.013,0.583-6.062,0.369c-0.788-0.083-1.352,1.081-0.935,1.828
		c0.103,0.183,0.145,0.167-0.034,0.286c-2.024,1.35-2.575,3.743-3.908,5.586c-0.792,1.096-0.888,1.246-1.855,0.422
		c-0.536-0.456-0.951-1.052-1.436-1.571c-2.346-2.521-4.444-5.266-6.933-7.657c-0.139-0.133-0.297-0.245-0.485-0.398
		c-0.302,0.31-0.312,0.61-0.083,0.865c2.102,2.34,4.044,4.817,6.25,7.069c1.625,1.658,3.141,3.425,4.682,5.164
		c0.221,0.248,0.383,0.409,0.676,0.188c0.213-0.159,0.29-0.351,0.092-0.607c-0.19-0.249-0.334-0.534-0.592-0.958
		c0.962,0.341,1.44,0.896,1.468,1.747c0.028,0.878-0.814,0.826-1.302,0.9c-1.094,0.165-1.648,0.629-1.831,1.77
		c-0.137,0.854-0.837,1.452-1.719,1.611c-0.848,0.154-1.392,0.456-1.702,1.36c-0.367,1.07-1.029,2.037-1.489,3.081
		c-0.138,0.314-0.785,0.776,0.094,1.122c0.333,0.131-0.115,0.262-0.189,0.353c-0.642,0.794-1.24,1.664-2.173,2.135
		c-0.75,0.379-0.146,0.529,0.148,0.804c-1.605,0.229-2.932-0.426-4.293-0.891c-0.596-0.204-1.169-0.474-1.761-0.69
		c-0.18-0.065-0.42-0.089-0.508,0.148c-0.07,0.19,0.024,0.325,0.195,0.489c0.672,0.643,1.546,0.791,2.374,0.965
		c3.662,0.772,7.255,1.807,10.86,2.795c0.784,0.215,1.583,0.346,2.548,0.301c-0.771-1.068-1.992-0.732-2.947-1.381
		c1.579-0.174,2.621,0.55,3.611,1.402c0.772,0.665,0.053,1.266-0.168,1.948c1.498,0.063,2.792-0.571,3.949-1.123
		c2.966-1.414,6.166-2.182,9.122-3.604c4.021-1.936,8.091-3.777,12.172-5.584c4.941-2.188,9.765-4.627,14.713-6.801
		c2.127-0.934,4.217-1.954,6.413-2.716c1.33-0.462,2.725-0.622,4.079-0.107c1.483,0.564,1.888,1.974,1.005,3.328
		c-0.385,0.59-0.819,1.146-1.319,1.839c0.837,0.171,1.16-0.265,1.387-0.833c0.37-0.929,0.903-1.289,2.005-1.069
		c5.419,1.083,10.871,2.004,16.284,3.113c4.403,0.901,8.858,1.529,13.231,2.584c0.959,0.231,2.195,0.684,2.902,0.298
		c1.312-0.715,2.122,0.268,3.152,0.394c0.447,0.054,0.771,0.4,0.766,0.918c-0.005,0.438-0.351,0.53-0.667,0.718
		c-1.575,0.94-3.512,0.883-5.07,1.872c-0.258,0.164-0.696,0.141-0.525,0.584c0.568,1.475-0.363,2.155-1.428,2.754
		c-0.376,0.212-0.526,0.589-0.802,0.862c-0.269,0.267-0.64,0.522-1.063,0.37c-0.442-0.158-0.156-0.531-0.183-0.82
		c-0.156-1.751-0.055-3.484,0.245-5.214c0.044-0.25,0.095-0.55-0.226-0.877c-0.675,2.818-2.126,5.332-1.898,8.337
		c0.226,2.97-0.673,5.911-0.492,8.911c0.048,0.799,0.515,1.613,0.063,2.443c-0.093,0.169,0.021,0.396,0.282,0.419
		c0.281,0.023,0.514,0.043,0.646-0.336c0.42-1.197,0.876-2.393,0.741-3.684c-0.281-2.694,0.263-5.329,0.512-7.985
		c0.014-0.142,0.102-0.275,0.219-0.579c0.598,1.222,0.288,2.349,0.141,3.349c-0.274,1.859-0.442,3.713-0.457,5.584
		c-0.01,1.239-0.155,2.46-0.553,3.627c-0.226,0.663-0.135,1.027,0.585,1.253c-4.71-0.2-9.277-1.334-13.956-1.593
		c0.01-0.108,0.019-0.218,0.027-0.327c0.32,0,0.641-0.002,0.96,0.001c0.357,0.002,0.508-0.161,0.45-0.522
		c-0.483-3.013-0.135-6.046-0.191-9.069c-0.021-1.041-0.227-1.389-1.376-1.477c-2.264-0.172-4.545-0.372-6.754-1.001
		c-1.557-0.443-1.998-0.061-1.665,1.518c0.172,0.816-0.094,1.505-0.526,2.251c0-0.707-0.102-1.433,0.019-2.119
		c0.471-2.688,0.254-5.407,0.417-8.108c0.076-1.264,0.033-2.525,0.445-3.751c0.109-0.326,0.039-0.714,0.041-1.073
		c0.001-0.224-0.103-0.4-0.342-0.396c-0.255,0.004-0.338,0.221-0.302,0.421c0.241,1.315-0.492,2.192-1.191,3.196
		c-0.507,0.729-0.477,1.803-0.501,2.75c-0.091,3.474-0.105,6.952-0.292,10.421c-0.058,1.062-0.051,2.153-0.236,3.193
		c-0.192,1.074,0.335,1.614,0.99,2.162c1.131-1.702,0.502-3.712,0.976-5.526c0.69,1.387,0.146,2.761,0.124,4.128
		c-0.007,0.438-0.651,0.938-0.201,1.291c0.564,0.443,1.33,0.795,2.063,0.666c0.611-0.107,1.016,0.091,1.438,0.535
		c-3.51-0.433-7.021-0.865-10.53-1.298c0.01-0.129,0.02-0.258,0.029-0.386c1.16-0.09,2.34-0.122,3.461,0.293
		c0.739,0.274,1.016,0.182,1.024-0.638c0.032-3.026,0.05-6.055,0.171-9.078c0.039-0.98-0.426-1.308-1.209-1.299
		c-1.202,0.014-2.342-0.251-3.485-0.553c-0.144-0.038-0.37-0.161-0.417-0.112c-0.941,0.994-0.756-0.281-0.748-0.454
		c0.093-2.053-0.771-3.848-1.451-5.692c-0.123-0.332-0.199-0.75-0.442-0.959c-1.118-0.958-0.401-1.361,0.45-1.835
		c0.716-0.398,1.36-0.922,2.062-1.349c0.267-0.162,0.525-0.321,0.363-0.627c-0.228-0.427-0.544-0.014-0.681,0.088
		c-1.452,1.079-2.996,2.011-4.547,2.938c-2.701,1.613-5.197,3.553-7.974,5.096c1.007,0.014,1.93-0.318,2.738-0.865
		c1.707-1.156,3.364-2.387,5.046-3.582c0.41-0.292,0.905-0.465,1.355-0.256c0.495,0.229,0.465,0.878,0.751,1.298
		c0.082,0.12-0.003,0.31-0.215,0.326c-0.259,0.021-0.378-0.185-0.403-0.362c-0.079-0.547-0.29-0.933-0.882-1.019
		c-0.289,0.493,0.12,0.778,0.236,1.13c0.2,0.605,1.357,1.19,0.028,1.82c0.189,0.39-0.11,0.935,0.317,1.223
		c0.413,0.278,0.871,0.524,1.345,0.66c0.183,0.053,0.344-0.289,0.221-0.561c-0.129-0.284-0.306-0.556-0.385-0.854
		c-0.054-0.203-0.091-0.514,0.247-0.565c0.287-0.044,0.461,0.147,0.479,0.413c0.06,0.955,0.509,1.805,0.712,2.716
		c0.127,0.57,0.114,1.174-0.81,0.963c-0.927-0.211-1.154,0.233-1.096,1.103c0.174,2.573,0.311,5.148,0.404,7.726
		c0.023,0.645-0.087,1.272,0.045,1.941c0.131,0.66-0.406,0.961-0.999,0.692c-0.623-0.282-1.184-0.17-2.093-0.146
		c0.674,0.563,1.244,0.322,1.684,0.591c0.43,0.263,1.005,0.188,1.462,0.555c0.183,0.147,0.558-0.421,1.059-0.134
		c0.452,0.26,1.065,0.255,1.612,0.334c2.733,0.393,5.477,0.757,8.211,1.09c2.391,0.292,4.767,0.763,7.192,0.889
		c2.31,0.121,4.615,0.528,6.896,0.957c1.876,0.353,3.782,0.275,5.664,0.62c1.346,0.246,2.707,0.525,4.084,0.633
		c0.399,0.032,1.105,0.709,1.011-0.442c-0.002-0.016,0.402-0.15,0.533-0.077c0.507,0.281,1.165,0.375,1.442,0.971
		c0.136,0.289-0.03,0.513-0.315,0.666c-1.663,0.894-3.437,1.546-5.21,2.146c-1.555,0.527-3.225,0.699-4.819,1.121
		c-2.045,0.541-4.181,0.379-6.218,0.858c-1.444,0.34-2.926,0.296-4.356,0.347c-1.559,0.056-3.168-0.04-4.748-0.151
		c-2.818-0.197-5.633-0.458-8.447-0.697c-2.59-0.22-5.148-0.651-7.71-1.072c-0.742-0.122-1.501-0.216-2.251-0.211
		c-2.585,0.018-5.086-0.562-7.606-1.005c-0.337-0.059-0.716-0.32-0.881,0.189c-0.1,0.309-0.038,0.587,0.347,0.771
		c2.263,1.089,3.68,2.719,4.097,5.354c0.537,3.4-0.279,6.293-2.571,8.752c-0.71,0.761-1.834,1.02-2.876,1.264
		c-2.592,0.608-6.458-0.638-8.114-3.106c-1.425-2.125-1.453-4.284-1.47-6.521c-0.012-1.469-0.416-2.527-1.65-3.261
		c-2.092-1.245-3.753-3.004-5.549-4.603c-1.345-1.197-2.774-2.044-4.648-2.38c-2.348-0.421-4.63-1.228-6.993-1.674
		c-0.773-0.146-1.404-0.093-2.166,0.108c-1.132,0.3-2.357,0.315-3.544,0.33c-3.06,0.04-6.014,0.871-9.042,1.128
		c-1.464,0.125-2.922,0.337-4.388,0.403c-2.386,0.107-4.313,1.36-6.264,2.493c-0.484,0.28-0.654,1.133-0.926,1.742
		c-1.293,2.89-4.288,4.685-6.773,4.173c-2.909-0.6-4.255-2.004-5.23-5.211c-0.908-2.983-0.588-5.92,0.637-8.655
		c1.051-2.347,4.325-4.524,7.403-2.568c0.399,0.254,0.821,0.48,1.185,0.777c0.294,0.24,0.72,0.463,0.643,0.937
		c-0.091,0.553-0.573,0.26-0.881,0.326c-0.447,0.096-0.699,0.282-0.365,0.722c1.793,2.362,2.167,5.033,1.759,7.885
		c-0.019,0.133,0.039,0.278,0.07,0.474c2.549-1.556,2.467-3.896,1.978-6.239c-0.332-1.588-0.774-3.137-1.923-4.487
		c-1.823-2.144-6.457-2.772-8.923-0.351c-2.112,2.074-2.577,4.594-2.969,7.252c-0.006,0.039,0.001,0.08-0.001,0.12
		c-0.028,0.631,0.691,1.404-0.033,1.843c-0.477,0.289-1.243,0.111-1.88,0.125c-3.383,0.072-6.762,0.283-10.142,0.413
		c-2.387,0.091-4.783-0.035-7.156,0.191c-2.248,0.215-4.498-0.125-6.743,0.185c-0.578,0.079-1.04,0.353-1.557,0.52
		c-2.164,0.7-4.318,0.175-6.447-0.096c-0.917-0.116-1.817-0.066-2.721-0.152c-0.32-0.03-0.402,0.145-0.559,0.431
		c-0.715,1.302-1.425,2.628-2.335,3.79c-0.466,0.595-1.344,0.872-2.049,1.269c-0.129,0.072-0.333-0.002-0.384-0.18
		c-0.066-0.236-0.08-0.518,0.132-0.669c0.94-0.673,1.188-1.844,1.944-2.656c0.422-0.454,0.528-1.137,0.301-1.698
		c-0.223-0.553-0.852-0.301-1.28-0.272c-2.251,0.153-4.5-0.093-6.749-0.012c-2.989,0.109-5.977,0.34-8.966,0.351
		c-3.784,0.013-4.601-2.184-4.405-5.097c0.047-0.701,0.079-1.192-0.891-1.294c-2.154-0.227-4.339-0.422-6.426-0.961
		c-3.422-0.885-6.988-1.112-10.329-2.333c-0.847-0.309-1.799-0.257-2.582-0.805c-1.061-0.744-1.1-1.535,0.063-2.032
		c3.49-1.49,6.971-3.011,10.838-3.336c1.684-0.142,3.274-0.852,4.998-0.962c1.036-0.066,2.069-0.034,3.101-0.099
		c1.161-0.074,2.221-0.262,2.277-1.763c0.006-0.15,0.041-0.326,0.265-0.317c0.032,0.016,0.091,0.037,0.089,0.045
		c-0.425,1.889,0.811,2.032,2.198,2.279c1.817,0.324,3.588,0.9,5.385,1.344c1.062,0.262,1.374-0.041,1.018-1.089
		c-0.405-1.194-0.386-2.11,0.853-2.857c1.121-0.676,1.837-1.902,3.095-2.452c0.392-0.171,0.324-0.569,0.032-0.779
		c-1.689-1.219-2.943-2.945-4.762-4.018c-0.726-0.428-1.474-0.671-2.283-0.889c-1.949-0.524-3.462,1.219-3.947,2.737
		c-0.275,0.86-0.519,1.731-0.749,2.604c-0.234,0.89-0.775,1.719-0.403,2.726c-0.514-0.045-0.684-0.358-0.633-0.587
		c0.476-2.136,0.698-4.35,1.868-6.282c0.973-1.607,2.713-2.237,4.92-1.63c1.462,0.402,2.635,1.293,3.695,2.287
		c2.628,2.467,5.209,4.986,7.751,7.543c1.216,1.223,2.326,2.557,3.437,3.88c0.536,0.639,1.01,0.789,1.811,0.395
		c2.967-1.464,5.959-2.858,9.062-4.052c2.98-1.146,5.93-2.442,8.85-4.138c-0.511-0.252-0.917-0.518-1.364-0.661
		c-2.889-0.929-5.684-2.127-8.54-3.12c-4.007-1.395-7.977-2.871-11.953-4.346c-3.28-1.216-6.569-2.41-9.85-3.629
		c-3.784-1.405-7.618-2.678-11.387-4.119c-3.811-1.458-7.742-2.642-11.355-4.57c-2.714-1.448-5.192-3.222-6.531-6.155
		c-0.516-1.129-0.074-2.459,0.854-3.298c1.437-1.3,3.224-1.532,5.001-1.856c2.186-0.398,4.389-0.294,6.585-0.206
		c1.334,0.053,2.662,0.279,3.994,0.418c0.552,0.057,0.932,0.223,0.836-0.771c-0.198-2.061-0.149-4.158-0.045-6.232
		c0.083-1.649-0.318-3.28,0.09-4.975c0.146-0.608-0.167-1.647-0.318-2.481c-0.077-0.425-0.496-0.467-0.818-0.574
		c-2.322-0.768-4.559-1.739-6.691-2.927c-0.834-0.465-2.064,0.171-2.451-0.396c-0.541-0.792-1.196-1.022-1.946-1.34
		c-1.78-0.754-3.501-1.657-5.313-2.318c-1.87-0.683-3.644-1.574-5.593-2.116c-2.041-0.567-3.987-1.562-5.831-2.717
		c-1.069-0.669-1.72-1.579-2.325-2.576c-0.583-0.959-0.253-2.468,0.643-3.403c1.894-1.978,4.357-2.37,6.803-2.873
		c1.429-0.294,2.88-0.521,4.352-0.488c1.112,0.024,2.21,0.217,3.318,0.3c0.85,0.064,1.714,0.352,2.277,1.282
		c0.556,0.919,1.437,0.424,2.209,0.086c3.429-1.497,6.938-2.714,10.747-2.62c1.749,0.043,3.404,0.535,4.922,1.435L45.604,11.995z
		 M68.926,60.908c-0.613-0.997-1.587-1.151-2.633-1.106c-0.13,0.006-0.305,0.132-0.36,0.249c-0.033,0.072,0.104,0.317,0.198,0.339
		c0.93,0.217,1.769,0.986,2.821,0.491c0.459,1.15,2.585,2.038,3.874,1.458C71.459,61.78,70.314,61.048,68.926,60.908z
		 M31.507,90.891c0.434,0.881,1.766,0.975,2.494,0.175c-0.833-0.159-1.659-0.44-2.519-0.148c-0.387-0.841-0.208-1.33,0.805-1.385
		c0.311-0.017,0.876,0.001,0.724-0.513c-0.113-0.379-0.652-0.252-0.935-0.12c-0.919,0.43-1.849,0.812-2.83,1.076
		c-0.412,0.111-0.663,0.354-0.482,0.944C29.719,90.249,30.59,91.294,31.507,90.891z M65.041,63.821
		c0.368,1.121,1.355,0.864,2.176,0.979c0.042,0.231,0.004,0.583,0.14,0.674c1.025,0.685,0.264,0.907-0.292,1.021
		c-1.188,0.241-2.203,0.847-3.267,1.36c-0.354,0.172-0.651,0.111-1.069-0.058c-0.894-0.362-1.802-0.896-2.711-1
		c-1.91-0.218-3.522-1.165-5.271-1.76c-1.511-0.515-2.833-1.588-4.545-1.508c-0.074-0.629-0.514-0.74-1.052-0.88
		c-1.05-0.272-2.143-0.32-3.081-1.115c-0.657-0.556-1.668-1.222-2.72,0.047c0.877-0.05,1.335,0.529,2.013,0.675
		c1.185,0.256,2.369,0.525,3.345,1.37c0.444,0.384,1.043,0.316,1.517-0.125c-0.157,0.32-0.007,0.668,0.255,0.673
		c1.062,0.021,1.815,0.778,2.718,1.14c1.929,0.773,3.951,1.299,5.804,2.337c1.335,0.748,3,0.895,4.415,1.602
		c0.363,0.182,0.562,0.009,0.824-0.223c0.307-0.271,0.638-0.602,1.174-0.474c-0.295,0.381-0.852,0.407-1.001,1.078
		c1.263-0.42,2.146,0.591,3.17,0.933c1.253,0.419,2.671,0.797,3.896,1.601c0.897,0.588,2.156,0.828,3.254,1.166
		c1.589,0.489,3.185,0.866,4.716,1.593c2.172,1.029,4.52,1.631,6.708,2.699c1.344,0.656,2.931,0.886,4.373,1.499
		c2.603,1.107,5.376,1.758,8.03,2.775c1.434,0.55,2.815,1.595,4.516,1.396c0.045-0.006,0.101,0.111,0.157,0.165
		c0.862,0.808,2.258,0.18,3.09,1.167c0.193,0.229,0.554-0.196,0.843-0.309c1.902-0.743,3.746-1.681,5.842-1.779
		c0.265-0.013,0.386-0.124,0.556-0.328c0.693-0.83,1.641-1.209,2.694-1.364c0.961-0.142,1.865-0.452,2.865-0.947
		c-0.661-0.466-1.331-0.329-1.909-0.579c-2.064-0.894-4.203-1.611-6.312-2.402c-0.508-0.191-0.883-0.737-1.524-0.572
		c-0.163,0.041-0.565-0.017-0.435,0.18c0.53,0.798-0.307,0.646-0.547,0.787c-0.643,0.374-1.359,0.76-2.092,0.697
		c-0.45-0.037-1.092-0.516-1.308-0.713c-0.976-0.893-2.37-0.649-3.275-1.446c-0.71-0.626-1.653-0.399-2.418-0.88
		c-0.783-0.491-1.74-0.71-2.628-1.028c-0.272-0.098-0.571-0.048-0.8,0.119c-0.091,0.066-0.12,0.287-0.1,0.428
		c0.071,0.495,0.428,0.106,0.589,0.18c0.929,0.42,2.019,0.594,2.823,1.058c1.178,0.679,2.412,1.059,3.627,1.566
		c0.674,0.281,1.56,0.326,1.98,1.107c-1.344,0.764-1.344,0.764-2.694,0.194c-0.036-0.016-0.077-0.037-0.111-0.031
		c-0.853,0.139-1.554-0.357-2.327-0.552c-0.985-0.247-1.773-1.039-2.729-1.198c-1.302-0.217-2.395-0.793-3.536-1.358
		c-0.697-0.346-1.385,0.083-1.997,0.436c-0.185,0.105-0.241,0.563,0.048,0.549c1.308-0.07,2.365,1.164,3.739,0.627
		c0.015,0.331-0.578,0.748,0.091,0.869c1.543,0.281,2.972,0.884,4.401,1.48c0.815,0.34,1.832,0.388,2.284,1.474
		c-1.457,0.293-2.875,0.428-4.217-0.288c-0.846-0.451-1.704-0.791-2.658-0.911c-0.626-0.079-1.302-0.292-1.789-0.562
		c-1.999-1.115-4.34-1.29-6.308-2.415c-1.067-0.61-2.585-0.164-3.278-1.541c0.415-0.27,0.642-1.078,0.937-1.228
		c2.459-1.248,5.066-2.165,7.704-2.985c1.035-0.321,1.846,0.239,2.696,0.647c0.236,0.113,0.475,0.192,0.622-0.062
		c0.094-0.163,0.073-0.465-0.17-0.489c-1.097-0.113-1.859-0.999-2.926-1.202c-1.226-0.234-2.632-0.447-3.548-1.077
		c-1.214-0.834-2.644-0.599-3.852-1.435c-1.027-0.71-2.421-1.001-3.492-1.798c-0.21-0.157-0.42-0.257-0.65-0.242
		c-1.522,0.098-2.577-1.148-4.016-1.416c-0.48-0.09-1.195-0.155-1.667-0.485c-1.414-0.988-2.218-1.062-3.563-0.015
		c-1.371,1.067-2.824,1.747-4.606,1.441c-0.294-1.284-1.402-0.76-2.176-0.978c0.174-0.792,0.207-1.685-0.744-1.836
		c-0.937-0.15-1.616-0.794-2.556-0.973c-0.655-0.125-1.808,0.172-2.118-0.979c-0.023-0.086-0.37-0.142-0.555-0.118
		c-0.784,0.099-1.375,0.627-2.397,0.333c-0.776-0.223-2.005,0.583-2.705,1.487c-0.207,0.267-0.228,0.586,0.119,0.661
		c0.748,0.161,1.384,0.603,2.056,0.823c0.835,0.273,1.531,0.841,2.339,1.016c0.852,0.184,1.48,0.997,2.439,0.785
		c0.281-0.062,0.586-0.086,0.484-0.49c-0.062-0.244-0.3-0.515-0.5-0.378c-0.552,0.38-0.824-0.123-1.234-0.243
		c-0.667-0.194-0.899-1.181-2.047-0.726c1.586-1.107,3.46-1.19,4.377-0.591C62.887,63.223,63.806,63.97,65.041,63.821z
		 M48.52,58.544c-0.028,0.478-0.633,0.433-0.77,0.835c0.485,0.204,0.689-0.345,1.077-0.373c0.314-0.023,0.76-0.042,0.706-0.434
		c-0.049-0.359-0.509-0.235-0.807-0.265c0.669-0.213,1.252-0.662,1.976-0.725c-0.108,0.405,0.102,0.517,0.434,0.407
		c0.595-0.198,1.212-0.374,1.756-0.674c1.087-0.6,2.354-0.755,3.431-0.587c1.743,0.272,3.404,1.044,5.033,1.791
		c0.421,0.193,1.021,0.577,1.204-0.308c-0.46-0.268-1.18,0.19-1.321-0.365c-0.185-0.728-0.692-0.649-1.165-0.768
		c-0.949-0.24-2.15-0.204-2.789-0.785c-1.047-0.953-2.224-0.518-3.301-0.834c0.06-0.177,0.222-0.41,0.161-0.521
		c-0.176-0.319-0.429-0.096-0.688-0.036c-1.126,0.258-2.117,0.955-3.303,1.008l0.021,0.024c0.338-0.488,0.885-0.591,1.399-0.737
		c0.432-0.123,0.927-0.109,1.167-0.585c0.029-0.058-0.066-0.249-0.142-0.278c-0.492-0.189-0.925,0.013-1.348,0.246
		c-0.035,0.019-0.069,0.041-0.105,0.057c-2.862,1.271-5.728,2.534-8.583,3.818c-0.712,0.32-1.392,0.714-2.093,1.06
		c-0.18,0.089-0.38,0.127-0.373,0.387c0.006,0.2,0.111,0.272,0.301,0.256c0.698-0.058,1.223,0.951,2.026,0.327
		c0.072-0.056,0.173,0.08,0.125,0.217c-0.282,0.816,0.411,0.466,0.594,0.404c0.399-0.135,0.735-0.442,1.12-0.632
		C45.659,59.783,46.938,58.828,48.52,58.544z M202.776,102.746c-0.135,0.919,0.565,0.738,0.986,0.637
		c0.871-0.209,1.711-0.551,2.563-0.838c-0.017-0.078-0.033-0.156-0.05-0.233c-1.178,0.155-2.355,0.31-3.533,0.465
		c0.515-0.468,0.218-0.479-0.253-0.523c-1.246-0.115-2.505,0.328-3.759-0.202c-0.483-0.205-1.127-0.033-1.697-0.033
		c2.681-2.746,6.31-2.485,9.541-3.533c-2.301,0.081-4.531-0.451-6.871-0.644c0.969,0.216,0.773,0.916,0.805,1.496
		c-0.725,0.037-1.396,0.568-2.177,0.157c-1.833-0.965-3.38-0.946-5.262-0.125c-0.639,0.278-1.369,0.361-2.066,0.49
		c-0.299,0.056-0.593,0.121-0.613,0.439c-0.036,0.548,0.415,0.221,0.606,0.237c0.905,0.078,2.02,0.294,2.682,0.094
		c1.213-0.366,2.121-0.012,3.155,0.277c-0.184,0.267-0.452,0.33-0.732,0.358c-1.019,0.104-1.976,0.617-3.081,0.091
		c-0.518-0.246-1.299,0.137-1.943,0.068c-2.284-0.242-4.567-0.405-6.863-0.273c-0.025,0.002-0.043,0.125-0.074,0.222
		c0.897,0.37,1.883-0.131,2.779,0.322c1.401,0.708,3.008,0.019,4.51,0.663c0.591,0.253,1.663,0.141,2.454,0.09
		c1.377-0.089,2.657,0.895,4.032,0.247c0.117-0.056,0.343-0.014,0.451,0.069c1.016,0.779,2.089,0.446,3.147,0.169
		C201.933,102.824,202.32,102.592,202.776,102.746z M87.601,65.043c-0.537,0.156-1.017-0.019-1.482-0.263
		c-2.594-1.354-5.47-2.015-8.109-3.274c-0.32-0.153-0.9-0.521-1.75,0.098c6.139,2.349,12.019,4.599,17.966,6.875
		c0.077-0.66-0.199-0.709-0.474-0.807c-0.924-0.327-1.86-0.635-2.753-1.036c-0.956-0.431-2.075-0.552-2.813-1.416
		c0.844-0.252,1.514,0.227,2.216,0.543c0.768,0.346,0.927,0.062,0.723-0.65l-0.022,0.02c0.386,0.053,0.453,0.717,1.032,0.491
		c0-0.22,0.05-0.469-0.008-0.689c-0.646-2.491,0.074-4.976,0.086-7.461c0.011-2.142,0.035-2.45-1.927-3.229
		c-1.604-0.637-3.259-1.147-4.801-1.947c-0.452-0.234-0.896-0.829-1.448-0.504c-0.548,0.321,0.027,0.849,0.024,1.291
		c-0.019,3.129,0.048,6.259,0.096,9.388c0.02,1.336,0.507,1.627,1.631,0.995l-0.014-0.015c-0.244,0.573-0.138,0.912,0.568,0.886
		C86.897,64.317,87.326,64.549,87.601,65.043z M103.005,64.164l-0.017-0.027c-1.399,0.912-2.827,1.783-4.182,2.755
		c-0.507,0.364-1.43,0.683-1.307,1.316c0.111,0.576,1.012,0.728,1.638,0.991c1.386,0.585,2.922,0.812,4.187,1.7
		c-0.646-0.007-1.264-0.073-1.836-0.369c-1.969-1.016-4.22-1.297-6.171-2.367c-0.224-0.123-0.585-0.204-0.68,0.188
		c-0.065,0.268,0.174,0.408,0.413,0.496c0.917,0.337,1.841,0.656,2.746,1.022c1.893,0.767,3.731,1.701,5.672,2.309
		c3.358,1.052,6.47,2.717,9.823,3.766c0.597,0.188,1.147,0.499,1.748,0.708c1.804,0.627,3.582,1.34,5.337,2.096
		c1.18,0.507,2.365,0.928,3.667,1.174c-0.084-0.826-0.549-1.177-1.12-1.39c-0.663-0.247-1.334-0.521-2.026-0.629
		c-1.038-0.161-1.746-0.957-2.662-1.264c-0.941-0.315-1.88-0.673-2.826-0.974c-3.2-1.019-6.336-2.246-9.472-3.455
		c-0.717-0.276-1.6-0.35-2.134-1.251c0.669,0.122,1.223-0.397,1.794,0.473c0.335,0.511,1.399,0.578,2.154,0.766
		c0.503,0.125,0.583-0.349,0.619-0.688c0.033-0.304-0.122-0.626-0.099-0.934c0.066-0.902-0.313-0.815-0.918-0.493
		c-0.5,0.266-0.928,0.767-1.67,0.612c0.462-0.658,1.154-0.91,1.772-1.184c0.574-0.253,0.781-0.562,0.774-1.163
		c-0.026-2.118-0.032-4.236-0.008-6.355c0.007-0.609-0.195-0.782-0.812-0.862c-1.228-0.16-2.391-0.614-3.527-1.111
		c-2.411-1.056-4.814-2.13-7.24-3.15c-0.342-0.144-0.9-0.444-0.976,0.455c-0.238,2.842,0.122,5.729-0.578,8.528
		c-0.129,0.515,0.835,0.355,0.375,0.716c-0.554,0.435-0.492,0.721-0.038,1.104c0.469,0.396,1.001,0.59,1.517,0.158
		c1.042-0.871,2.299-1.396,3.404-2.179C101.15,65.083,101.872,64.202,103.005,64.164z M73.375,92.438
		c0.533-0.353,1.353-0.302,1.38-1.33c0.013-0.484,0.823-0.588,1.298-0.57c0.551,0.02,0.407,0.431,0.332,0.877
		c-0.131,0.772,0.593,0.584,0.892,0.455c0.847-0.366,0.373-1.186,0.462-1.808c0.063-0.438,0.038-0.919-0.57-1.004
		c-1.903-0.266-3.735,0.055-5.519,0.712c-0.117,0.043-0.196,0.239-0.256,0.381c-0.568,1.325-0.004,2.213,1.412,2.237
		c0.2,0.003,0.399,0.016,0.599,0.024c-0.373,0.802-0.164,1.649-0.179,2.476c-0.027,1.482-0.574,2.018-2.072,1.981
		c-0.578-0.014-0.89-0.188-0.857-0.839c0.042-0.838-0.005-1.68,0.018-2.52c0.019-0.689-0.356-1.032-0.959-0.865
		c-1.381,0.384-2.779,0.1-4.163,0.228c-0.437,0.041-0.843-0.023-1.018,0.568c-0.192,0.651-0.666,0.517-0.988,0.117
		c-1.192-1.484-2.936-2.287-4.302-3.552c-0.23-0.213-0.462-0.307-0.751-0.071c0.114,0.421,0.276,0.847,0.623,1.107
		c1.312,0.99,2.646,1.952,3.983,2.91c1.483,1.062,3.042,2.056,4.291,3.378c0.659,0.696,1.267,0.947,2.168,0.904
		c4.279-0.205,8.476-1.116,12.758-1.376c4.69-0.285,9.353-1.019,14.037-1.441c1.327-0.12,2.44-0.124,3.043-1.639
		c0.399-1.002,1.176-1.855,1.429-2.983c-0.625-0.11-1.166-0.118-1.781,0.036c-1.15,0.288-2.295,0.562-3.409,0.981
		c-0.582,0.22-1.207,0.357-1.638-0.406c-0.255-0.45-0.999-0.482-1.105-0.127c-0.416,1.396-1.637,1.127-2.579,1.493
		c-1.058,0.411-1.397,0.07-1.421-0.968c-0.06-2.602-0.165-5.201-0.226-7.803c-0.014-0.595,0.208-1.075,0.885-1.238
		c0.796-0.189,1.694-0.748,2.356-0.107c0.436,0.421,0.483,1.288-0.009,2.004c-0.371-0.761-1.004-0.825-1.648-0.485
		c-0.605,0.318-0.252,0.85-0.208,1.354c0.126,1.418,0.155,2.847,0.164,4.271c0.002,0.443-0.156,0.971,0.355,1.122
		c0.43,0.128,0.97,0.113,1.358-0.262c0.244-0.236,0.27-0.65,0.621-0.817c0.626,1.292,0.639,1.299,1.101,0.834
		c0.25-0.252,0.375-0.534,0.278-0.862c-0.117-0.395-0.49-0.521-0.835-0.542c-0.694-0.042-1.393-0.013-2.089-0.013
		c0.637-0.188,1.274-0.162,1.908-0.194c0.648-0.034,1.097-0.384,0.987-1.063c-0.271-1.68-0.47-3.363-0.429-5.066
		c0.018-0.74-0.235-1.124-1.001-1.357c-1.689-0.516-3.338-1.165-5.002-1.765c-0.475-0.171-0.893-0.143-1.352,0.13
		c-2.59,1.532-5.414,2.634-8.188,3.692c-2.778,1.061-5.393,2.496-8.228,3.406c-0.786,0.252-1.489,0.763-2.258,1.169
		c0.981,0.504,1.947,0.216,2.887,0.215c1.193,0,2.415-1.208,3.58,0.106c0.056,0.062,0.231,0.022,0.352,0.022
		c0.92,0.003,1.841-0.028,2.759,0.017c0.691,0.034,0.897-0.239,0.871-0.904c-0.02-0.486-0.26-1.131,0.317-1.424
		c0.693-0.352,1.453-0.579,2.196-0.824c0.492-0.163,0.844,0.047,1.001,0.539c0.157,0.491-0.161,0.75-0.537,0.903
		c-0.363,0.148-0.765,0.196-1.142,0.316c-0.47,0.149-0.705,0.446-0.626,0.98c0.076,0.516,0.382,0.643,0.835,0.64
		c0.639-0.003,1.279,0.012,1.919,0.019c1.582,0.016,1.629-0.096,1.802-1.646c0.102-0.918,0.049-1.911,0.624-2.722
		c0.26-0.366,0.755-0.781,0.979-0.096c0.639,1.958,1.897,3.684,2.151,5.782c0.05,0.414,0.019,0.898,0.653,0.963
		c0.216,0.021,0.45,0.124,0.077,0.416c-0.302,0.237-0.219,0.659,0.053,0.953c0.381,0.41,0.417,0.869-0.103,1.065
		c-0.54,0.204-0.581-0.386-0.71-0.733c-0.401-1.082-1.002-1.388-2.404-1.083c-0.856,0.186-0.8,0.938-0.83,1.601
		c-0.005,0.12-0.01,0.24-0.001,0.36c0.043,0.555-0.223,1.042-0.725,1.059c-0.609,0.021-0.509-0.594-0.498-1.013
		c0.014-0.499,0.311-1.217,0.083-1.456c-0.906-0.948-2.015,0.092-3.045-0.109c-0.415-0.081-0.762,0.084-0.861,0.606
		c-0.202,1.068,0.294,1.428,1.528,1.025c0.414-0.135,0.92-0.446,1.102,0.11c0.197,0.604-0.078,1.194-0.782,1.376
		c-0.5,0.128-1.048,0.098-1.528,0.268c-0.853,0.303-1.075-0.072-1.062-0.822c0.006-0.36,0.021-0.722-0.004-1.08
		c-0.059-0.855-0.355-1.396-1.391-1.258C75.53,92.525,74.45,92.623,73.375,92.438z M57.122,52.587l-0.019-0.024
		c0.598,1.278,0.932,1.357,2.638,0.503c-0.394,0.737,0.053,0.991,0.529,1.18c1.423,0.567,2.845,1.141,4.292,1.643
		c0.465,0.161,0.767,0.378,1.154,1.021c-3.316-1.158-6.242-2.595-9.379-3.393c6.347,2.813,12.801,5.322,19.323,7.653
		c-0.296-0.855-1.212-0.772-1.674-1.306c1.225-0.656,1.712,0.6,2.57,0.888c1.148,0.385,2.412,0.438,3.455,1.136
		c0.315,0.211,0.615,0.591,1.033,0.407c0.493-0.217,0.391-0.726,0.401-1.159c0.077-3.469-0.194-6.925-0.351-10.386
		c-0.016-0.343-0.06-0.686-0.428-0.762c-1.593-0.329-2.901-1.333-4.436-1.818c-1.377-0.436-2.711-1.062-4.023-1.629
		c-1.567-0.676-2.965-1.696-4.772-1.663c-0.315,0.006-0.416-0.225-0.444-0.462c-0.048-0.414-0.361-0.432-0.657-0.558
		c-3.11-1.325-6.222-2.647-9.306-4.029c-0.629-0.282-0.891-0.285-0.875,0.454c0.051,2.395-0.382,4.77-0.268,7.168
		c0.068,1.431,0.076,2.865-0.373,4.261c-0.172,0.537,0.064,0.841,0.656,0.835C56.485,52.545,56.804,52.573,57.122,52.587z
		 M177.21,81.166c1.246-0.061,1.855,0.838,2.306,1.778c0.916,1.913-0.409,5.28-2.988,6.129c-0.972,0.32-1.486,0.884-1.514,1.823
		c-0.025,0.885,0.98,0.597,1.389,1.023c0.049,0.051,0.104,0.095,0.252,0.231c-2.403,0.163-4.419-1.177-6.966-1.217
		c0.466-0.255,0.831-0.292,0.778-0.594c-0.018-0.102-0.387-0.26-0.504-0.203c-0.365,0.178-0.876,0.951-0.665-0.28
		c0.021-0.118-0.44-0.181-0.519-0.048c-0.484,0.819-1.255,0.56-1.805,0.332c-1.03-0.426-2.141-0.509-3.179-0.94
		c-0.763-0.317-1.642-0.403-2.441-0.771c-0.46-0.212-1.113,0.096-1.185,0.663c-0.087,0.691,0.566,0.342,0.88,0.373
		c0.484,0.049,0.926,0.211,1.386,0.333c1.551,0.414,3.099,0.847,4.666,1.186c3.073,0.664,6.087,1.585,9.244,1.884
		c2.642,0.25,5.225,1.015,7.927,1.051c-0.224-0.856-1.253-0.239-1.593-1.046c0.488,0,0.911-0.016,1.333,0.004
		c0.521,0.023,0.948,0.798,1.505,0.297c0.515-0.465-0.059-1.031-0.049-1.568c0.057-2.836,0.023-5.675,0.018-8.512
		c-0.003-1.556-0.5-1.965-1.823-1.517c-0.066,0.022-0.156,0.003-0.229-0.021c-1.758-0.557-3.689-0.191-5.372-0.771
		c-1.379-0.475-2.354-0.04-3.235,0.637c-0.711,0.546-1.449,0.995-2.218,1.421c-0.371,0.206-0.787,0.331-1.151,0.546
		c-0.197,0.116-0.561,0.436-0.072,0.544c0.669,0.148,0.668,0.733,0.91,1.127c0.967,1.571,2.502,1.854,3.995,0.74
		c0.275-0.205,0.713-0.454,1.1-0.289c0.36,0.154,0.394,0.511,0.252,0.892c-0.064,0.174-0.025,0.45,0.258,0.41
		c0.167-0.024,0.37-0.17,0.459-0.319C179.198,85.072,179.224,82.018,177.21,81.166z M52.429,51.264
		c0.312-0.844-0.125-1.406-0.128-2.021c-0.018-3.414,0.111-6.82,0.473-10.216c0.062-0.579-0.079-1.096-0.634-1.28
		c-2.115-0.698-3.984-1.962-6.134-2.589c-1.507-0.439-1.574-0.442-1.582,1.182c-0.019,3.715-0.018,7.431-0.072,11.146
		c-0.011,0.771,0.318,0.992,0.993,0.982c0.739-0.011,1.509-0.161,1.918,0.771c0.138,0.315,0.631,0.265,0.983,0.326
		c0.389,0.068,0.842,0.064,1.146,0.271C50.343,50.481,51.612,50.276,52.429,51.264z M218.51,97.472
		c-0.131-0.581-0.222-0.984-0.697-1.298c-0.438-0.288-0.448-1.24-0.197-1.261c0.879-0.07,0.611-0.651,0.623-1.057
		c0.089-2.951,0.139-5.903,0.216-8.855c0.012-0.439-0.065-0.72-0.561-0.479c-2.075,1.009-4.267,1.18-6.521,0.951
		c-0.267-0.026-0.621-0.059-0.604,0.364c0.026,0.643-0.303,1.21-0.285,1.869c0.057,2.047,0.032,4.097,0.015,6.145
		c-0.02,2.485-0.03,2.485,2.328,2.956c0.039,0.008,0.077,0.022,0.116,0.026C214.775,97.045,216.608,97.255,218.51,97.472z
		 M122.48,52.143c-0.02,0.73,0.001,1.169,0.047,1.641c0.077,0.787,0.103,1.662-0.423,2.338c-0.941,1.211-0.923,2.708-1.231,4.083
		c-0.415,1.842,0.129,3.789-0.373,5.648c-0.273,1.013,0.893,1.481,0.886,2.454c-0.002,0.268,0.828-0.169,1.294-0.188
		c0.346-0.015,0.822-0.23,0.863,0.267c0.028,0.351-0.457,0.482-0.811,0.505c-2.901,0.188-4.027,2.29-5.016,4.58
		c-0.156,0.362,0.316,0.57,0.071,0.882c-0.151,0.193-0.457,0.318-0.141,0.666c0.332,0.365,0.314-0.429,0.712-0.115
		c1.183,0.932,2.793,0.703,4.132,1.316c0.209,0.096,1.06-0.274,1.676-0.271c0.227,0.002,0.121-0.482-0.052-0.714
		c-0.381-0.512-0.585-1.104-0.817-1.686c-0.573-1.433-0.062-4.864,1.985-5.666c0.326-0.128,0.618-0.343,0.635-0.753
		c-0.205-0.234-0.46-0.136-0.681-0.141c-2.507-0.059-2.794-0.505-2.286-3.034c0.415-2.064,0.083-4.186,0.296-6.286
		c0.098-0.961-0.187-1.987,0.046-3.019C123.474,53.854,123.356,53.017,122.48,52.143z M63.734,88.302
		c0.319,0,0.638,0.005,0.957-0.001c0.274-0.006,0.589,0.052,0.74-0.26c0.197-0.408-0.259-0.396-0.407-0.586
		c-0.655-0.843-1.532-1.509-2.166-2.324c-1.448-1.865-3.336-3.287-4.812-5.107c-0.353-0.435-0.762-0.542-1.235-0.15
		c-0.604,0.499-1.211,0.995-1.829,1.478c-1.332,1.039-2.192,2.281-1.967,4.086c0.067,0.538,0.157,0.885,0.776,0.985
		c0.776,0.126,1.542,0.331,2.299,0.549C58.592,87.688,61.089,88.414,63.734,88.302z M53.548,47.237
		c0.104,1.161-0.262,2.638,0.416,4.054c0.175,0.366,0.359,0.652,0.677,0.697c0.463,0.065,0.35-0.468,0.445-0.702
		c0.668-1.653,0.484-3.456,0.554-5.156c0.156-3.767,0.577-7.525,0.498-11.302c-0.005-0.24-0.021-0.485,0.021-0.717
		c0.588-3.225-0.138-6.509,0.444-9.734c0.043-0.237,0.098-0.62-0.342-0.611c-0.339,0.007-0.321,0.307-0.308,0.534
		c0.064,1.096-0.341,2.021-1.081,2.783c-0.415,0.427-0.405,0.931-0.452,1.432c-0.296,3.2-0.365,6.417-0.561,9.623
		C53.681,41.062,53.469,44.008,53.548,47.237z M94.338,85.316c-0.032,0.729,0.085,1.744,0.203,2.77
		c0.094,0.816,0.438,1.06,1.139,0.987c1.445-0.15,2.858-0.01,4.295,0.203c1.517,0.226,2.907-1.06,3.267-3.147
		c0.208-1.206-1.141-0.648-1.712-1.017c-1.707-1.1-3.772-1.257-5.578-2.142c-1.253-0.614-1.668-0.188-1.615,1.203
		C94.348,84.453,94.338,84.733,94.338,85.316z M95.358,42.608c-0.685,0.924-1.328,1.857-1.478,2.974
		c-0.342,2.548-0.505,5.113-0.495,7.686c0.004,1.057,0.119,2.132-0.039,3.166c-0.443,2.918-0.475,5.846-0.453,8.782
		c0.004,0.463,0.124,0.864,0.369,1.221c0.147,0.214,0.321,0.496,0.65,0.463c0.37-0.038,0.308-0.383,0.423-0.621
		c0.333-0.688,0.241-1.409,0.199-2.109c-0.264-4.453,0.908-8.825,0.727-13.271c-0.006-0.153,0.065-0.308,0.083-0.464
		C95.66,47.831,95.439,45.229,95.358,42.608z M113.714,102.523c-0.607,0.07-0.855,0.329-1.176,0.56
		c-2.529,1.821-4.757,0.739-5.512-2.092c-0.563-2.111-0.311-4.131,0.477-6.121c0.666-1.681,1.495-2.14,2.753-1.59
		c0.728,0.318,1.001,0.679,0.428,1.396c-0.465,0.583-0.784,1.247-1.049,1.962c-0.197,0.531-0.337,1.248-1.172,1.343
		c-0.439,0.051-0.419,0.488-0.446,0.86c-0.032,0.438,0.294,0.551,0.565,0.649c0.362,0.131,0.971,0.271,1.073-0.099
		c0.292-1.051,1.172-0.9,1.878-1.107c0.752-0.221,1.358-0.331,1.392,0.863c0.01,0.361-0.235,1.301,0.299,1.259
		c0.417-0.031,0.589-0.951,0.748-1.529c0.03-0.112-0.013-0.242,0.01-0.357c0.287-1.449-0.465-2.712-0.808-4.023
		c-0.385-1.469-2.891-2.404-4.38-2.135c-1.545,0.278-2,1.449-2.42,2.564c-0.952,2.537-0.917,5.037,0.391,7.548
		c0.775,1.489,1.988,2.043,3.404,2.094C111.574,104.617,112.781,103.911,113.714,102.523z M172.878,100.249
		c2.865,0.331,5.725,0.671,8.587,0.988c0.793,0.088,1.67,0.045,2.299-0.362c2.539-1.646,5.174-2.908,8.238-3.287
		c0.992-0.122,2.066,0.048,3.179-0.403c-1.061-0.359-5.64-0.403-6.458-0.121c-0.405,0.14-0.833,0.371-0.844-0.398
		c-0.006-0.413-0.287-0.632-0.718-0.616c-0.651,0.023-1.212-0.299-1.814-0.455c-0.759-0.197-1.568-0.204-2.357-0.273
		c-0.187-0.017-0.441-0.021-0.477,0.235c-0.044,0.315,0.208,0.396,0.456,0.403c0.559,0.018,1.121-0.021,1.677,0.029
		c0.545,0.05,0.977,0.344,0.665,0.939c-0.542,1.032,0.127,0.761,0.694,0.771c0.296,0.006,0.539-0.412,0.888-0.059
		c-0.144,0.094-0.261,0.225-0.4,0.255c-1.37,0.293-2.73,0.584-2.88,2.364c-0.028,0.339-0.306,0.319-0.538,0.321
		c-0.919,0.007-1.84,0.047-2.755-0.013c-0.825-0.054-1.072-0.508-0.714-1.304c0.281-0.625-0.131-0.484-0.476-0.584
		c-0.971-0.28-1.94,0.105-2.955-0.187C174.027,97.875,173.246,98.376,172.878,100.249z M131.202,73.288
		c0.579-0.747,0.136-1.572,0.166-2.359c0.058-1.464-0.87-2.277-1.984-2.811c-1.449-0.692-2.997-0.638-4.176,0.547
		c-1.13,1.135-1.144,2.707-1.076,4.216c0.032,0.73-0.144,1.799,1.233,1.121c0.241-0.119,0.354,0.117,0.399,0.312
		c0.099,0.414,0.533,0.393,0.65,0.267c0.952-1.022,2.61-0.859,3.429-2.064c0.293-0.432,0.469-0.223,0.732,0.03
		C130.803,72.765,130.77,73.175,131.202,73.288z M47.826,100.058c0.199,0,0.403,0.027,0.597-0.005
		c1.188-0.196,2.455-0.263,2.798-1.799c0.145-0.646,0.347-1.255-0.55-1.524c-0.207-0.062-0.444-0.237-0.536-0.426
		c-0.397-0.813-0.939-0.822-1.765-0.631c-0.673,0.155-1.718,0.609-2.104-0.338c-0.395-0.97-1.097-0.905-1.678-0.672
		c-0.526,0.212-1.293-0.206-1.578,0.495c-0.645,1.584,0.631,4.165,2.187,4.866C46.129,100.444,46.956,99.985,47.826,100.058z
		 M110.998,61.202c-0.721,0.561-0.987,1.637-0.696,1.947c0.767,0.815,0.412,1.611,0.353,2.411c-0.074,1.004,0.146,1.927,0.434,2.869
		c0.079,0.259-0.402,0.665-0.021,0.951c0.358,0.269,0.812,0.065,1.127-0.113c1.603-0.909,3.399-1.587,4.347-3.348
		c0.292-0.543,0.523-1.335-0.132-1.525c-1.482-0.431-2.777-1.272-4.231-1.713C111.41,62.447,110.863,62.208,110.998,61.202z
		 M123.111,82.638c-1.017,0.306-1.305,1.097-1.682,1.819c-1.166,2.23-1.353,4.749-2.106,7.102c-0.48,1.496-0.836,3.033-0.971,4.605
		c-0.031,0.37-0.22,0.943,0.194,1.089c0.419,0.146,0.715-0.363,0.977-0.689c0.118-0.146,0.188-0.342,0.244-0.526
		c0.317-1.055,0.608-2.117,0.938-3.167c0.68-2.168,0.894-4.45,1.789-6.579C122.949,85.21,122.912,83.923,123.111,82.638z
		 M207.95,102.068c3.468-0.747,6.89-1.484,10.311-2.222c-1.231-0.334-2.459,0.077-3.654-0.396c-0.171-0.067-1.123-0.598-0.957,0.614
		c0.067,0.496-2.413,0.688-2.732,0.139c-0.261-0.448-0.625-0.304-0.936-0.238c-0.264,0.055-0.535,0.274-0.794,0.164
		c-1.829-0.781-3.512-0.018-5.183,0.53c-0.819,0.269-1.743,0.262-2.595,0.817c0.539,0.251,0.944,0.139,1.292-0.061
		c0.438-0.25,1.237-0.382,1.326-0.275c0.93,1.125,2.047,0.5,2.983,0.263C207.899,101.181,208.065,101.381,207.95,102.068z
		 M172.541,100.396c0-0.521,0.023-0.726-0.006-0.921c-0.047-0.307,0.194-0.774-0.404-0.81c-0.463-0.027-0.763,0.19-0.894,0.624
		c-0.057,0.188-0.083,0.39-0.089,0.585c-0.053,1.785,0.017,3.563-0.211,5.354c-0.264,2.064,0.188,4.209-0.702,6.213
		c-0.09,0.203-0.132,0.508,0.195,0.579c0.254,0.056,0.541,0.12,0.673-0.274c0.297-0.893,0.729-1.751,0.938-2.661
		C172.722,106.116,171.882,103.053,172.541,100.396z M66.48,90.062c-0.439,0.523-0.721,1.056-1.057,1.52
		c-0.699,0.967-0.086,0.985,0.575,0.979c1.07-0.011,2.139-0.1,3.209-0.137c0.536-0.018,1.208-0.01,1.063-0.742
		c-0.19-0.966,0.247-2.118-0.744-2.876c-0.027-0.021-0.078-0.011-0.118-0.014c-1.103-0.068-2.213,0.031-3.31-0.202
		c-0.397-0.085-0.863,0.08-0.963,0.458c-0.091,0.344,0.361,0.432,0.651,0.558C65.999,89.698,66.18,89.86,66.48,90.062z
		 M176.012,111.981c1.462-2.392,0.346-7.564-2.821-8.221c-0.434,0.848-0.685,1.706,0.149,2.452c0.536,0.48,0.652,1.141,0.95,1.731
		c0.587,1.16,0.123,2.317,0.224,3.466c0.021,0.241-0.12,0.621,0.342,0.607c0.302-0.009,0.526-0.184,0.626-0.47
		c0.137-0.395-0.043-0.885,0.398-1.247C175.92,110.81,175.956,111.273,176.012,111.981z M133.468,68.786
		c-0.094,0.656,0.463,1.069,0.612,1.638c0.062,0.236,0.246,0.424,0.525,0.389c0.269-0.034,0.409-0.259,0.461-0.484
		c0.122-0.535,0.438-1.008,0.45-1.583c0.004-0.186-0.014-0.53,0.314-0.553c0.269-0.018,0.398,0.206,0.504,0.428
		c0.218,0.459,0.448,0.911,0.659,1.372c0.123,0.27,0.31,0.41,0.52,0.153c0.127-0.155,0.794-0.324,0.134-0.64
		c-0.561-0.268-0.133-0.344,0.059-0.491c0.202-0.155,0.304-0.358,0.259-0.622c-0.176-1.023-1.49-1.863-2.729-1.741
		C134.33,66.74,133.458,67.792,133.468,68.786z M122.433,51.196c-0.285-0.04-0.464-0.08-0.644-0.087
		c-1.319-0.049-2.233,0.901-3.345,1.365c-2.97,1.238-5.151,3.319-6.602,6.183c-0.143,0.282-0.417,0.601-0.019,0.81
		c0.355,0.187,0.566-0.129,0.704-0.442c0.8-1.82,2.129-3.176,3.742-4.292c0.628-0.434,1.192-0.973,1.853-1.346
		C119.467,52.628,120.974,52.194,122.433,51.196z M66.549,98.295c-0.801-1.172-2.025-1.664-2.784-2.655
		c-0.247-0.323-0.763-0.314-1.027,0.121c-0.597,0.984-1.595,1.754-1.667,3.155C62.851,98.714,64.609,98.515,66.549,98.295z
		 M172.59,114.358c-0.845-0.408-1.355,0.4-2.066,0.409c-1.604,0.02-2.941-0.459-3.916-1.773c-0.207-0.278-0.438-0.512-0.79-0.368
		c-0.282,0.115-0.062,0.441-0.129,0.607c-0.513,1.277,0.771,1.46,1.283,2.027c1.32,1.46,4.013,1.567,5.225,0.341
		c-1.192-0.163-2.411,0.494-3.848-0.073C169.957,115.268,171.646,116.212,172.59,114.358z M166.655,94.812
		c-0.773-0.115-0.894-0.934-1.467-1.621c0.124,1.818,1.257,2.779,2.05,4.22c0.117-0.671-0.381-0.85-0.247-1.254
		c0.086-0.259,0.127-0.466,0.453-0.353c0.392,0.136,0.605,1.167,1.224,0.24c0.023-0.035,0.149,0.57,0.443,0.161
		c0.12-0.169-0.035-0.361-0.164-0.526c-0.182-0.23-0.671-0.457-0.402-0.744c0.373-0.4,0.552,0.212,0.831,0.353
		c0.128,0.064,0.25,0.14,0.54,0.303c-0.297-1.321-1.206-1.919-1.904-2.785c-0.395,0.623,0.467,0.757,0.025,1.379
		c-0.239-1.235-0.911,0.088-1.354-0.373C166.384,94.132,167.04,94.438,166.655,94.812z M165.641,102.384
		c0.964,0.666,1.749-0.022,2.572,0.062c0.411,0.042,0.726-0.148,0.702-0.6c-0.021-0.412-0.305-0.611-0.721-0.632
		c-0.904-0.046-1.805-0.143-2.671-0.416c-0.327-0.103-0.7-0.018-0.547,0.275c0.23,0.437,0.1,0.846,0.176,1.213
		c0.302,1.461,1.039,2.775,1.875,4.018c0.3,0.445,0.609,0.116,0.93,0.016c0.226-0.072,0.519-0.051,0.475-0.389
		c-0.065-0.506-0.495-0.236-0.76-0.315c-0.302-0.09-0.686-0.099-0.764-0.472C166.707,104.188,165.897,103.539,165.641,102.384z
		 M43.739,88.835c-0.248,0.315-0.713,0.251-0.878,0.726c1.115,0.37,2.151,0.035,3.186-0.173c0.384-0.077,0.73-0.426,1.153-0.122
		c-0.051-0.204,0.436-0.396-0.088-0.647c-0.797-0.382-1.528-0.11-2.291-0.021c-0.15,0.018-0.593,0.395-0.402-0.069
		c0.265-0.646-0.153-0.411-0.366-0.415c-1.916-0.041-3.703,0.399-5.51,1.525C40.484,89.887,42.063,89.049,43.739,88.835z
		 M57.306,89.458c-0.013-0.118-0.027-0.236-0.041-0.354c-0.901,0.234-1.673-0.555-2.691-0.045c-1.997,1-4.002,2.195-6.419,1.473
		c-0.208-0.062-0.378,0.07-0.479,0.287c0.35,0.355,0.771,0.425,1.255,0.354c0.21-0.03,0.616-0.101,0.62,0.131
		c0.019,1.117,0.599,0.322,0.979,0.361c0.867,0.091,0.964-0.925,1.802-1.036C54.013,90.405,55.651,89.866,57.306,89.458z
		 M164,93.334c0.479,0.939-0.219,2.352,1.259,2.991c0.407,0.177,0.573,0.903,0.858,1.372c0.192,0.316,0.282,0.58-0.215,0.681
		c-0.266,0.053-0.69,0.104-0.627,0.398c0.067,0.312,0.388,0.575,0.823,0.558c0.311-0.013,0.647,0.005,0.934,0.112
		c0.396,0.148,0.902,0.275,1.116-0.008c0.406-0.538-0.6-0.481-0.546-0.962c0.255-0.244,0.751,0.021,0.919-0.418
		c-0.068-0.3-0.33-0.407-0.539-0.309c-0.811,0.381-1.114-0.065-1.564-0.673C165.535,95.887,164.987,94.508,164,93.334z
		 M82.922,89.965c0.117-0.45,0.109-0.925-0.519-0.907c-0.605,0.018-1.495-0.435-1.708,0.526c-0.192,0.867-0.656,1.293-1.443,1.499
		c-0.218,0.057-0.527,0.049-0.471,0.393c0.051,0.313,0.312,0.393,0.605,0.459c0.618,0.14,1.156-0.202,1.748-0.228
		C82.835,91.636,82.834,91.62,82.922,89.965z M182.034,95.405c-0.7-0.542-1.32-0.268-1.866-0.458
		c-1.019-0.354-2.12-0.067-3.203-0.233c-0.97-0.148-2.039,0.384-3.069,0.589c-0.447,0.089-0.938,0.14-0.809,0.756
		c0.145,0.686,0.667,0.411,1.022,0.253c2.087-0.927,4.311-0.71,6.495-0.82C181.011,95.471,181.417,95.442,182.034,95.405z
		 M157.377,99.938c1.302,1.248,2.602,2.479,3.879,3.732c0.204,0.199,0.399,0.305,0.603,0.127c0.212-0.188,0.132-0.451-0.06-0.626
		c-0.486-0.442-0.684-1.062-1.025-1.594C159.569,99.703,159.252,99.553,157.377,99.938z M169.752,84.347
		c-2.398,1.228-4.882,2.247-7.18,3.633C165.248,87.319,167.734,86.282,169.752,84.347z M43.704,44.238
		c-0.864,0.954-1.269,2.099-1.167,3.362c0.054,0.673,0.73,0.433,1.161,0.459c0.523,0.032,0.603-0.342,0.456-0.718
		C43.766,46.348,43.977,45.304,43.704,44.238z M201.278,73.821c-0.111,0.093-0.223,0.185-0.334,0.277
		c1.471,1.788,2.941,3.576,4.413,5.365c0.093-0.078,0.186-0.155,0.278-0.232C204.236,77.385,203.029,75.376,201.278,73.821z
		 M115.728,57.28c1.565-0.397,0.595,0.581,0.539,1.108c1.096-0.736,2.014-1.353,2.991-2.01c-0.828-0.486-1.201,0.958-1.978,0.358
		c0.338-0.585,1.202-0.468,1.507-1.267C117.311,55.359,116.951,56.912,115.728,57.28z M52.019,93.854
		c-0.704,0.004-1.226,0.528-1.306,1.218c-0.076,0.647,0.81,1.408,1.066,1.27c0.647-0.349,0.877-1.188,1.018-1.958
		C52.907,93.777,52.473,93.89,52.019,93.854z M141.515,56.935c-2.562-0.329-4.581,1.048-6.813,1.753
		c0.039,0.122,0.078,0.245,0.117,0.367C137.051,58.348,139.282,57.642,141.515,56.935z M131.716,86.487
		c0.782,0.171,1.554,0.396,2.006-0.342c0.276-0.45-0.112-1.127,0.336-1.665c0.12-0.144-0.313-0.193-0.536-0.132
		c-0.688,0.188-1.164,0.688-1.707,1.084c0.179,0.371,0.565,0.066,0.76,0.332C132.377,86.061,131.883,85.96,131.716,86.487z
		 M40.639,86.564c-2.812-0.055-4.786,1.29-6.946,2.075C35.998,88.284,38.116,87.351,40.639,86.564z M168.397,109.742
		c-1.51-0.827-2.366-2.58-4.17-2.991C165.714,107.611,166.283,109.772,168.397,109.742z M116.542,72.061
		c-1.683,0.303-3.377,0.535-4.765,1.791C113.74,73.646,115.606,72.976,116.542,72.061z M85.475,88.97
		c0.107-0.651-0.306-1.208-0.537-1.819c-0.086-0.229-0.247-0.284-0.461-0.237c-0.207,0.045-0.206,0.228-0.205,0.375
		c0.004,0.612,0.062,1.227,0.023,1.834c-0.017,0.261-0.244,0.546,0.023,0.756c0.396,0.312,0.739-0.105,1.097-0.185
		C85.857,89.595,85.539,89.262,85.475,88.97z M99.44,89.484c0,0.007,0,0.015,0,0.022c-0.438,0-0.875-0.003-1.312,0.001
		c-0.307,0.002-0.589,0.138-0.614,0.439c-0.032,0.392,0.29,0.53,0.633,0.543c0.555,0.02,1.127,0.099,1.663-0.002
		c0.503-0.094,1.37-0.103,1.322-0.699c-0.043-0.538-0.869-0.191-1.335-0.301C99.685,89.462,99.56,89.484,99.44,89.484z
		 M38.02,90.738c1.271,0.242,2.538,0.309,3.766,0.662c0.288,0.082,0.795,0.055,0.772-0.305c-0.03-0.461-0.539-0.357-0.884-0.324
		c-0.29,0.028-0.58,0.397-0.864,0.047C39.915,89.717,38.961,90.337,38.02,90.738z M172.537,96.338
		c0.027-0.315,0.248-0.829-0.3-0.826c-0.469,0.004-0.76,0.395-0.836,0.852c-0.066,0.398,0.119,0.796-0.07,1.226
		c-0.117,0.265-0.178,0.775,0.396,0.777c0.467,0.002,0.86-0.129,0.816-0.744C172.513,97.195,172.537,96.766,172.537,96.338z
		 M115.393,56.633c0.728-0.158,0.946-0.759,1.406-1.037c0.468-0.283,0.977-0.496,1.454-0.764c0.224-0.126,0.325-0.358,0.239-0.611
		c-0.025-0.075-0.177-0.149-0.272-0.15C117.721,54.061,115.626,55.906,115.393,56.633z M171.743,94.981
		c-1.049-1.172-1.932-2.163-2.827-3.145c-0.053-0.058-0.289-0.052-0.293-0.035c-0.04,0.144-0.115,0.383-0.052,0.435
		C169.593,93.057,169.992,94.537,171.743,94.981z M45.733,49.354c1.509,0.574,2.795,1.689,4.729,1.717
		C48.864,50.061,47.312,49.629,45.733,49.354z M35.618,92.137c0.242,0,0.445,0.027,0.637-0.007c0.235-0.042,0.611,0.17,0.659-0.265
		c0.047-0.418-0.289-0.386-0.566-0.402c-0.157-0.01-0.354,0.021-0.462-0.062c-0.539-0.406-0.958,0.076-1.425,0.172
		c-0.023,0.004-0.053,0.221-0.006,0.288C34.768,92.312,35.251,92.069,35.618,92.137z M104.363,74.879
		c0.52,0.203,0.773,0.591,1.004,1.015c0.093,0.171,0.278,0.54,0.489-0.038c0.171-0.466,1.071,0.313,1.089-0.262
		c0.027-0.857-0.958-0.006-1.168-0.43C105.43,74.465,104.969,74.664,104.363,74.879z M71.389,93.014
		c0.127,0.551-0.106,1.05-0.091,1.575c0.008,0.287,0.031,0.618,0.372,0.622c0.238,0.002,0.538-0.147,0.7-0.327
		c0.183-0.203,0.166-0.694-0.002-0.747C71.785,93.956,71.789,93.372,71.389,93.014z M137.923,66.361
		c-0.158,0.023-0.338,0.16-0.271,0.29c0.294,0.568,0.636,1.112,0.961,1.666c0.151-0.208,0.647-0.096,0.557-0.491
		C139.013,67.147,138.572,66.662,137.923,66.361z M96.876,89.527c-0.01-0.086-0.02-0.172-0.029-0.258
		c-0.561,0-1.122-0.021-1.681,0.007c-0.357,0.018-0.607,0.234-0.567,0.613c0.053,0.498,0.478,0.377,0.734,0.295
		C95.863,90.014,96.364,89.752,96.876,89.527z M179.519,97.928c0.264-0.204,0.88,0.27,0.926-0.49
		c0.029-0.487-0.32-0.494-0.628-0.441c-0.466,0.081-1.15,0.036-1.206,0.611C178.563,98.087,179.167,97.788,179.519,97.928z
		 M134.606,86.635c-0.057-0.054-0.112-0.108-0.169-0.162c-0.236,0.116-0.468,0.244-0.71,0.345c-0.146,0.061-0.348,0.031-0.456,0.124
		c-0.248,0.211-1.109,0.168-0.491,0.754c0.176,0.167,0.933-0.211,1.38-0.429C134.363,87.168,134.461,86.853,134.606,86.635z
		 M42.812,92.732c-0.884,0.044-1.857-0.721-2.923,0.363C41.058,92.956,41.977,93.436,42.812,92.732z M46.254,86.93
		c0.545,0.887,1.319,0.556,1.882,0.785c0.058,0.023,0.303-0.193,0.312-0.311c0.021-0.268-0.205-0.446-0.44-0.463
		C47.494,86.904,46.975,86.93,46.254,86.93z M37.061,92.079c0.879,0.736,1.716,0.478,2.525,0.404
		C38.861,91.968,38.084,91.817,37.061,92.079z M112.022,72.447c-0.527,0.091-1.022-0.866-1.537-0.065
		c-0.137,0.214-0.076,0.485,0.146,0.631C111.283,73.439,111.603,72.841,112.022,72.447z M119.882,66.861
		c-0.754,0.208-1.553,0.29-2.028,1.016C118.635,67.749,119.523,67.861,119.882,66.861z M85.96,40.985
		c0.027,0.079,0.054,0.158,0.081,0.237c0.611-0.159,1.22-0.324,1.833-0.472c0.203-0.049,0.411-0.076,0.37-0.347
		c-0.053-0.349-0.372-0.321-0.554-0.246C87.1,40.399,86.535,40.704,85.96,40.985z M54.173,88.562
		c-0.778-0.354-1.553-0.738-2.473-0.153C52.521,88.828,53.332,88.846,54.173,88.562z M215.312,80.687
		c-0.704,0.17-1.157,0.477-1.364,1.077c-0.017,0.05,0.137,0.229,0.186,0.22c0.584-0.116,0.919-0.532,1.177-1.029
		C215.327,80.924,215.312,80.877,215.312,80.687z M184.854,79.761c-0.366-0.076-0.499,0.054-0.487,0.287
		c0.027,0.563,0.55,0.6,0.91,0.767c0.229,0.106,0.508-0.02,0.427-0.345C185.584,79.993,185.08,79.951,184.854,79.761z
		 M133.784,83.646c-0.846-0.143-1.352,0.36-1.962,0.399c-0.273,0.018-0.298,0.255-0.227,0.438c0.105,0.27,0.284,0.124,0.468,0.041
		C132.581,84.289,133.171,84.203,133.784,83.646z M45.907,92.674c-0.5-0.19-0.928,0-1.358,0.029
		c-0.215,0.016-0.339,0.197-0.337,0.423c0.002,0.168,0.131,0.402,0.244,0.337C44.921,93.194,45.747,93.633,45.907,92.674z
		 M118.833,58.401c-0.549,0.216-1.079,0.437-1.48,1.008C118.353,59.719,118.486,58.877,118.833,58.401z M63.6,58.589
		c-0.241,0.069-0.69-0.17-0.715,0.31c-0.025,0.468,0.475,0.44,0.765,0.55c0.264,0.101,0.575-0.01,0.602-0.363
		C64.283,58.66,63.967,58.59,63.6,58.589z"/>
	<path style="fill-rule:evenodd;clip-rule:evenodd;" d="M156.828,67.775c-1.968-0.011-3.513-1.462-3.469-3.257
		c0.032-1.327,1.727-2.932,3.153-2.806c2.068,0.184,3.424,0.82,3.344,2.955C159.789,66.476,158.556,67.785,156.828,67.775z
		 M155.593,65.997c-0.155-1.023,0.054-1.903,0.425-2.791c-0.479,0.029-0.679,0.35-0.955,0.447c-1.072,0.378-0.997,1.123-0.814,2.016
		c0.198,0.964,0.968,1.108,1.68,1.247c0.745,0.145,1.471-0.19,2.188-0.391c0.227-0.063,0.43-0.243,0.456-0.499
		c0.027-0.271-0.276-0.232-0.413-0.355c-0.251-0.227-0.435-0.056-0.601,0.131c-0.141,0.158-0.11,0.525-0.467,0.415
		c-0.437-0.135-0.142-0.463-0.154-0.705c-0.015-0.305-0.118-0.574-0.415-0.653c-0.269-0.071-0.432,0.19-0.563,0.371
		C155.812,65.432,155.736,65.686,155.593,65.997z M159.143,64.17c-0.166-0.853-0.508-1.595-1.597-1.694
		c-0.39-0.035-0.827-0.226-1.022,0.298c-0.184,0.496,0.271,0.712,0.54,0.959c0.335,0.308,0.931,0.294,1.099,0.824
		c0.11,0.347,0.296,0.607,0.676,0.508C159.278,64.948,159.035,64.53,159.143,64.17z"/>
	<path style="fill-rule:evenodd;clip-rule:evenodd;" d="M150.035,67.39c-0.025,1.065-0.497,1.844-1.568,2.058
		c-1.191,0.239-2.37,0.482-3.354-0.711c-1.223-1.486-1.334-2.782-0.123-4.055c1.058-1.11,3.123-1.244,4.313-0.205
		c0.9,0.786,1.162,1.798,0.705,2.946c0.033-1.224-0.371-2.216-1.407-2.959c-1.018-0.73-1.956-0.236-2.898,0.092
		c-0.878,0.306-0.87,1.188-0.944,1.89c-0.088,0.834,0.401,0.373,0.715,0.194c0.094,0.428-0.505,0.783-0.148,1.224
		c0.166,0.205,0.476,0.205,0.651,0.063c0.561-0.449,1.02-0.975,0.871-1.826c-0.45,0.15-0.849,0.283-1.248,0.416
		c0.658-0.571,1.258-1.723,1.972-1.578c0.796,0.16,0.797,1.485,1.213,2.271c0.15,0.283-0.207,0.781,0.299,0.901
		C149.634,68.242,149.721,67.64,150.035,67.39z"/>
	<path style="fill-rule:evenodd;clip-rule:evenodd;" d="M47.61,78.406c0.232,0.857,0.85,0.824,1.448,0.773
		c0.784-0.067,1.314,0.268,1.575,0.979c0.343,0.935,0.25,1.883-0.088,2.798c-0.038,0.103-0.365,0.151-0.548,0.134
		c-0.3-0.029-0.301-0.291-0.337-0.538c-0.081-0.551,0.307-1.547-0.752-1.338c-0.777,0.153-2.012,0.188-1.723,1.671
		c0.075,0.384,0.258,1.06-0.496,1.116c-0.597,0.045-0.737-0.436-0.877-0.926c-0.427-1.485-0.353-2.804,1.148-3.654
		C47.346,79.202,47.152,78.749,47.61,78.406z"/>
	<path style="fill-rule:evenodd;clip-rule:evenodd;" d="M132.309,81.17c0.76-1.04,1.512-2.086,2.287-3.114
		c0.106-0.142,0.177-0.216,0.069-0.381c-1.006-1.552,0.693-1.84,1.319-2.38c0.82-0.709,1.543-1.513,2.363-2.209
		c0.973-0.825,1.538-2.237,3.31-2.281c-0.51,1.712-2.15,2.352-2.983,3.645c-0.88,1.365-2.17,2.461-3.242,3.708
		c-0.965,1.122-1.781,2.387-2.863,3.386C132.481,81.419,132.396,81.295,132.309,81.17z"/>
	<path style="fill-rule:evenodd;clip-rule:evenodd;" d="M155.36,55.834c5.006-0.445,10.035-0.581,15.032-1.195
		c-0.949,0.517-1.977,0.59-2.991,0.558c-1.725-0.054-3.391,0.414-5.09,0.479c-1.293,0.05-2.487,0.284-3.724,0.676
		c-0.438,0.138-1.385,0.188-2.02-0.045c-0.389-0.143-0.614-0.091-0.971,0.004c-0.564,0.151-0.094-0.344-0.221-0.495L155.36,55.834z"
		/>
	<path style="fill-rule:evenodd;clip-rule:evenodd;" d="M155.377,55.816c-1.354,1.008-2.97,0.903-4.523,1.058
		c-0.156,0.016-0.408-0.066-0.459,0.007c-1.001,1.428-2.516,0.028-3.701,0.672c-0.395,0.214-1.059,0.154-1.671,0.272
		c0.356-0.667,0.859-0.968,1.48-0.941c2.68,0.117,5.205-0.786,7.812-1.141c0.362-0.049,0.707-0.096,1.042,0.093
		C155.36,55.834,155.377,55.816,155.377,55.816z"/>
	<path style="fill-rule:evenodd;clip-rule:evenodd;" d="M175.466,62.939c-0.199,1.078-1.074,1.525-1.597,1.854
		c-1.857,1.17-2.954,3.032-4.52,4.445c-0.623,0.562-1.309,0.632-2.112-0.049c1.348,0.366,1.827-0.565,2.512-1.183
		C171.603,66.336,173.093,64.257,175.466,62.939z"/>
	<path style="fill-rule:evenodd;clip-rule:evenodd;" d="M174.518,66.219c1.961-2.151,3.636-4.588,6.109-6.226
		C178.896,62.374,176.601,64.189,174.518,66.219z"/>
	<path style="fill-rule:evenodd;clip-rule:evenodd;" d="M157.057,73.562c-1.607,2.111-3.356,4.089-5.723,5.488
		c1.812-1.92,3.623-3.84,5.434-5.761C156.864,73.38,156.961,73.471,157.057,73.562z"/>
	<path style="fill-rule:evenodd;clip-rule:evenodd;" d="M167.629,57.064c-2.097,1.369-3.21,3.793-5.405,5.044
		C163.795,60.177,165.578,58.471,167.629,57.064z"/>
	<path style="fill-rule:evenodd;clip-rule:evenodd;" d="M149.396,63.52c-0.107-0.113-0.214-0.185-0.264-0.285
		c-0.092-0.186,0.074-0.238,0.187-0.353c1.23-1.25,2.445-2.516,3.66-3.78c0.209-0.217,0.452-0.408,0.716-0.171
		c0.207,0.186-0.045,0.344-0.171,0.475c-1.191,1.226-2.384,2.449-3.583,3.667C149.78,63.235,149.585,63.366,149.396,63.52z"/>
	<path style="fill-rule:evenodd;clip-rule:evenodd;" d="M45.596,12.004c2.426,0.355,4.627,1.239,6.538,2.8
		c-0.207,0.22-0.427,0.07-0.617-0.039c-1.752-1-3.631-1.696-5.529-2.353c-0.158-0.055-0.258-0.274-0.384-0.418L45.596,12.004z"/>
	<path style="fill-rule:evenodd;clip-rule:evenodd;" d="M165.754,56.634c-1.014,1.801-2.647,3.02-3.933,4.567
		c-0.093-0.088-0.187-0.177-0.279-0.265C162.945,59.502,164.35,58.067,165.754,56.634z"/>
	<path style="fill-rule:evenodd;clip-rule:evenodd;" d="M164.094,66.263c1.089-1.457,2.315-2.756,4.024-3.499
		C167.001,64.188,165.375,65.027,164.094,66.263z"/>
	<path style="fill-rule:evenodd;clip-rule:evenodd;" d="M170.817,57.589c-0.65,1.45-2.101,1.947-3.071,2.948
		c-0.148,0.154-0.366,0.182-0.531,0.013c-0.125-0.127-0.123-0.326,0.033-0.409c1.169-0.621,1.934-1.716,2.972-2.486
		C170.348,57.559,170.585,57.61,170.817,57.589z"/>
	<path style="fill-rule:evenodd;clip-rule:evenodd;" d="M159.707,66.627c1.139-1.324,2.083-2.415,3.015-3.517
		c0.153-0.183,0.334-0.248,0.513-0.156c0.265,0.136,0.109,0.316-0.017,0.471c-0.768,0.942-1.534,1.885-2.305,2.825
		C160.657,66.563,160.303,66.526,159.707,66.627z"/>
	<path style="fill-rule:evenodd;clip-rule:evenodd;" d="M161.949,66.194c0.929-1.36,1.893-2.686,3.421-3.447
		C164.472,64.138,163.431,65.387,161.949,66.194z"/>
	<path style="fill-rule:evenodd;clip-rule:evenodd;" d="M168.719,67.944c0.763-1.182,1.707-2.155,3.019-2.715
		C170.84,66.258,169.929,67.27,168.719,67.944z"/>
	<path style="fill-rule:evenodd;clip-rule:evenodd;" d="M149.964,76.11c0.76-0.715,1.52-1.431,2.279-2.146
		c0.074,0.07,0.148,0.14,0.223,0.21c-0.609,0.857-1.351,1.593-2.213,2.216C150.156,76.297,150.06,76.204,149.964,76.11z"/>
	<path style="fill-rule:evenodd;clip-rule:evenodd;" d="M67.338,22.157c-1.569-0.843-3.138-1.686-4.707-2.528
		C64.329,20.259,66.056,20.831,67.338,22.157z"/>
	<path style="fill-rule:evenodd;clip-rule:evenodd;" d="M159.011,74.765c0.621-0.738,1.241-1.477,1.861-2.214
		c0.062,1.278-1.219,1.502-1.546,2.471C159.221,74.936,159.116,74.85,159.011,74.765z"/>
	<path style="fill-rule:evenodd;clip-rule:evenodd;" d="M185.718,62.217c-1.132,0.379-1.488-0.051-1.72-1.025
		C184.623,61.564,185.081,61.837,185.718,62.217z"/>
	<path style="fill-rule:evenodd;clip-rule:evenodd;" d="M164.061,69.621c0.197-1.009,0.632-1.408,1.382-1.66
		C165.457,68.909,164.756,69.092,164.061,69.621z"/>
	<path style="fill-rule:evenodd;clip-rule:evenodd;" d="M183.497,58.688c-0.486,0.022-0.974,0.045-1.509,0.071
		C182.396,57.009,183.056,58.886,183.497,58.688z"/>
	<path style="fill-rule:evenodd;clip-rule:evenodd;" d="M181.274,56.157c-0.385,0.016-0.775-0.057-0.758-0.518
		c0.013-0.325,0.383-0.343,0.661-0.348c0.378-0.005,0.808,0.088,0.826,0.497C182.022,56.198,181.575,56.131,181.274,56.157z"/>
	<path style="fill-rule:evenodd;clip-rule:evenodd;" d="M86.711,31.02c0.845,0.118,1.545,0.441,2.196,1.133
		C87.892,32.142,87.258,31.637,86.711,31.02z"/>
	<path style="fill-rule:evenodd;clip-rule:evenodd;" d="M151.063,63.085c0.557-0.505,1.112-1.01,1.662-1.509
		C152.612,62.479,151.716,62.667,151.063,63.085z"/>
	<path style="fill-rule:evenodd;clip-rule:evenodd;" d="M203.935,70.257c-0.852,0.193-1.594-0.139-2.479-0.379
		C202.295,69.604,202.984,69.726,203.935,70.257z"/>
	<path style="fill-rule:evenodd;clip-rule:evenodd;" d="M203.775,92.187c-0.287-0.354-0.896-0.018-1.018-0.482
		c-0.066-0.254,0.216-0.627,0.483-0.562C203.724,91.259,203.504,91.851,203.775,92.187z"/>
	<path style="fill-rule:evenodd;clip-rule:evenodd;" d="M61.752,52.286c0.354-0.802,1.157-0.984,1.749-1.04
		c1.489-0.14,2.445-1.318,3.801-1.665c0.549-0.141,0.267-0.562,0.052-0.833c-0.116-0.146-0.522-0.062-0.34-0.446
		c0.074-0.156,0.22-0.295,0.367-0.219c0.205,0.106,0.564-0.012,0.556,0.459c-0.015,0.855,0.524,0.721,1.045,0.471
		c0.631-0.303,1.201-0.788,2.228-0.61C67.986,49.909,64.784,50.882,61.752,52.286z"/>
	<path style="fill-rule:evenodd;clip-rule:evenodd;" d="M57.122,52.587c2.02-1.351,4.383-1.915,6.588-2.836
		c0.739-0.309,1.558-0.499,2.35-0.729c-1.031,0.748-2.226,1.181-3.408,1.518c-1.905,0.542-3.606,1.611-5.549,2.023L57.122,52.587z"
		/>
	<path style="fill-rule:evenodd;clip-rule:evenodd;" d="M69.785,58.364c-1.298-0.172-2.486-0.622-3.539-1.425
		c0.296-0.203,0.597-0.147,0.871,0.023c0.732,0.457,1.449,0.928,2.356,0.978c0.166,0.009,0.325,0.21,0.286,0.447L69.785,58.364z"/>
	<path style="fill-rule:evenodd;clip-rule:evenodd;" d="M69.759,58.388c1.004,0.015,1.864,0.43,2.68,0.965
		c-0.958-0.13-1.858-0.418-2.652-0.991C69.785,58.364,69.759,58.388,69.759,58.388z"/>
	<path style="fill-rule:evenodd;clip-rule:evenodd;" d="M71.826,67.23c0.383-0.133,0.641-0.528,1.074,0.02
		c0.413,0.523,1.11-0.055,1.653-0.178c0.865-0.196,1.562-0.606,2.514,0.117c0.495,0.376,1.434,0.793,2.299,0.518
		c0.217,0.905,1.426,0.473,1.515,0.781c0.32,1.109,1.239,0.691,1.845,0.869c0.765,0.224,1.38,0.799,2.148,0.879
		c0.512,0.053,0.783,0.304,1.039,0.647c0.021,0.028-0.218,0.362-0.358,0.38c-0.473,0.061-0.842,0.931-1.433,0.189
		c-0.091-0.113-0.385-0.176-0.528-0.119c-2.059,0.812-3.565-0.756-5.339-1.159c-1.876-0.428-3.244-1.968-5.222-2.095
		C72.604,68.053,72.464,67.239,71.826,67.23z"/>
	<path style="fill-rule:evenodd;clip-rule:evenodd;" d="M107.896,81.602c0.932-1.063,2.098-0.93,3.022-1.342
		c0.148-0.066,0.268,0.181,0.246,0.33c-0.029,0.19-0.12,0.443-0.348,0.428C109.887,80.954,109.13,81.677,107.896,81.602z"/>
	<path style="fill-rule:evenodd;clip-rule:evenodd;" d="M96.049,65.709c1.633-1.087,3.266-2.175,4.899-3.262
		c-1.382,1.464-3.095,2.431-4.73,3.515C96.162,65.878,96.105,65.793,96.049,65.709z"/>
	<path style="fill-rule:evenodd;clip-rule:evenodd;" d="M103.005,64.164c0.479-0.843,1.321-1.139,2.101-1.527
		c-0.405,0.968-1.413,0.997-2.119,1.499C102.988,64.137,103.005,64.164,103.005,64.164z"/>
	<path style="fill-rule:evenodd;clip-rule:evenodd;" d="M48.489,42.085c0.266,1.668-0.753,2.978-1.207,4.456
		C47.319,44.962,48.421,43.671,48.489,42.085z"/>
	<path style="fill-rule:evenodd;clip-rule:evenodd;" d="M86.796,59.894c0.469-1.167-0.61-1.759-1.035-2.613
		c0.129-0.01,0.214-0.044,0.261-0.016c0.393,0.236,0.369,1.113,0.929,0.899c0.547-0.209,0.467-0.938,0.443-1.489
		c-0.012-0.27-0.099-0.536-0.177-0.928c0.423,0.141,0.915,0.136,0.816,0.718c-0.076,0.443,0.683,1.017-0.292,1.366
		c-0.643,0.229-0.52,0.927-0.274,1.45c0.234,0.5,0.566,0.955,0.822,1.477c-0.471-0.351-0.674-1.17-1.497-0.879L86.796,59.894z"/>
	<path style="fill-rule:evenodd;clip-rule:evenodd;" d="M91.124,65.112c-0.788-0.954-1.462-1.979-1.951-3.052
		c1.074,0.704,2.208,1.443,1.931,3.07C91.102,65.132,91.124,65.112,91.124,65.112z"/>
	<path style="fill-rule:evenodd;clip-rule:evenodd;" d="M86.793,59.88c0.182,1.339-0.889,2.318-1.022,3.569
		c0.002,0.002,0.016,0.017,0.017,0.018c-0.374-0.858,0.23-1.52,0.471-2.25c0.148-0.45,0.358-0.88,0.539-1.321
		C86.796,59.894,86.793,59.88,86.793,59.88z"/>
	<path style="fill-rule:evenodd;clip-rule:evenodd;" d="M57.379,82.589c-0.357,1.175-1.582,1.553-2.223,2.487
		C55.801,84.166,56.235,83.075,57.379,82.589z"/>
	<path style="fill-rule:evenodd;clip-rule:evenodd;" d="M128.426,70.74c-1.27,0.153-2.154-0.898-3.275-0.477
		c-0.042,0.016-0.284-0.27-0.256-0.336c0.124-0.283,0.281-0.654,0.665-0.567C126.562,69.588,127.586,69.807,128.426,70.74z"/>
	<path style="fill-rule:evenodd;clip-rule:evenodd;" d="M54.01,55.429c0.398,0.548,0.222,0.818-0.394,1.035
		c-0.515,0.181-1.012,0.403-1.557,0.482c0.036-0.504,0.036-0.504-0.813-0.335C51.742,55.994,52.99,55.459,54.01,55.429z"/>
	<path style="fill-rule:evenodd;clip-rule:evenodd;" d="M50.154,55.91c-0.049,0.104-0.074,0.272-0.15,0.3
		c-1.732,0.64-3.475,1.249-5.127,2.094c1.433-1.58,3.483-1.699,5.299-2.371L50.154,55.91z"/>
	<path style="fill-rule:evenodd;clip-rule:evenodd;" d="M42.962,60.041c1.231-0.576,2.463-1.152,3.694-1.728
		C45.717,59.517,44.272,59.634,42.962,60.041z"/>
</g>
</svg>
