<?xml version="1.0" encoding="utf-8"?>
<!-- Generator: Adobe Illustrator 15.0.0, SVG Export Plug-In . SVG Version: 6.00 Build 0)  -->
<!DOCTYPE svg PUBLIC "-//W3C//DTD SVG 1.1//EN" "http://www.w3.org/Graphics/SVG/1.1/DTD/svg11.dtd">
<svg version="1.1" id="Layer_1" xmlns="http://www.w3.org/2000/svg" xmlns:xlink="http://www.w3.org/1999/xlink" x="0px" y="0px"
	 width="640px" height="480px" viewBox="0 0 640 480" enable-background="new 0 0 640 480" xml:space="preserve">
<g>
	<g>
		<path d="M265.22,204.299c-2.24-0.75-4.283-3.336-5.366-6.792c-0.734-2.349-0.055-7.641,1.295-10.064
			c0.982-1.766,3.125-3.864,3.852-3.772c0.227,0.028,0.724-0.252,1.104-0.623c0.648-0.63,0.681-0.805,0.499-2.671
			c-0.106-1.099-0.27-3.318-0.362-4.934l-0.168-2.937l-0.96,0.02c-0.527,0.011-3.057,0.194-5.618,0.408
			c-2.562,0.213-7.187,0.575-10.274,0.804c-6.951,0.516-10.784,0.875-13.511,1.266c-1.158,0.167-3.26,0.392-4.673,0.502
			c-4.125,0.323-6.877,0.547-9.796,0.8c-1.503,0.13-4.101,0.315-5.775,0.412c-1.672,0.096-3.287,0.33-3.586,0.52
			c-0.299,0.189-1.027,0.285-1.617,0.212c-2.225-0.276-15.18,0.653-15.809,1.133c-0.167,0.126-0.497,1.458-0.735,2.959
			c-0.735,4.649-3.056,7.354-7.005,8.168c-2.088,0.431-7.655-0.186-9.461-1.048c-2.288-1.092-4.308-4.269-4.522-7.113l-0.136-1.786
			l-2.315-0.358c-8.842-1.372-16.398-3.281-21.338-5.394c-3.291-1.407-3.471-1.516-3.596-2.171
			c-0.255-1.346,0.799-1.844,3.881-1.834c3.504,0.011,17.994-0.539,20.276-0.77c1.451-0.147,2.225-0.781,2.137-1.748
			c-0.033-0.363-0.296-2.729-0.584-5.255c-0.834-7.296-1.386-13.316-1.292-14.072c0.048-0.383-0.085-1.644-0.297-2.801
			c-0.209-1.158-0.386-2.916-0.39-3.909c-0.009-2.114,0.332-1.999-5.094-1.711c-5.322,0.284-10.946-0.185-13.32-1.109
			c-1.055-0.411-2.364-0.804-2.91-0.874c-0.546-0.069-2.289-0.624-3.875-1.23c-1.584-0.607-3.574-1.286-4.421-1.508
			c-0.846-0.221-2.489-0.808-3.651-1.303c-2.555-1.09-3.478-1.426-6.841-2.492c-3.027-0.959-4-1.917-3.625-3.569
			c0.196-0.866,0.374-0.977,2.001-1.241c0.981-0.16,4.375-0.408,7.54-0.551c3.166-0.143,7.346-0.403,9.292-0.579
			c1.945-0.175,4.902-0.365,6.57-0.424c3.701-0.128,6.631-0.358,11.79-0.921c2.167-0.236,4.627-0.461,5.468-0.5
			c0.839-0.039,2.691-0.226,4.114-0.417c2.178-0.291,5.729-0.596,13.498-1.159c0.706-0.051,2.454-0.306,3.885-0.567
			c1.431-0.261,3.025-0.423,3.543-0.361c0.516,0.062,2.251-0.083,3.855-0.321c1.603-0.239,4.293-0.59,5.978-0.781
			c7.739-0.876,12.338-1.511,13.182-1.818c0.504-0.184,1.186-0.301,1.513-0.262c0.327,0.041,2.429-0.183,4.672-0.497
			c2.242-0.313,5.231-0.651,6.643-0.75c1.411-0.1,4.677-0.48,7.258-0.845c2.582-0.364,5.42-0.76,6.31-0.88
			c3.06-0.412,9.729-1.495,12.007-1.952c1.256-0.251,3.518-0.598,5.023-0.771c2.803-0.32,9.223-1.357,13.664-2.206
			c1.363-0.26,3.555-0.62,4.869-0.799c1.314-0.18,2.688-0.419,3.052-0.535c0.364-0.114,2.624-0.448,5.021-0.742
			c9.196-1.125,14.94-2.015,23.019-3.567c2.061-0.396,4.91-0.884,6.335-1.085c1.424-0.201,3.905-0.6,5.515-0.886
			c1.609-0.286,4.897-0.832,7.305-1.212c4.075-0.644,7.633-1.244,18.35-3.089c2.323-0.4,5.474-1.001,7.001-1.334
			c1.528-0.334,3.945-0.778,5.37-0.987c1.425-0.208,3.324-0.528,4.222-0.712c0.897-0.183,2.853-0.524,4.347-0.756
			c1.493-0.233,3.328-0.609,4.078-0.835c3.11-0.94,5.489-1.508,8.562-2.043c5.646-0.985,12.357-2.309,12.713-2.508
			c0.188-0.106,0.826-0.233,1.419-0.282c0.592-0.049,2.874-0.563,5.07-1.143c2.195-0.579,5.232-1.236,6.747-1.461
			c1.514-0.225,4.003-0.684,5.531-1.017c1.528-0.335,6.813-1.42,11.746-2.411c12.997-2.613,14.018-2.821,15.823-3.23
			c0.9-0.204,2.649-0.463,3.888-0.577c2.58-0.236,5.984-0.75,8.588-1.297c1.96-0.412,3.155-0.49,9.614-0.623
			c9.013-0.185,21.911,2.164,35.902,6.536c8.99,2.811,11.051,3.637,12.18,4.885c0.869,0.964,0.938,1.197,0.657,2.249
			c-0.364,1.369-1.14,2.109-2.842,2.712c-1.524,0.539-6.127,1.581-8.283,1.873c-0.891,0.121-3.441,0.502-5.67,0.849
			c-2.229,0.345-4.781,0.739-5.673,0.875c-0.891,0.135-4.376,0.548-7.744,0.916c-8.563,0.935-12.46,1.412-13.309,1.628
			c-1.351,0.344-4.782,0.738-5.896,0.677c-2.355-0.13-8.201,0.764-11.341,1.732c-2.371,0.731-2.248-0.119-1.288,8.85
			c0.131,1.219,0.3,3.349,0.378,4.733c0.076,1.384,0.317,4.577,0.535,7.096s0.541,6.988,0.719,9.932s0.41,5.474,0.517,5.625
			c0.22,0.308,4.187-0.16,7.542-0.89c3.372-0.734,7.832-0.716,13.947,0.056c6.751,0.851,10.35,1.678,13.143,3.019
			c3.678,1.765,4.506,2.998,3.693,5.504c-0.432,1.336-2.689,2.507-5.596,2.905c-1.173,0.161-4.107,0.628-6.52,1.041
			c-4.611,0.787-7.036,1.113-11.803,1.591c-1.594,0.16-4.727,0.486-6.965,0.727c-2.237,0.24-4.286,0.409-4.555,0.375
			c-1.157-0.146-1.577,0.673-1.975,3.847c-0.237,1.901-0.594,3.426-0.939,4.02c-0.788,1.358-3.043,2.893-4.563,3.109
			c-1.273,0.181-5.157-0.452-6.223-1.014c-0.807-0.426-1.954-3.087-2.365-5.487c-0.21-1.219-0.546-2.18-0.774-2.208
			c-0.223-0.028-1.27,0.106-2.328,0.298c-3.727,0.675-8.747,1.397-10.01,1.439c-0.701,0.024-2.155,0.208-3.23,0.41
			c-1.073,0.201-5.211,0.733-9.193,1.184c-3.982,0.45-7.44,0.943-7.688,1.097c-0.289,0.183-0.543,1.055-0.723,2.49
			c-0.241,1.924-0.421,2.381-1.395,3.541c-1.893,2.259-5.056,3.313-10.951,3.651c-5.407,0.309-8.534,0.441-11.506,0.485
			c-1.663,0.024-4.027,0.059-5.256,0.077c-1.226,0.018-4.878,0.056-8.116,0.085c-3.239,0.029-7.465,0.075-9.391,0.102
			c-1.928,0.027-4.646,0.034-6.042,0.015c-1.397-0.019-3.897-0.05-5.556-0.069c-1.659-0.019-4.37-0.075-6.024-0.125
			c-7.644-0.23-12.912-0.348-13.79-0.31c-0.528,0.023-1.882-0.02-3.01-0.095c-1.126-0.075-3.179-0.09-4.558-0.033
			c-3.747,0.154-3.583-0.153-4.992,9.332c-0.959,6.464-1.119,8.172-0.922,9.875c0.334,2.905-0.479,9.369-1.372,10.906
			c-1.082,1.863-2.342,2.903-4.259,3.519c-2.089,0.67-4.086,0.528-5.809-0.41c-1.813-0.988-3.735-4.486-3.832-6.97
			c-0.026-0.662-0.237-1.303-0.469-1.425c-0.229-0.123-1.24-0.171-2.245-0.109c-1.004,0.062-3.765,0.165-6.133,0.229
			s-5.178,0.219-6.243,0.344c-1.064,0.125-2.573,0.278-3.354,0.341c-0.78,0.063-1.488,0.169-1.574,0.234
			c-0.086,0.064-0.354,1.167-0.595,2.452c-0.243,1.291-0.776,2.899-1.19,3.598c-0.853,1.435-3.197,3.353-4.526,3.702
			C268.627,204.685,266.313,204.664,265.22,204.299L265.22,204.299L265.22,204.299z M187.365,187.106l2.68-0.887l0.879-1.871
			c0.483-1.029,1.053-2.576,1.269-3.438c0.344-1.383,0.319-1.6-0.203-1.838c-0.326-0.148-3.014-0.133-5.974,0.034
			c-2.958,0.167-6.311,0.311-7.448,0.318c-3.012,0.022-4.175,0.33-4.267,1.128c-0.122,1.067,0.693,3.169,1.763,4.545
			c1.166,1.499,2.468,2.042,6.103,2.545C184.488,187.965,184.891,187.923,187.365,187.106L187.365,187.106z M307.113,199.515
			c1.92-0.705,3.556-6.198,2.87-9.636c-1.249-6.257-4.894-8.344-8.08-4.629c-0.976,1.138-1.043,1.364-1.502,5.037
			c-0.472,3.77-0.466,3.88,0.312,5.683c0.879,2.038,1.436,2.784,2.532,3.392C304.024,199.792,306.131,199.876,307.113,199.515
			L307.113,199.515z M306.506,193.003c-0.938-1.356-0.532-3.198,0.815-3.705c0.863-0.325,1.455,0.014,1.776,1.015
			c0.356,1.117,0.192,2.069-0.485,2.806C307.924,193.867,307.07,193.82,306.506,193.003z M277.465,192.092
			c0.356-0.133,0.685-0.559,0.733-0.946c0.048-0.387-0.289-4.114-0.751-8.284c-0.461-4.169-0.885-8.314-0.942-9.21
			c-0.056-0.897-0.258-1.709-0.448-1.806c-0.35-0.176-6.284,0.006-7.538,0.231c-0.819,0.147-1.074,1.636-0.673,3.914
			c0.148,0.84,0.313,2.407,0.364,3.482c0.162,3.433,0.102,3.285,1.526,3.705c3.144,0.928,4.822,2.829,5.807,6.574
			c0.422,1.607,0.829,2.524,1.138,2.563C276.757,192.326,277.11,192.226,277.465,192.092L277.465,192.092z M282.059,191.596
			c0.643-0.491,1.319-2.386,2.249-6.292c0.396-1.668,1.168-4.89,1.715-7.158c0.548-2.269,1.073-4.752,1.169-5.519
			c0.154-1.232,0.089-1.423-0.565-1.633c-0.408-0.13-1.655-0.165-2.772-0.077c-1.118,0.088-2.398,0.117-2.846,0.064
			c-0.448-0.052-1.278,0.001-1.844,0.12c-1.332,0.276-1.367,0.613-0.699,6.598c0.291,2.614,0.606,5.817,0.698,7.117
			c0.479,6.743,0.521,6.938,1.491,7.061C281.144,191.938,281.775,191.812,282.059,191.596z M288.943,191.377
			c1.124-0.061,2.553-0.248,3.174-0.417c1.338-0.363,1.337-0.392-0.116-4.537c-0.533-1.527-1.404-4.308-1.935-6.178
			c-1.517-5.361-1.716-5.396-2.838-0.497c-0.419,1.83-1.25,5.032-1.845,7.116c-0.596,2.083-1.105,3.967-1.133,4.185
			C284.196,191.487,285.368,191.569,288.943,191.377z M295.872,190.961c0.129-0.16,0.418-1.427,0.641-2.817
			c0.602-3.76,2.332-6.238,4.772-6.833c1.166-0.284,1.148-0.48-0.738-8.106c-0.448-1.814-0.88-3.378-0.957-3.477
			c-0.166-0.209-8.744,0.479-9.829,0.788c-1.08,0.308-1.036,1.077,0.26,4.647c1.367,3.762,4.758,14.267,4.939,15.3
			C295.094,191.229,295.48,191.439,295.872,190.961z M178.834,168.413c1.238-0.113,4.198-0.327,6.576-0.475
			c5.247-0.328,6.104-0.515,6.208-1.35c0.044-0.347-0.097-2-0.312-3.672c-0.215-1.673-0.49-4.109-0.612-5.413
			c-0.121-1.304-0.326-3.161-0.456-4.125c-0.129-0.965-0.285-2.391-0.345-3.168c-0.059-0.777-0.297-3.462-0.529-5.967
			c-0.231-2.505-0.363-5.008-0.294-5.564c0.069-0.555,0.001-1.109-0.152-1.231c-0.154-0.122-1.781,0.008-3.613,0.288
			c-1.834,0.281-5.21,0.646-7.503,0.815c-5.847,0.429-6.536,0.538-6.931,1.096c-0.236,0.333-0.186,1.521,0.149,3.679
			c0.273,1.752,0.589,4.885,0.7,6.96c0.111,2.076,0.49,6.482,0.841,9.791c0.353,3.309,0.676,6.513,0.721,7.12
			c0.045,0.606,0.201,1.201,0.346,1.319C173.919,168.753,175.41,168.724,178.834,168.413L178.834,168.413z M311.292,176.645
			c0.586-3.711,0.989-6.912,0.896-7.111c-0.111-0.238-0.733-0.36-1.798-0.353c-0.895,0.006-2.714-0.004-4.042-0.024
			c-2.929-0.044-5.086,0.276-5.146,0.762c-0.025,0.198,0.308,1.658,0.739,3.246c0.432,1.586,1.06,3.904,1.397,5.149l0.612,2.263
			l1.5,0.38c1.504,0.38,3.208,1.336,3.501,1.962c0.085,0.184,0.407,0.365,0.716,0.404
			C310.18,183.387,310.313,182.84,311.292,176.645L311.292,176.645L311.292,176.645z M196.842,167.204
			c1.034-0.114,5.278-0.503,9.433-0.867c4.154-0.363,9.075-0.811,10.934-0.996c1.859-0.185,4.164-0.382,5.12-0.439
			c2.241-0.134,3.056-0.672,2.96-1.958c-0.093-1.274-0.562-5.885-0.998-9.829c-0.457-4.13-1.324-13.845-1.452-16.271
			c-0.112-2.093-0.465-2.938-1.2-2.865c-0.371,0.037-3.868,0.439-7.771,0.895c-3.904,0.455-8.105,0.875-9.335,0.932
			c-1.231,0.058-3.475,0.264-4.985,0.459c-1.51,0.195-3.754,0.4-4.984,0.456c-3.158,0.144-4.023,0.395-4.125,1.203
			c-0.047,0.37,0.393,4.379,0.974,8.91c0.582,4.53,1.106,8.875,1.164,9.656c0.058,0.78,0.279,3.479,0.492,5.998
			c0.212,2.518,0.384,4.612,0.384,4.656C193.443,167.355,195.168,167.387,196.842,167.204L196.842,167.204z M230.416,163.913
			c2.239-0.403,7.995-1.044,11.129-1.238c1.168-0.073,1.302-0.172,1.518-1.124c0.128-0.575,0.127-1.976-0.005-3.113
			c-0.132-1.138-0.39-4.267-0.573-6.953c-0.373-5.477-0.683-9.195-1.209-14.492c-0.197-1.983-0.318-3.923-0.27-4.311
			c0.049-0.387-0.04-0.806-0.197-0.929c-0.245-0.195-2.872,0.108-9.036,1.038c-0.802,0.121-2.624,0.391-4.049,0.6
			s-2.792,0.41-3.037,0.447c-0.605,0.09-0.58,0.56,0.705,12.696c0.599,5.66,1.208,11.957,1.355,13.995
			c0.202,2.801,0.383,3.718,0.747,3.764C227.755,164.326,229.071,164.156,230.416,163.913L230.416,163.913z M253.935,161.479
			c4.532-0.317,5.626-0.503,5.685-0.971c0.035-0.283-1.265-1.208-3.504-2.492c-8.217-4.712-8.81-5.256-8.842-8.118
			c-0.008-0.774-0.104-2.333-0.209-3.463c-0.105-1.13-0.35-3.761-0.542-5.847c-0.192-2.086-0.439-4.718-0.549-5.849
			c-0.11-1.13-0.144-2.505-0.075-3.055c0.069-0.55,0.003-1.015-0.146-1.034c-0.585-0.073-3.65,0.894-3.684,1.162
			c-0.02,0.157,0.187,2.026,0.459,4.156c0.271,2.128,0.727,7.063,1.011,10.964c0.285,3.902,0.58,7.664,0.654,8.36
			c0.074,0.697,0.18,2.327,0.233,3.622c0.055,1.296,0.194,2.516,0.31,2.713C244.941,161.976,247.406,161.936,253.935,161.479
			L253.935,161.479z M337.444,167.59c2.685,0.082,6.387,0.119,8.228,0.083c1.84-0.034,4.702-0.037,6.358-0.005
			c5.277,0.101,12.656,0.059,14.152-0.079c1.196-0.111,8.57-0.219,20.229-0.297c3.349-0.022,5.371-0.202,8.003-0.712
			c5.229-1.013,6.66-2.134,7.088-5.554c0.146-1.159,0.164-2.121,0.044-2.135c-0.119-0.015-1.466,0.167-2.991,0.405
			c-1.524,0.237-3.502,0.545-4.394,0.683s-3.355,0.396-5.477,0.573c-2.12,0.178-4.946,0.463-6.278,0.635
			c-1.334,0.172-3.074,0.371-3.87,0.441c-1.983,0.177-9.247,1.031-16.617,1.955c-3.375,0.422-8.164,0.966-10.643,1.207
			c-10.447,1.017-19.175,2.07-19.205,2.319C332.029,167.446,331.694,167.417,337.444,167.59L337.444,167.59z M271.546,152.838
			c0.049-0.39,0.33-0.952,0.624-1.25c0.293-0.297,0.58-0.885,0.636-1.308c0.169-1.265,4.063-12.075,4.665-12.944
			c0.501-0.726,1.585-3.565,3.838-10.048c0.429-1.235,1.292-3.416,1.918-4.847c1.422-3.248,1.361-3.361-1.791-3.307
			c-8.258,0.141-9.312,0.28-12.086,1.597c-2.848,1.35-4.744,3.024-4.66,4.11c0.035,0.464,0.084,2.439,0.108,4.388
			c0.023,1.95,0.132,3.792,0.239,4.092c0.107,0.301,0.256,2.031,0.329,3.845c0.38,9.326,0.837,11.996,2.246,13.113
			c0.533,0.422,1.205,1.199,1.496,1.727c0.29,0.528,0.834,1.06,1.21,1.181c0.374,0.121,0.783,0.251,0.909,0.29
			C271.354,153.517,271.497,153.229,271.546,152.838z M303.913,155.863c2.526-0.213,10.441-1.014,20.769-2.101
			c7.874-0.829,24.314-2.734,29.518-3.421c9.211-1.215,17.157-2.207,20.184-2.52c4.395-0.454,5.102-0.579,5.269-0.925
			c0.162-0.334-0.273-0.632-3.282-2.247c-3.759-2.017-7.711-3.954-11.083-5.433c-1.823-0.8-4.674-2.054-6.335-2.785
			c-3.386-1.494-8.454-3.406-11.225-4.236c-8.831-2.644-14.055-4.086-21.144-5.836c-7.117-1.756-8.334-1.988-8.758-1.661
			c-0.271,0.209-1.142,1.634-1.934,3.167c-1.529,2.958-4.427,8.021-7.141,12.478c-0.905,1.485-1.66,2.818-1.677,2.962
			c-0.019,0.144-0.758,1.416-1.645,2.825s-2.091,3.346-2.677,4.304c-0.587,0.958-1.549,2.422-2.138,3.254
			c-0.59,0.833-1.087,1.648-1.107,1.813C299.451,155.95,301.196,156.093,303.913,155.863L303.913,155.863z M444.857,161.462
			c1.733-0.206,3.752-1.778,4.172-3.251c0.655-2.295,0.964-4.098,0.771-4.507c-0.167-0.359-0.711-0.408-3.044-0.27
			c-4.654,0.275-8.319,0.864-8.485,1.364c-0.275,0.828,0.73,4.086,1.636,5.302c0.748,1.003,1.116,1.231,2.209,1.367
			C442.837,161.558,444.069,161.555,444.857,161.462L444.857,161.462L444.857,161.462z M386.853,145.838
			c0.289-0.4,0.282-1.702-0.025-4.924c-0.229-2.409-0.517-5.733-0.642-7.387c-0.271-3.652-0.521-4.741-1.107-4.814
			c-0.868-0.109-3.911,2.853-5.772,5.62c-1.497,2.225-1.956,3.192-2.3,4.843c-0.621,2.967-0.383,3.538,2.167,5.173
			c1.924,1.234,2.418,1.413,4.72,1.705C386.1,146.335,386.518,146.304,386.853,145.838L386.853,145.838z M394.475,145.339
			c2.238-0.328,4.366-0.708,4.729-0.845c0.781-0.293,0.785-0.456,0.197-7.117c-0.571-6.487-0.73-6.999-2.571-8.321
			c-1.376-0.989-1.793-1.125-4.343-1.42c-2.844-0.33-4.695-0.036-5.107,0.81c-0.101,0.206-0.098,1.087,0.006,1.959
			c0.103,0.872,0.281,2.652,0.396,3.955c0.114,1.303,0.361,4.036,0.552,6.071c0.188,2.037,0.298,4.054,0.243,4.482
			c-0.082,0.667,0.045,0.798,0.865,0.9C389.969,145.883,392.233,145.668,394.475,145.339L394.475,145.339z M374.911,140.473
			c0.023-2.244,2.221-7.078,4.298-9.459c1.389-1.591,3.726-3.4,4.973-3.849c1.226-0.442,1.323-1.278,0.742-6.343
			c-0.246-2.164-0.517-5.271-0.596-6.903c-0.081-1.633-0.274-3.071-0.432-3.194c-0.309-0.245-2.892,0.004-9.437,0.914
			c-5.638,0.782-6.445,1.027-6.338,1.921c0.046,0.386,0.294,3.088,0.549,6.004c0.432,4.912,1.175,11.85,1.552,14.477
			c0.087,0.612,0.154,1.921,0.148,2.907c-0.006,0.987,0.121,2.018,0.282,2.29c0.354,0.602,3.687,2.833,4.013,2.687
			C374.794,141.867,374.904,141.214,374.911,140.473L374.911,140.473L374.911,140.473z M403.167,143.911
			c0.55-0.204,2.16-0.5,3.579-0.658c1.419-0.157,3.741-0.431,5.162-0.607c1.421-0.178,3.961-0.469,5.646-0.647
			c9.182-0.978,17.287-2.098,17.754-2.456c0.475-0.362,0.503-0.637,0.252-2.555c-0.153-1.182-0.427-3.854-0.605-5.939
			c-0.484-5.632-1.869-23.117-1.974-24.927l-0.091-1.573l-1.261-0.087c-1.675-0.116-4.462,0.142-12.384,1.142
			c-1.687,0.214-4.884,0.605-7.102,0.871c-2.22,0.266-5.267,0.683-6.771,0.928c-1.504,0.245-4.996,0.718-7.76,1.052
			c-2.766,0.333-5.538,0.686-6.162,0.783c-0.623,0.097-2.073,0.266-3.221,0.375c-1.146,0.109-2.236,0.313-2.418,0.452
			c-0.334,0.255-0.302,0.963,0.412,8.952c0.619,6.929,0.619,6.929,2.192,6.851c2.16-0.105,5.612,0.177,7.568,0.621
			c3.497,0.792,4.524,2.442,5.022,8.067c0.141,1.595,0.327,3.472,0.413,4.17c0.085,0.697,0.054,2.111-0.071,3.141
			C401.048,144.347,401.282,144.609,403.167,143.911L403.167,143.911z M369.018,137.452c-0.023-0.793-0.327-3.678-0.677-6.412
			c-0.351-2.733-0.731-6.458-0.847-8.276c-0.33-5.197-0.602-8.294-0.794-9.078c-0.153-0.624-0.292-0.693-1.038-0.516
			c-0.474,0.112-2.185,0.319-3.802,0.458c-1.617,0.139-4.259,0.493-5.869,0.787c-1.61,0.293-4.685,0.844-6.829,1.225
			c-2.146,0.38-4.009,0.761-4.138,0.847c-0.13,0.086,0.103,0.761,0.518,1.5c2.585,4.609,2.771,6.304,0.737,6.713
			c-1.914,0.386-5.874-0.281-12.468-2.098c-3.457-0.953-7.256-1.988-8.44-2.299c-1.186-0.312-2.778-0.73-3.54-0.931
			c-1.073-0.283-2.498-0.217-6.326,0.292c-5.011,0.667-7.04,1.157-6.811,1.648c0.069,0.149,3.817,0.813,8.328,1.476
			c8.647,1.269,12.175,2.084,22.642,5.232c13.309,4.002,17.032,5.344,24.488,8.824c2.23,1.042,4.246,1.927,4.479,1.97
			C368.96,138.875,369.046,138.57,369.018,137.452L369.018,137.452z M442.414,139.324c1.308-0.173,2.701-0.277,3.097-0.231
			c1.262,0.144,2.677-0.55,2.778-1.364c0.052-0.406-0.115-2.637-0.367-4.958c-0.585-5.349-0.84-7.96-0.952-9.749
			c-0.05-0.779-0.177-2.482-0.284-3.784c-0.237-2.88-0.696-10.118-0.82-12.912c-0.178-3.975-0.108-3.763-1.28-3.91
			c-1.195-0.149-7.876,0.736-9.278,1.231c-0.504,0.177-0.928,0.422-0.942,0.545c-0.049,0.386,0.29,4.753,0.797,10.323
			c0.868,9.528,1.211,13.785,1.568,19.518l0.349,5.62l1.479-0.008C439.37,139.641,441.106,139.497,442.414,139.324z M505.106,90.802
			c0.062-0.149-0.055-0.352-0.263-0.449c-0.207-0.098-0.403,0.053-0.438,0.335C504.341,91.208,504.898,91.299,505.106,90.802
			L505.106,90.802z"/>
	</g>
</g>
<path d="M235.648,227.156h-15.871v18.226h-14.552v-48.684h35.202v11.591h-20.65v7.918h15.871V227.156z"/>
<path d="M257.688,196.698v48.684h-14.017v-48.684H257.688z"/>
<path d="M274.408,209.109v36.272h-14.23v-36.272H274.408z"/>
<path d="M317.703,200.871l-0.356,9.736l-0.678-0.035c-1.284-0.071-2.199-0.107-2.746-0.107c-2.211,0-3.543,0.44-3.994,1.32
	c2.71,2.234,4.064,4.934,4.064,8.096c0,3.709-1.468,6.497-4.404,8.363c-2.937,1.867-6.925,2.8-11.965,2.8
	c-0.119,0-0.738-0.023-1.855-0.071c-1.047-0.047-1.593-0.071-1.641-0.071c-2.307,0-3.459,0.595-3.459,1.783
	c0,1.047,1.021,1.605,3.066,1.677l11.663,0.499c4.256,0.19,7.376,1.38,9.362,3.566c1.984,2.188,2.979,4.744,2.979,7.668
	c0,3.472-1.48,6.307-4.441,8.507c-2.959,2.199-8.72,3.299-17.279,3.299c-13.196,0-19.795-3.031-19.795-9.095
	c0-3.305,1.748-5.611,5.243-6.919c-2.259-1.593-3.388-3.483-3.388-5.671c0-3.566,2.318-6.253,6.955-8.061
	c-3.877-1.688-5.814-4.494-5.814-8.417c0-3.59,1.57-6.384,4.708-8.382c3.139-1.997,7.442-2.995,12.911-2.995
	c2.496,0,4.767,0.249,6.813,0.748c0.832-5.682,3.84-8.523,9.023-8.523C313.862,200.586,315.539,200.681,317.703,200.871z
	 M293.237,244.911c-0.523-0.024-1.047-0.037-1.569-0.037c-2.45,0-3.675,0.762-3.675,2.286c0,1.405,0.934,2.31,2.801,2.715
	c1.865,0.404,4.356,0.607,7.472,0.607c2.948,0,4.845-0.25,5.688-0.749s1.266-1.188,1.266-2.066c0-0.618-0.189-1.135-0.57-1.551
	s-1.283-0.659-2.711-0.73L293.237,244.911z M296.874,224.304c2.758,0,4.138-1.463,4.138-4.388c0-2.995-1.415-4.493-4.244-4.493
	c-2.806,0-4.208,1.521-4.208,4.564C292.56,222.865,293.997,224.304,296.874,224.304z"/>
<path d="M355.113,245.382h-14.23v-21.827c0-1.998-0.219-3.371-0.656-4.12c-0.438-0.749-1.284-1.123-2.538-1.123
	c-0.97,0-1.815,0.291-2.537,0.874s-1.143,1.183-1.26,1.801c-0.118,0.619-0.178,1.914-0.178,3.888v20.508h-14.23v-48.684h14.23
	v16.691c2.568-3.353,5.921-5.028,10.059-5.028c2.092,0,3.928,0.362,5.51,1.087c1.581,0.726,2.8,1.659,3.656,2.8
	c0.855,1.142,1.432,2.247,1.729,3.317c0.298,1.069,0.446,3.139,0.446,6.206V245.382z"/>
<path d="M384.037,209.109v9.238h-7.24v13.374c0,1.831,0.345,2.919,1.034,3.264s1.402,0.517,2.141,0.517
	c1.141,0,2.496-0.201,4.065-0.606v10.13c-2.806,0.547-5.563,0.82-8.274,0.82c-4.375,0-7.592-0.939-9.648-2.817
	s-3.084-4.874-3.084-8.988l0.035-4.244v-11.448h-5.421v-9.238h5.421l0.214-11.805l13.518-0.214v12.019H384.037z"/>
<path d="M434.672,233.434v11.948H400.54v-48.684h14.944v36.735H434.672z"/>
<path d="M455.105,246.131c-6.016,0-10.795-1.872-14.338-5.617s-5.313-8.138-5.313-13.179c0-5.421,1.848-9.938,5.546-13.553
	c3.696-3.614,8.506-5.421,14.427-5.421c5.968,0,10.765,1.783,14.391,5.35s5.439,8.037,5.439,13.41c0,5.421-1.837,9.945-5.511,13.57
	C466.072,244.318,461.192,246.131,455.105,246.131z M455.319,237.5c2.211,0,3.561-1.147,4.048-3.442
	c0.487-2.294,0.731-4.689,0.731-7.187c0-3.399-0.345-5.849-1.034-7.347c-0.69-1.498-1.926-2.247-3.709-2.247
	c-1.641,0-2.842,0.772-3.603,2.318c-0.762,1.546-1.142,4.09-1.142,7.632c0,4.161,0.393,6.914,1.177,8.257
	C452.573,236.828,453.75,237.5,455.319,237.5z"/>
<path d="M514.59,200.871l-0.356,9.736l-0.678-0.035c-1.283-0.071-2.199-0.107-2.746-0.107c-2.211,0-3.543,0.44-3.994,1.32
	c2.71,2.234,4.065,4.934,4.065,8.096c0,3.709-1.468,6.497-4.404,8.363c-2.937,1.867-6.926,2.8-11.966,2.8
	c-0.119,0-0.737-0.023-1.854-0.071c-1.047-0.047-1.594-0.071-1.641-0.071c-2.307,0-3.46,0.595-3.46,1.783
	c0,1.047,1.022,1.605,3.067,1.677l11.663,0.499c4.256,0.19,7.376,1.38,9.361,3.566c1.985,2.188,2.979,4.744,2.979,7.668
	c0,3.472-1.48,6.307-4.44,8.507c-2.96,2.199-8.72,3.299-17.28,3.299c-13.195,0-19.794-3.031-19.794-9.095
	c0-3.305,1.748-5.611,5.243-6.919c-2.26-1.593-3.389-3.483-3.389-5.671c0-3.566,2.318-6.253,6.955-8.061
	c-3.876-1.688-5.813-4.494-5.813-8.417c0-3.59,1.569-6.384,4.708-8.382c3.139-1.997,7.441-2.995,12.91-2.995
	c2.497,0,4.768,0.249,6.813,0.748c0.832-5.682,3.84-8.523,9.023-8.523C510.75,200.586,512.427,200.681,514.59,200.871z
	 M490.124,244.911c-0.523-0.024-1.046-0.037-1.569-0.037c-2.449,0-3.674,0.762-3.674,2.286c0,1.405,0.933,2.31,2.8,2.715
	c1.866,0.404,4.356,0.607,7.472,0.607c2.948,0,4.845-0.25,5.688-0.749s1.267-1.188,1.267-2.066c0-0.618-0.19-1.135-0.57-1.551
	c-0.381-0.416-1.284-0.659-2.711-0.73L490.124,244.911z M493.762,224.304c2.758,0,4.137-1.463,4.137-4.388
	c0-2.995-1.414-4.493-4.244-4.493c-2.806,0-4.208,1.521-4.208,4.564C489.446,222.865,490.885,224.304,493.762,224.304z"/>
</svg>
