<?xml version="1.0" encoding="utf-8"?>
<!-- Generator: Adobe Illustrator 15.0.0, SVG Export Plug-In . SVG Version: 6.00 Build 0)  -->
<!DOCTYPE svg PUBLIC "-//W3C//DTD SVG 1.1//EN" "http://www.w3.org/Graphics/SVG/1.1/DTD/svg11.dtd">
<svg version="1.1" id="Layer_1" xmlns="http://www.w3.org/2000/svg" xmlns:xlink="http://www.w3.org/1999/xlink" x="0px" y="0px"
	 width="612px" height="792px" viewBox="0 0 612 792" enable-background="new 0 0 612 792" xml:space="preserve">
<path d="M316.656,354.656c-1.004-1.001-1.568-0.87-1.568-0.87l-0.706,0.702l1.226,1.222l1.223,1.225l0.702-0.704
	c0,0,0.131-0.565-0.87-1.569h0.001c-0.001-0.001-0.002-0.001-0.003-0.002S316.657,354.656,316.656,354.656L316.656,354.656z"/>
<polygon points="314.604,356.709 314.607,356.714 315.83,357.938 316.516,357.253 315.292,356.03 315.287,356.025 314.063,354.802 
	313.379,355.486 "/>
<g>
	<path d="M303.123,370.635l12.16-12.16l-1.219-1.218l-0.004-0.005l-1.219-1.218l-12.07,12.071
		C302.084,368.204,303.12,369.297,303.123,370.635z"/>
	<path d="M298.043,370.833l-12.847,12.847l-0.957,3.394l-0.009,0.009l0.007-0.002l-0.002,0.006l0.009-0.008l3.393-0.957
		l12.938-12.937C299.236,373.181,298.143,372.146,298.043,370.833z"/>
</g>
<g>
	<path d="M316.184,386.87c-0.175-0.407-1.357-4.889-5.896-9.428c-4.488-4.488-4.767-1.241-8.204-5.76
		c0.52-0.723,0.456-1.737-0.193-2.388c-0.407-0.407-0.958-0.584-1.49-0.533c-0.37-1.104-2.611-6.494-13.263-15.288
		c0,0-0.776-0.582-1.397-0.232c-0.621,0.349-0.97,0.814-0.795,1.222c0.174,0.408,1.358,4.889,5.897,9.428
		c4.476,4.477,4.765,1.259,8.175,5.723c-0.453,0.716-0.37,1.676,0.254,2.299c0.389,0.389,0.909,0.565,1.418,0.537
		c0.226,0.753,2.175,6.224,13.303,15.41c0,0,0.775,0.582,1.396,0.231C316.009,387.741,316.357,387.277,316.184,386.87z
		 M299.968,371.215c-0.337-0.337-0.336-0.885,0-1.222c0.337-0.337,0.885-0.337,1.222,0s0.337,0.885,0,1.222
		C300.854,371.552,300.306,371.552,299.968,371.215z"/>
</g>
<g>
	<path d="M276.788,368.756h2.899v0.815h-1.722v0.663h1.47V371h-1.47v1.551h-1.178L276.788,368.756L276.788,368.756z"/>
	<path d="M280.027,368.756h1.173v2.86h1.83v0.935h-3.003V368.756z"/>
	<path d="M283.318,368.756h1.175v3.795h-1.175V368.756z"/>
	<path d="M286.951,371.177v-0.79h1.813v1.618c-0.347,0.236-0.654,0.397-0.92,0.483c-0.266,0.086-0.583,0.128-0.949,0.128
		c-0.451,0-0.818-0.077-1.102-0.23s-0.504-0.382-0.66-0.686c-0.156-0.305-0.234-0.652-0.234-1.046c0-0.415,0.085-0.774,0.256-1.081
		c0.171-0.307,0.421-0.539,0.751-0.697c0.257-0.123,0.603-0.184,1.038-0.184c0.419,0,0.733,0.038,0.941,0.113
		c0.208,0.076,0.38,0.194,0.518,0.354c0.138,0.16,0.24,0.362,0.31,0.606l-1.131,0.202c-0.047-0.144-0.125-0.253-0.237-0.329
		c-0.111-0.075-0.253-0.113-0.426-0.113c-0.257,0-0.462,0.089-0.615,0.268c-0.152,0.179-0.229,0.461-0.229,0.848
		c0,0.411,0.077,0.704,0.232,0.881c0.154,0.176,0.37,0.264,0.646,0.264c0.131,0,0.256-0.02,0.375-0.058
		c0.119-0.037,0.255-0.103,0.409-0.193v-0.357L286.951,371.177L286.951,371.177z"/>
	<path d="M289.173,368.756h1.173v1.328h1.281v-1.328h1.178v3.795h-1.178v-1.535h-1.281v1.535h-1.173V368.756z"/>
	<path d="M293.026,368.756h3.564v0.938h-1.196v2.857h-1.173v-2.857h-1.196L293.026,368.756L293.026,368.756z"/>
	<path d="M305.67,368.756h1.172v2.86h1.831v0.935h-3.003V368.756z"/>
	<path d="M308.968,370.656c0-0.62,0.173-1.103,0.519-1.447s0.826-0.518,1.441-0.518c0.631,0,1.118,0.169,1.461,0.509
		c0.342,0.339,0.512,0.813,0.512,1.425c0,0.444-0.074,0.808-0.225,1.091s-0.365,0.505-0.646,0.663s-0.633,0.237-1.055,0.237
		c-0.429,0-0.783-0.068-1.063-0.204c-0.28-0.137-0.509-0.353-0.683-0.647C309.055,371.469,308.968,371.1,308.968,370.656z
		 M310.141,370.662c0,0.383,0.071,0.658,0.215,0.826c0.142,0.167,0.336,0.251,0.58,0.251c0.252,0,0.446-0.082,0.586-0.246
		c0.138-0.164,0.207-0.458,0.207-0.882c0-0.357-0.072-0.619-0.218-0.783c-0.144-0.165-0.339-0.248-0.586-0.248
		c-0.235,0-0.426,0.084-0.569,0.251C310.213,369.998,310.141,370.275,310.141,370.662z"/>
	<path d="M315.439,371.177v-0.79h1.813v1.618c-0.348,0.236-0.654,0.397-0.921,0.483s-0.583,0.128-0.948,0.128
		c-0.449,0-0.818-0.077-1.102-0.23c-0.284-0.153-0.504-0.382-0.66-0.686c-0.156-0.305-0.234-0.652-0.234-1.046
		c0-0.415,0.086-0.774,0.256-1.081c0.172-0.307,0.422-0.539,0.752-0.697c0.258-0.123,0.604-0.184,1.037-0.184
		c0.42,0,0.733,0.038,0.941,0.113c0.208,0.076,0.38,0.194,0.518,0.354c0.137,0.16,0.24,0.362,0.311,0.606l-1.133,0.202
		c-0.045-0.144-0.125-0.253-0.235-0.329c-0.11-0.075-0.254-0.113-0.426-0.113c-0.259,0-0.464,0.089-0.615,0.268
		s-0.229,0.461-0.229,0.848c0,0.411,0.078,0.704,0.231,0.881c0.154,0.176,0.369,0.264,0.646,0.264c0.132,0,0.258-0.02,0.375-0.058
		c0.119-0.037,0.257-0.103,0.41-0.193v-0.357L315.439,371.177L315.439,371.177z"/>
</g>
</svg>
