<?xml version="1.0" encoding="UTF-8" standalone="no"?>
<!-- Generator: Adobe Illustrator 15.0.0, SVG Export Plug-In . SVG Version: 6.00 Build 0)  -->

<svg
   xmlns:dc="http://purl.org/dc/elements/1.1/"
   xmlns:cc="http://creativecommons.org/ns#"
   xmlns:rdf="http://www.w3.org/1999/02/22-rdf-syntax-ns#"
   xmlns:svg="http://www.w3.org/2000/svg"
   xmlns="http://www.w3.org/2000/svg"
   xmlns:sodipodi="http://sodipodi.sourceforge.net/DTD/sodipodi-0.dtd"
   xmlns:inkscape="http://www.inkscape.org/namespaces/inkscape"
   version="1.1"
   x="0px"
   y="0px"
   width="420.45181"
   height="184.69467"
   viewBox="0 0 420.45181 184.69467"
   enable-background="new 0 0 640 480"
   xml:space="preserve"
   id="svg30"
   sodipodi:docname="flight-log-icon-v3-org-blu.svg"
   inkscape:version="0.92.4 (unknown)"><metadata
   id="metadata36"><rdf:RDF><cc:Work
       rdf:about=""><dc:format>image/svg+xml</dc:format><dc:type
         rdf:resource="http://purl.org/dc/dcmitype/StillImage" /><dc:title></dc:title></cc:Work></rdf:RDF></metadata><defs
   id="defs34">
	
	
</defs><sodipodi:namedview
   pagecolor="#ffffff"
   bordercolor="#666666"
   borderopacity="1"
   objecttolerance="10"
   gridtolerance="10"
   guidetolerance="10"
   inkscape:pageopacity="0"
   inkscape:pageshadow="2"
   inkscape:window-width="3840"
   inkscape:window-height="2037"
   id="namedview32"
   showgrid="false"
   inkscape:zoom="2.7812867"
   inkscape:cx="201.8806"
   inkscape:cy="-28.497499"
   inkscape:window-x="3840"
   inkscape:window-y="68"
   inkscape:window-maximized="1"
   inkscape:current-layer="svg30"
   fit-margin-top="0"
   fit-margin-left="0"
   fit-margin-right="0"
   fit-margin-bottom="0" />
<g
   id="g6"
   style="fill:#fc5a00;fill-opacity:1"
   transform="translate(-122.18719,-69.953333)">
		<g
   id="g4"
   style="fill:#fc5a00;fill-opacity:1">
			<path
   inkscape:connector-curvature="0"
   id="path2"
   d="m 264.709,204.376 c -2.265,-0.671 -4.397,-3.185 -5.6,-6.601 -0.815,-2.321 -0.322,-7.634 0.943,-10.103 0.919,-1.799 2.988,-3.97 3.718,-3.904 0.228,0.02 0.715,-0.277 1.082,-0.662 0.625,-0.652 0.653,-0.828 0.406,-2.687 -0.145,-1.095 -0.386,-3.307 -0.534,-4.918 l -0.27,-2.929 -0.959,0.053 c -0.526,0.03 -3.048,0.301 -5.6,0.604 -2.553,0.302 -7.163,0.825 -10.24,1.162 -6.929,0.758 -10.747,1.25 -13.459,1.737 -1.151,0.207 -3.244,0.505 -4.652,0.665 -4.111,0.467 -6.854,0.787 -9.762,1.142 -1.498,0.183 -4.087,0.458 -5.757,0.613 -1.667,0.154 -3.273,0.444 -3.565,0.645 -0.292,0.199 -1.017,0.321 -1.608,0.269 -2.233,-0.199 -15.148,1.182 -15.76,1.684 -0.162,0.132 -0.446,1.475 -0.631,2.983 -0.573,4.672 -2.798,7.456 -6.716,8.407 -2.071,0.504 -7.656,0.082 -9.492,-0.717 -2.325,-1.012 -4.454,-4.116 -4.767,-6.951 l -0.198,-1.78 -2.327,-0.277 c -8.884,-1.062 -16.502,-2.707 -21.513,-4.646 -3.338,-1.292 -3.521,-1.394 -3.669,-2.045 -0.302,-1.336 0.734,-1.87 3.814,-1.968 3.502,-0.111 17.964,-1.167 20.237,-1.477 1.445,-0.197 2.196,-0.858 2.075,-1.821 -0.046,-0.362 -0.392,-2.717 -0.767,-5.231 -1.088,-7.262 -1.85,-13.259 -1.782,-14.018 0.034,-0.385 -0.142,-1.64 -0.395,-2.79 -0.249,-1.149 -0.487,-2.9 -0.526,-3.893 -0.083,-2.112 0.262,-2.009 -5.151,-1.532 -5.309,0.469 -10.945,0.197 -13.35,-0.644 -1.069,-0.374 -2.391,-0.721 -2.939,-0.772 -0.548,-0.05 -2.31,-0.544 -3.916,-1.094 -1.604,-0.551 -3.617,-1.16 -4.471,-1.353 -0.853,-0.191 -2.516,-0.721 -3.694,-1.175 -2.592,-1 -3.526,-1.304 -6.924,-2.251 -3.059,-0.853 -4.064,-1.776 -3.747,-3.441 0.166,-0.872 0.339,-0.989 1.956,-1.31 0.975,-0.194 4.358,-0.561 7.517,-0.814 3.159,-0.253 7.328,-0.659 9.266,-0.903 1.938,-0.243 4.886,-0.536 6.551,-0.653 3.694,-0.257 6.614,-0.589 11.751,-1.332 2.157,-0.312 4.608,-0.622 5.447,-0.69 0.837,-0.068 2.682,-0.32 4.097,-0.561 2.167,-0.367 5.705,-0.796 13.449,-1.629 0.704,-0.076 2.442,-0.391 3.863,-0.702 1.421,-0.311 3.008,-0.528 3.528,-0.484 0.518,0.044 2.247,-0.162 3.841,-0.455 1.594,-0.295 4.27,-0.74 5.947,-0.989 7.704,-1.146 12.277,-1.94 13.11,-2.277 0.498,-0.202 1.175,-0.343 1.503,-0.315 0.328,0.029 2.421,-0.268 4.652,-0.66 2.229,-0.391 5.205,-0.833 6.612,-0.981 1.407,-0.149 4.657,-0.643 7.224,-1.098 2.568,-0.454 5.39,-0.949 6.275,-1.1 3.043,-0.519 9.671,-1.833 11.932,-2.37 1.246,-0.294 3.495,-0.72 4.993,-0.946 2.79,-0.418 9.17,-1.678 13.579,-2.682 1.353,-0.308 3.531,-0.744 4.838,-0.968 1.307,-0.226 2.671,-0.513 3.031,-0.641 0.36,-0.127 2.606,-0.54 4.992,-0.917 9.151,-1.445 14.861,-2.535 22.881,-4.368 2.046,-0.468 4.876,-1.055 6.293,-1.305 1.417,-0.251 3.882,-0.736 5.481,-1.078 1.598,-0.342 4.866,-1.002 7.258,-1.466 4.051,-0.786 7.586,-1.509 18.232,-3.728 2.307,-0.48 5.435,-1.191 6.949,-1.577 1.517,-0.387 3.915,-0.915 5.333,-1.174 1.416,-0.258 3.304,-0.644 4.193,-0.859 0.892,-0.214 2.834,-0.623 4.318,-0.907 1.483,-0.285 3.305,-0.725 4.047,-0.977 3.074,-1.048 5.433,-1.698 8.486,-2.341 5.606,-1.181 12.267,-2.739 12.617,-2.95 0.184,-0.112 0.817,-0.262 1.407,-0.332 0.59,-0.07 2.854,-0.663 5.027,-1.319 2.174,-0.655 5.187,-1.417 6.691,-1.695 1.507,-0.278 3.978,-0.824 5.492,-1.209 1.517,-0.388 6.761,-1.657 11.654,-2.819 12.899,-3.065 13.911,-3.309 15.702,-3.781 0.891,-0.235 2.631,-0.555 3.864,-0.712 2.57,-0.326 5.954,-0.958 8.537,-1.596 1.945,-0.48 3.138,-0.6 9.588,-0.958 9,-0.5 21.973,1.398 36.108,5.279 9.081,2.496 11.171,3.25 12.343,4.457 0.902,0.933 0.979,1.164 0.734,2.225 -0.315,1.38 -1.066,2.147 -2.745,2.809 -1.504,0.592 -6.068,1.794 -8.213,2.161 -0.886,0.152 -3.422,0.622 -5.637,1.046 -2.215,0.422 -4.753,0.905 -5.64,1.073 -0.886,0.166 -4.354,0.7 -7.706,1.186 -8.526,1.233 -12.404,1.846 -13.245,2.091 -1.337,0.391 -4.753,0.904 -5.867,0.882 -2.359,-0.048 -8.17,1.05 -11.274,2.126 -2.345,0.813 -2.251,-0.04 -0.978,8.89 0.173,1.214 0.415,3.337 0.541,4.717 0.125,1.381 0.477,4.563 0.783,7.073 0.307,2.51 0.784,6.965 1.064,9.901 0.28,2.936 0.602,5.456 0.714,5.604 0.229,0.3 4.18,-0.307 7.505,-1.153 3.346,-0.852 7.803,-0.989 13.941,-0.431 6.777,0.615 10.401,1.315 13.239,2.559 3.739,1.635 4.61,2.839 3.884,5.372 -0.385,1.35 -2.601,2.599 -5.491,3.098 -1.165,0.202 -4.083,0.771 -6.479,1.268 -4.581,0.947 -6.993,1.358 -11.739,2.002 -1.588,0.215 -4.709,0.651 -6.936,0.969 -2.229,0.318 -4.271,0.559 -4.541,0.534 -1.16,-0.105 -1.552,0.728 -1.839,3.914 -0.17,1.908 -0.474,3.445 -0.797,4.05 -0.741,1.384 -2.942,2.998 -4.453,3.266 -1.267,0.226 -5.169,-0.271 -6.254,-0.796 -0.821,-0.398 -2.06,-3.017 -2.556,-5.401 -0.251,-1.21 -0.62,-2.159 -0.85,-2.18 -0.224,-0.02 -1.266,0.15 -2.316,0.379 -3.701,0.805 -8.692,1.702 -9.954,1.788 -0.699,0.048 -2.146,0.283 -3.214,0.522 -1.064,0.239 -5.182,0.915 -9.146,1.504 -3.962,0.589 -7.401,1.202 -7.645,1.365 -0.282,0.193 -0.506,1.073 -0.635,2.513 -0.175,1.932 -0.339,2.395 -1.271,3.588 -1.814,2.324 -4.938,3.487 -10.817,4.031 -5.394,0.497 -8.515,0.738 -11.481,0.886 -1.662,0.082 -4.023,0.199 -5.25,0.26 -1.226,0.061 -4.874,0.226 -8.109,0.368 -3.235,0.142 -7.458,0.335 -9.382,0.43 -1.925,0.094 -4.642,0.196 -6.036,0.226 -1.398,0.03 -3.898,0.086 -5.556,0.125 -1.658,0.039 -4.371,0.078 -6.024,0.085 -7.647,0.037 -12.916,0.103 -13.793,0.171 -0.526,0.042 -1.881,0.046 -3.012,0.01 -1.127,-0.036 -3.18,0.021 -4.556,0.126 -3.74,0.285 -3.586,-0.028 -4.664,9.5 -0.733,6.494 -0.833,8.206 -0.577,9.901 0.435,2.891 -0.152,9.38 -0.991,10.947 -1.017,1.9 -2.239,2.983 -4.133,3.666 -2.065,0.743 -4.065,0.671 -5.82,-0.207 -1.847,-0.924 -3.889,-4.353 -4.073,-6.832 -0.049,-0.661 -0.282,-1.294 -0.519,-1.408 -0.233,-0.115 -1.245,-0.128 -2.247,-0.031 -1.001,0.097 -3.757,0.296 -6.122,0.443 -2.364,0.147 -5.167,0.399 -6.227,0.562 -1.059,0.162 -2.562,0.368 -3.34,0.458 -0.778,0.09 -1.481,0.221 -1.565,0.289 -0.084,0.067 -0.313,1.179 -0.509,2.471 -0.198,1.299 -0.675,2.924 -1.064,3.638 -0.802,1.464 -3.078,3.462 -4.394,3.858 -1.293,0.389 -3.607,0.449 -4.712,0.121 z m -78.407,-14.465 2.647,-0.979 0.813,-1.901 c 0.447,-1.045 0.962,-2.611 1.148,-3.48 0.295,-1.395 0.263,-1.61 -0.267,-1.83 -0.331,-0.137 -3.017,-0.028 -5.969,0.243 -2.95,0.27 -6.296,0.531 -7.433,0.578 -3.009,0.127 -4.161,0.476 -4.225,1.276 -0.084,1.071 0.804,3.144 1.921,4.481 1.218,1.458 2.538,1.955 6.188,2.331 2.331,0.24 2.733,0.184 5.177,-0.719 z m 120.108,8.223 c 1.895,-0.772 3.338,-6.319 2.532,-9.73 -1.467,-6.209 -5.183,-8.168 -8.237,-4.344 -0.936,1.171 -0.995,1.399 -1.325,5.086 -0.34,3.784 -0.33,3.894 0.51,5.669 0.949,2.005 1.532,2.732 2.649,3.301 0.794,0.402 2.902,0.413 3.871,0.018 z m -0.834,-6.488 c -0.984,-1.322 -0.643,-3.177 0.686,-3.731 0.851,-0.355 1.455,-0.037 1.811,0.952 0.395,1.104 0.264,2.061 -0.387,2.822 -0.663,0.772 -1.518,0.754 -2.11,-0.043 z m -29.055,0.104 c 0.352,-0.145 0.666,-0.582 0.7,-0.971 0.034,-0.389 -0.433,-4.101 -1.04,-8.253 -0.606,-4.15 -1.174,-8.278 -1.263,-9.171 -0.087,-0.895 -0.317,-1.699 -0.511,-1.789 -0.356,-0.164 -6.28,0.225 -7.525,0.494 -0.813,0.175 -1.017,1.672 -0.536,3.935 0.177,0.834 0.396,2.394 0.485,3.467 0.282,3.425 0.217,3.279 1.654,3.65 3.174,0.817 4.918,2.659 6.033,6.367 0.478,1.591 0.917,2.494 1.227,2.522 0.076,0.007 0.425,-0.105 0.776,-0.251 z m 4.574,-0.656 c 0.625,-0.513 1.235,-2.431 2.028,-6.366 0.337,-1.682 0.997,-4.928 1.464,-7.214 0.468,-2.287 0.907,-4.787 0.976,-5.557 0.111,-1.236 0.039,-1.425 -0.622,-1.612 -0.413,-0.116 -1.66,-0.107 -2.773,0.02 -1.114,0.127 -2.393,0.201 -2.842,0.163 -0.449,-0.036 -1.277,0.046 -1.838,0.185 -1.322,0.322 -1.345,0.66 -0.468,6.619 0.382,2.602 0.809,5.792 0.946,7.088 0.714,6.722 0.763,6.916 1.736,7.004 0.49,0.043 1.116,-0.105 1.393,-0.33 z m 6.872,-0.459 c 1.121,-0.101 2.543,-0.337 3.158,-0.528 1.325,-0.409 1.323,-0.438 -0.274,-4.53 -0.586,-1.507 -1.553,-4.256 -2.149,-6.106 -1.703,-5.305 -1.903,-5.333 -2.854,-0.397 -0.355,1.843 -1.074,5.072 -1.596,7.176 -0.522,2.103 -0.966,4.003 -0.986,4.222 -0.039,0.438 1.135,0.479 4.701,0.163 z m 6.91,-0.658 c 0.123,-0.165 0.368,-1.44 0.542,-2.837 0.47,-3.779 2.113,-6.316 4.53,-6.996 1.155,-0.325 1.13,-0.52 -1.021,-8.075 -0.511,-1.797 -0.998,-3.345 -1.078,-3.441 -0.173,-0.203 -8.721,0.784 -9.795,1.13 -1.068,0.346 -0.998,1.112 0.422,4.635 1.498,3.711 5.253,14.092 5.47,15.118 0.162,0.761 0.555,0.957 0.93,0.466 z m -117.753,-18.45 c 1.233,-0.156 4.184,-0.473 6.556,-0.704 5.232,-0.511 6.082,-0.728 6.157,-1.566 0.032,-0.348 -0.167,-1.996 -0.44,-3.659 -0.274,-1.665 -0.633,-4.089 -0.801,-5.389 -0.166,-1.299 -0.436,-3.148 -0.6,-4.106 -0.163,-0.96 -0.368,-2.38 -0.455,-3.154 -0.086,-0.774 -0.417,-3.45 -0.737,-5.945 -0.318,-2.496 -0.538,-4.993 -0.488,-5.55 0.05,-0.557 -0.038,-1.109 -0.195,-1.225 -0.158,-0.117 -1.779,0.07 -3.601,0.414 -1.823,0.345 -5.184,0.828 -7.47,1.076 -5.828,0.633 -6.513,0.766 -6.888,1.337 -0.225,0.341 -0.133,1.527 0.277,3.672 0.334,1.741 0.759,4.861 0.942,6.931 0.184,2.071 0.716,6.461 1.182,9.756 0.468,3.295 0.903,6.485 0.969,7.09 0.066,0.604 0.243,1.193 0.392,1.306 0.3,0.228 1.789,0.147 5.2,-0.284 z m 132.664,3.605 c 0.456,-3.729 0.748,-6.942 0.647,-7.138 -0.119,-0.234 -0.745,-0.335 -1.809,-0.291 -0.895,0.037 -2.713,0.09 -4.041,0.117 -2.929,0.058 -5.073,0.454 -5.116,0.941 -0.019,0.199 0.365,1.646 0.852,3.218 0.487,1.57 1.196,3.865 1.576,5.097 l 0.691,2.241 1.513,0.327 c 1.516,0.327 3.252,1.223 3.567,1.838 0.091,0.181 0.419,0.351 0.729,0.379 0.515,0.048 0.629,-0.504 1.391,-6.729 z m -114.71,-5.441 c 1.03,-0.15 5.258,-0.687 9.397,-1.196 4.139,-0.508 9.042,-1.127 10.893,-1.377 1.851,-0.25 4.148,-0.527 5.102,-0.617 2.234,-0.212 3.03,-0.778 2.89,-2.06 -0.138,-1.27 -0.767,-5.862 -1.34,-9.788 -0.601,-4.112 -1.807,-13.791 -2.019,-16.21 -0.185,-2.088 -0.567,-2.92 -1.299,-2.821 -0.37,0.05 -3.851,0.574 -7.735,1.166 -3.886,0.591 -8.069,1.157 -9.297,1.257 -1.229,0.101 -3.463,0.385 -4.966,0.633 -1.502,0.248 -3.737,0.531 -4.965,0.63 -3.15,0.254 -4.006,0.535 -4.081,1.346 -0.034,0.372 0.546,4.363 1.285,8.871 0.74,4.507 1.415,8.831 1.5,9.61 0.084,0.777 0.4,3.467 0.701,5.977 0.3,2.509 0.545,4.596 0.546,4.64 -0.003,0.208 1.722,0.18 3.388,-0.061 z m 33.439,-4.461 c 2.223,-0.481 7.954,-1.322 11.079,-1.626 1.165,-0.113 1.295,-0.217 1.478,-1.176 0.108,-0.579 0.058,-1.979 -0.113,-3.111 -0.172,-1.133 -0.539,-4.25 -0.815,-6.929 -0.564,-5.461 -1.004,-9.166 -1.714,-14.441 -0.266,-1.975 -0.455,-3.91 -0.42,-4.299 0.036,-0.389 -0.068,-0.804 -0.229,-0.922 -0.252,-0.186 -2.867,0.208 -8.995,1.353 -0.797,0.149 -2.609,0.482 -4.025,0.741 -1.417,0.258 -2.776,0.507 -3.02,0.552 -0.602,0.111 -0.561,0.58 1.147,12.664 0.796,5.635 1.625,11.908 1.843,13.939 0.3,2.792 0.512,3.703 0.878,3.735 0.261,0.026 1.57,-0.19 2.906,-0.48 z m 23.42,-3.253 c 4.518,-0.475 5.605,-0.699 5.647,-1.169 0.025,-0.284 -1.306,-1.163 -3.588,-2.368 -8.377,-4.422 -8.988,-4.946 -9.121,-7.805 -0.035,-0.773 -0.185,-2.328 -0.33,-3.454 -0.145,-1.126 -0.481,-3.747 -0.746,-5.825 -0.265,-2.078 -0.604,-4.7 -0.752,-5.826 -0.15,-1.125 -0.231,-2.499 -0.182,-3.05 0.05,-0.553 -0.032,-1.015 -0.182,-1.029 -0.587,-0.052 -3.617,1.021 -3.642,1.29 -0.015,0.158 0.258,2.018 0.604,4.138 0.345,2.117 0.973,7.034 1.393,10.922 0.421,3.89 0.847,7.639 0.945,8.332 0.098,0.694 0.261,2.319 0.359,3.612 0.101,1.293 0.282,2.508 0.405,2.7 0.219,0.342 2.681,0.216 9.19,-0.468 z m 83.671,3.192 c 2.687,-0.012 6.387,-0.104 8.227,-0.204 1.837,-0.098 4.696,-0.201 6.353,-0.227 5.278,-0.083 12.651,-0.382 14.142,-0.573 1.19,-0.153 8.558,-0.518 20.205,-1.003 3.348,-0.139 5.361,-0.389 7.975,-0.991 5.19,-1.195 6.582,-2.365 6.89,-5.798 0.106,-1.163 0.09,-2.125 -0.031,-2.135 -0.12,-0.011 -1.458,0.218 -2.975,0.509 -1.514,0.291 -3.48,0.667 -4.368,0.836 -0.885,0.169 -3.337,0.513 -5.453,0.764 -2.111,0.252 -4.926,0.636 -6.251,0.854 -1.327,0.218 -3.06,0.478 -3.854,0.576 -1.975,0.247 -9.204,1.354 -16.539,2.534 -3.358,0.54 -8.125,1.25 -10.594,1.578 -10.405,1.381 -19.09,2.738 -19.112,2.987 -0.031,0.338 -0.368,0.321 5.385,0.293 z m -66.373,-12.443 c 0.036,-0.391 0.297,-0.962 0.58,-1.271 0.282,-0.307 0.549,-0.904 0.59,-1.33 0.125,-1.27 3.639,-12.209 4.21,-13.099 0.475,-0.743 1.459,-3.618 3.485,-10.176 0.385,-1.249 1.172,-3.459 1.748,-4.911 1.308,-3.295 1.243,-3.406 -1.905,-3.243 -8.248,0.429 -9.296,0.605 -12.023,2.018 -2.799,1.449 -4.636,3.188 -4.514,4.27 0.051,0.463 0.169,2.435 0.261,4.382 0.091,1.948 0.265,3.785 0.382,4.081 0.118,0.297 0.327,2.021 0.463,3.831 0.705,9.308 1.255,11.96 2.702,13.027 0.548,0.403 1.246,1.156 1.556,1.673 0.308,0.518 0.87,1.031 1.25,1.139 0.378,0.108 0.792,0.223 0.918,0.258 0.129,0.037 0.262,-0.256 0.297,-0.649 z m 32.453,1.894 c 2.517,-0.301 10.399,-1.377 20.683,-2.824 7.842,-1.104 24.205,-3.581 29.381,-4.449 9.163,-1.536 17.07,-2.805 20.083,-3.223 4.378,-0.606 5.08,-0.756 5.234,-1.108 0.15,-0.339 -0.296,-0.622 -3.357,-2.131 -3.828,-1.885 -7.845,-3.683 -11.268,-5.043 -1.849,-0.736 -4.742,-1.889 -6.427,-2.562 -3.438,-1.375 -8.569,-3.109 -11.366,-3.842 -8.919,-2.334 -14.19,-3.593 -21.335,-5.095 -7.175,-1.506 -8.399,-1.695 -8.811,-1.354 -0.264,0.219 -1.084,1.673 -1.822,3.233 -1.425,3.009 -4.145,8.17 -6.701,12.719 -0.853,1.516 -1.561,2.875 -1.572,3.019 -0.014,0.145 -0.708,1.441 -1.546,2.88 -0.838,1.439 -1.973,3.417 -2.525,4.395 -0.553,0.978 -1.463,2.474 -2.022,3.326 -0.561,0.854 -1.029,1.685 -1.043,1.851 -0.042,0.451 1.707,0.532 4.414,0.208 z m 141.055,0.676 c 1.724,-0.266 3.688,-1.908 4.056,-3.395 0.573,-2.316 0.819,-4.129 0.611,-4.531 -0.178,-0.353 -0.725,-0.383 -3.05,-0.164 -4.643,0.438 -8.285,1.154 -8.432,1.659 -0.247,0.837 0.87,4.058 1.818,5.242 0.782,0.976 1.159,1.191 2.256,1.289 0.724,0.067 1.956,0.021 2.741,-0.1 z m -58.514,-13.59 c 0.274,-0.41 0.222,-1.71 -0.197,-4.92 -0.313,-2.399 -0.718,-5.711 -0.9,-7.36 -0.398,-3.64 -0.687,-4.719 -1.274,-4.772 -0.871,-0.079 -3.809,2.988 -5.572,5.818 -1.417,2.276 -1.843,3.258 -2.13,4.92 -0.516,2.987 -0.26,3.549 2.347,5.094 1.966,1.166 2.466,1.328 4.777,1.54 2.213,0.203 2.629,0.158 2.949,-0.32 z m 7.599,-0.765 c 2.226,-0.405 4.338,-0.86 4.696,-1.009 0.771,-0.32 0.769,-0.483 -0.052,-7.12 -0.796,-6.463 -0.974,-6.969 -2.858,-8.226 -1.411,-0.94 -1.832,-1.062 -4.391,-1.268 -2.854,-0.23 -4.694,0.128 -5.076,0.988 -0.093,0.209 -0.06,1.09 0.076,1.958 0.132,0.868 0.371,2.641 0.532,3.938 0.16,1.299 0.502,4.021 0.764,6.048 0.259,2.029 0.438,4.041 0.398,4.471 -0.059,0.669 0.073,0.796 0.896,0.869 0.531,0.053 2.786,-0.241 5.015,-0.649 z m -19.723,-4.179 c -0.055,-2.244 1.973,-7.151 3.967,-9.604 1.332,-1.639 3.605,-3.528 4.835,-4.02 1.21,-0.484 1.276,-1.323 0.521,-6.365 -0.321,-2.154 -0.701,-5.25 -0.837,-6.878 -0.139,-1.629 -0.38,-3.06 -0.542,-3.177 -0.319,-0.234 -2.892,0.104 -9.4,1.243 -5.607,0.978 -6.405,1.251 -6.267,2.141 0.058,0.384 0.4,3.076 0.758,5.981 0.603,4.894 1.587,11.802 2.057,14.414 0.107,0.608 0.22,1.914 0.248,2.9 0.028,0.986 0.191,2.012 0.363,2.278 0.374,0.589 3.782,2.703 4.103,2.545 0.126,-0.061 0.215,-0.718 0.194,-1.458 z m 28.359,2.449 c 0.544,-0.223 2.142,-0.575 3.556,-0.783 1.411,-0.206 3.723,-0.562 5.138,-0.787 1.413,-0.228 3.942,-0.607 5.618,-0.844 9.144,-1.298 17.203,-2.7 17.657,-3.074 0.464,-0.378 0.481,-0.654 0.163,-2.563 -0.193,-1.175 -0.561,-3.836 -0.811,-5.914 -0.681,-5.612 -2.675,-23.038 -2.844,-24.843 l -0.146,-1.569 -1.262,-0.043 c -1.679,-0.057 -4.455,0.298 -12.338,1.573 -1.679,0.273 -4.858,0.775 -7.066,1.119 -2.21,0.343 -5.24,0.867 -6.735,1.164 -1.494,0.297 -4.968,0.892 -7.718,1.322 -2.753,0.429 -5.51,0.879 -6.131,0.998 -0.619,0.119 -2.063,0.338 -3.206,0.487 -1.142,0.149 -2.224,0.391 -2.4,0.537 -0.325,0.266 -0.27,0.973 0.724,8.932 0.861,6.903 0.861,6.903 2.43,6.771 2.155,-0.181 5.616,-0.02 7.585,0.356 3.523,0.669 4.606,2.283 5.301,7.887 0.195,1.589 0.448,3.458 0.559,4.153 0.108,0.693 0.127,2.108 0.038,3.142 -0.215,2.489 0.029,2.743 1.888,1.979 z m -34.353,-5.263 c -0.051,-0.792 -0.454,-3.665 -0.901,-6.385 -0.444,-2.719 -0.955,-6.429 -1.134,-8.241 -0.512,-5.183 -0.891,-8.268 -1.111,-9.045 -0.174,-0.618 -0.315,-0.682 -1.055,-0.479 -0.47,0.129 -2.173,0.395 -3.784,0.59 -1.611,0.195 -4.238,0.642 -5.838,0.992 -1.599,0.349 -4.651,1.006 -6.781,1.462 -2.132,0.455 -3.98,0.9 -4.106,0.991 -0.126,0.091 0.13,0.757 0.569,1.481 2.745,4.516 2.99,6.204 0.972,6.684 -1.899,0.452 -5.881,-0.076 -12.534,-1.662 -3.488,-0.832 -7.32,-1.734 -8.515,-2.003 -1.195,-0.27 -2.803,-0.632 -3.571,-0.807 -1.082,-0.246 -2.504,-0.13 -6.312,0.513 -4.984,0.841 -6.995,1.401 -6.749,1.884 0.074,0.146 3.843,0.68 8.375,1.185 8.685,0.967 12.241,1.658 22.811,4.438 13.44,3.535 17.208,4.746 24.781,7.964 2.264,0.964 4.311,1.778 4.545,1.813 0.33,0.049 0.405,-0.259 0.338,-1.375 z m 73.417,-0.691 c 1.3,-0.219 2.689,-0.371 3.086,-0.339 1.268,0.1 2.657,-0.643 2.729,-1.46 0.037,-0.407 -0.207,-2.631 -0.54,-4.942 -0.771,-5.326 -1.116,-7.926 -1.292,-9.71 -0.076,-0.776 -0.263,-2.474 -0.415,-3.772 -0.337,-2.87 -1.049,-10.087 -1.271,-12.875 -0.316,-3.966 -0.239,-3.757 -1.415,-3.863 -1.2,-0.107 -7.847,1.01 -9.23,1.554 -0.498,0.195 -0.913,0.454 -0.922,0.577 -0.036,0.388 0.456,4.74 1.156,10.29 1.201,9.492 1.691,13.734 2.249,19.451 l 0.545,5.604 1.478,-0.059 c 0.81,-0.032 2.541,-0.237 3.842,-0.456 z m 60.96,-50.68 c 0.058,-0.151 -0.067,-0.35 -0.279,-0.439 -0.21,-0.091 -0.4,0.067 -0.426,0.35 -0.046,0.521 0.516,0.593 0.705,0.089 z"
   style="fill:#fc5a00;fill-opacity:1" />
		</g>
	</g><g
   id="g26"
   style="fill:#004075;fill-opacity:1"
   transform="translate(-122.18719,-69.953333)">
		<path
   inkscape:connector-curvature="0"
   id="path8"
   d="M 214.167,235.676 H 198.296 V 253.9 h -14.552 v -48.685 h 35.202 v 11.592 h -20.65 v 7.917 h 15.871 z"
   style="fill:#004075;fill-opacity:1" />
		<path
   inkscape:connector-curvature="0"
   id="path10"
   d="M 255.995,241.952 V 253.9 h -34.132 v -48.685 h 14.944 v 36.735 z"
   style="fill:#004075;fill-opacity:1" />
		<path
   inkscape:connector-curvature="0"
   id="path12"
   d="M 274.32,205.217 V 253.9 h -14.944 v -48.685 z"
   style="fill:#004075;fill-opacity:1" />
		<path
   inkscape:connector-curvature="0"
   id="path14"
   d="M 321.206,226.616 V 253.9 h -7.312 c -0.595,-2.021 -1.249,-3.721 -1.962,-5.102 -3.02,3.9 -7.49,5.85 -13.41,5.85 -6.277,0 -11.437,-2.192 -15.479,-6.58 -4.042,-4.387 -6.063,-10.324 -6.063,-17.814 0,-7.275 1.956,-13.393 5.867,-18.35 3.911,-4.957 9.73,-7.437 17.458,-7.437 5.801,0 10.473,1.475 14.016,4.423 3.543,2.948 5.837,7.133 6.884,12.555 l -14.48,1.426 c -0.713,-5.064 -2.937,-7.597 -6.669,-7.597 -4.898,0 -7.347,4.661 -7.347,13.981 0,5.635 0.785,9.351 2.354,11.146 1.569,1.794 3.471,2.692 5.707,2.692 1.807,0 3.347,-0.547 4.619,-1.641 1.272,-1.094 1.92,-2.591 1.944,-4.494 h -8.061 v -10.343 z"
   style="fill:#004075;fill-opacity:1" />
		<path
   inkscape:connector-curvature="0"
   id="path16"
   d="M 365.275,205.217 V 253.9 H 350.332 V 234.962 H 338.919 V 253.9 h -14.944 v -48.685 h 14.944 v 17.904 h 11.413 v -17.904 z"
   style="fill:#004075;fill-opacity:1" />
		<path
   inkscape:connector-curvature="0"
   id="path18"
   d="m 392.057,216.88 v 37.02 h -14.158 v -37.02 h -10.094 v -11.663 h 34.347 v 11.663 z"
   style="fill:#004075;fill-opacity:1" />
		<path
   inkscape:connector-curvature="0"
   id="path20"
   d="M 450.787,241.952 V 253.9 H 416.655 V 205.215 H 431.6 v 36.735 z"
   style="fill:#004075;fill-opacity:1" />
		<path
   inkscape:connector-curvature="0"
   id="path22"
   d="m 473.188,254.648 c -6.848,0 -12.43,-2.271 -16.744,-6.813 -4.315,-4.541 -6.475,-10.615 -6.475,-18.225 0,-7.275 2.063,-13.285 6.188,-18.029 4.125,-4.743 9.849,-7.115 17.173,-7.115 6.776,0 12.298,2.235 16.566,6.705 4.268,4.471 6.401,10.438 6.401,17.904 0,7.728 -2.151,13.922 -6.456,18.582 -4.303,4.661 -9.853,6.991 -16.653,6.991 z m -0.071,-11.055 c 2.52,0 4.333,-1.1 5.438,-3.299 1.105,-2.199 1.658,-6.224 1.658,-12.072 0,-8.465 -2.271,-12.697 -6.812,-12.697 -4.898,0 -7.349,4.827 -7.349,14.48 0.003,9.058 2.357,13.588 7.065,13.588 z"
   style="fill:#004075;fill-opacity:1" />
		<path
   inkscape:connector-curvature="0"
   id="path24"
   d="M 542.639,226.616 V 253.9 h -7.312 c -0.595,-2.021 -1.248,-3.721 -1.962,-5.102 -3.021,3.9 -7.489,5.85 -13.41,5.85 -6.277,0 -11.438,-2.192 -15.479,-6.58 -4.043,-4.387 -6.063,-10.324 -6.063,-17.814 0,-7.275 1.956,-13.393 5.867,-18.35 3.911,-4.957 9.729,-7.437 17.458,-7.437 5.802,0 10.474,1.475 14.017,4.423 3.543,2.948 5.837,7.133 6.884,12.555 l -14.479,1.426 c -0.713,-5.064 -2.938,-7.597 -6.669,-7.597 -4.898,0 -7.349,4.661 -7.349,13.981 0,5.635 0.785,9.351 2.354,11.146 1.569,1.794 3.471,2.692 5.706,2.692 1.807,0 3.347,-0.547 4.619,-1.641 1.271,-1.094 1.919,-2.591 1.942,-4.494 h -8.061 v -10.343 z"
   style="fill:#004075;fill-opacity:1" />
	</g>
<g
   id="Layer_2"
   transform="translate(-122.18719,-69.953333)">
</g>
</svg>