<?xml version="1.0" encoding="iso-8859-1"?>
<!-- Generator: Adobe Illustrator 19.0.0, SVG Export Plug-In . SVG Version: 6.00 Build 0)  -->
<svg version="1.1" id="Layer_1" xmlns="http://www.w3.org/2000/svg" xmlns:xlink="http://www.w3.org/1999/xlink" x="0px" y="0px"
	 viewBox="0 0 512 512" style="enable-background:new 0 0 512 512;" xml:space="preserve">
<g>
	<g>
		<path d="M51.896,0C29.872,0,12.278,15.04,11.391,45.385c-1.843,62.286,23.268,138.855,74.56,187.173
			c18.887-41.158,56.143-73.09,102.566-83.879C164.549,63.988,96.424,0,51.896,0z"/>
	</g>
</g>
<g>
	<g>
		<path d="M500.609,45.385C499.717,14.833,481.917,0,460.104,0c-44.545,0-112.701,64.035-136.645,148.771
			c43.932,10.327,82.604,40.817,102.332,84.047C477.264,184.514,502.457,107.78,500.609,45.385z"/>
	</g>
</g>
<g>
	<g>
		<path d="M405.998,328.486v-33.553c0-64.448-52.43-116.882-116.882-116.882H222.5c-64.452,0-116.882,52.434-116.882,116.882v33.553
			c-20.233,15.249-33.395,39.4-33.395,66.632c0.001,46.038,37.45,83.487,83.488,83.487h33.395
			c15.632,20.791,40.32,33.363,66.724,33.395c26.362-0.032,51.049-12.604,66.681-33.395h33.395c46.037,0,83.487-37.45,83.487-83.487
			C439.393,367.886,426.231,343.734,405.998,328.486z M189.018,294.933c0-9.221,7.477-16.697,16.697-16.697
			c9.221,0,16.697,7.476,16.697,16.697s-7.476,16.697-16.697,16.697S189.018,304.155,189.018,294.933z M255.83,478.605
			c-10.444-0.013-20.399-3.388-28.696-9.219c11.305-5.782,21.125-13.965,28.674-23.98c7.553,10.018,17.376,18.204,28.686,23.985
			C276.202,475.223,266.249,478.593,255.83,478.605z M300.921,373.529l-33.308,33.308c-3.262,3.262-7.534,4.892-11.805,4.892
			c-4.271,0-8.545-1.631-11.805-4.892l-33.308-33.308c-6.522-6.516-6.522-17.094,0-23.611c6.522-6.523,17.089-6.523,23.611,0
			l21.502,21.502l21.502-21.502c6.522-6.522,17.089-6.522,23.611,0C307.443,356.435,307.443,367.012,300.921,373.529z
			 M305.9,311.631c-9.221,0-16.697-7.476-16.697-16.697s7.477-16.697,16.697-16.697c9.221,0,16.697,7.476,16.697,16.697
			S315.122,311.631,305.9,311.631z"/>
	</g>
</g>
<g>
</g>
<g>
</g>
<g>
</g>
<g>
</g>
<g>
</g>
<g>
</g>
<g>
</g>
<g>
</g>
<g>
</g>
<g>
</g>
<g>
</g>
<g>
</g>
<g>
</g>
<g>
</g>
<g>
</g>
</svg>
