<?xml version="1.0"?><svg width="640" height="480" xmlns="http://www.w3.org/2000/svg">
 <metadata id="metadata3854">image/svg+xml</metadata>
 <g>
  <path fill="#d82e04" id="path3881" d="m255.975693,258.23761c-3.04364,-0.611755 -6.130569,-3.651276 -8.106613,-7.982224c-1.342621,-2.942703 -1.318954,-9.956863 0.04512,-13.337204c0.994568,-2.464752 3.445679,-5.549698 4.4095,-5.549698c0.299026,0 0.901199,-0.446686 1.338287,-0.992661c0.742783,-0.928055 0.756775,-1.160446 0.21492,-3.565567c-0.318832,-1.415085 -0.893738,-4.284012 -1.277603,-6.375412l-0.697861,-3.802597l-1.249283,0.182434c-0.687042,0.100342 -3.954849,0.751862 -7.261765,1.447876c-3.306915,0.695953 -9.278,1.922272 -13.269073,2.725174c-8.981812,1.806885 -13.922287,2.900757 -17.41568,3.856049c-1.482407,0.405396 -4.188034,1.043488 -6.012543,1.418015c-5.328735,1.093887 -8.880981,1.835724 -12.647095,2.641235c-1.938522,0.414612 -5.297272,1.0802 -7.463882,1.479065c-2.16655,0.39888 -4.233795,0.967392 -4.593872,1.263321c-0.360031,0.295929 -1.292984,0.539093 -2.073257,0.54039c-2.947723,0.004715 -19.69371,3.32962 -20.435318,4.05722c-0.19635,0.192596 -0.409973,1.983978 -0.474808,3.980804c-0.200653,6.18335 -2.785202,10.089615 -7.805344,11.796783c-2.652756,0.902115 -10.014008,1.006088 -12.510437,0.176712c-3.162079,-1.050476 -6.31485,-4.864182 -7.059601,-8.539352l-0.467209,-2.305984l-3.078491,-0.090424c-11.757774,-0.345261 -21.924141,-1.603088 -28.713257,-3.55246c-4.52256,-1.298569 -4.773727,-1.410416 -5.043556,-2.245972c-0.55352,-1.713699 0.739784,-2.535263 4.762154,-3.025269c4.572929,-0.557037 23.382462,-3.640045 26.319717,-4.31398c1.868851,-0.428802 2.775284,-1.380753 2.502357,-2.628052c-0.102425,-0.468002 -0.83181,-3.509811 -1.620895,-6.759552c-2.277534,-9.380188 -3.980293,-17.141479 -3.980293,-18.142975c0,-0.507797 -0.379341,-2.130219 -0.843048,-3.605484c-0.463676,-1.47525 -0.980141,-3.740829 -1.147659,-5.034698c-0.35685,-2.755432 0.106766,-2.661713 -6.924438,-1.399506c-6.894768,1.237671 -14.305092,1.544373 -17.553711,0.726532c-1.443359,-0.363403 -3.215584,-0.662354 -3.9384,-0.664368c-0.722794,-0.001587 -3.086815,-0.440048 -5.253403,-0.973312c-2.16658,-0.533203 -4.872231,-1.093094 -6.01255,-1.244095c-1.140297,-0.151001 -3.379417,-0.6483 -4.975876,-1.105103c-3.510033,-1.004257 -4.768654,-1.292099 -9.329803,-2.13353c-4.103935,-0.757156 -5.528736,-1.847458 -5.309517,-4.062927c0.11515,-1.162827 0.32827,-1.335205 2.406879,-1.94632c1.25436,-0.368774 5.639355,-1.245834 9.744511,-1.948975c4.105103,-0.703125 9.516411,-1.724945 12.025063,-2.270706c2.508698,-0.545761 6.333931,-1.277115 8.500526,-1.625168c4.805664,-0.772125 8.590302,-1.548813 15.227402,-3.125076c2.787567,-0.662048 5.959679,-1.357071 7.049232,-1.544495c1.089447,-0.187515 3.473625,-0.733582 5.298157,-1.213608c2.793961,-0.735016 7.375641,-1.712341 17.415695,-3.715088c0.912231,-0.181992 3.151398,-0.800156 4.975845,-1.37384c1.824509,-0.573608 3.877106,-1.045898 4.561295,-1.049515c0.684143,-0.003189 2.923325,-0.475067 4.975891,-1.047638c2.052536,-0.572571 5.504593,-1.469666 7.671143,-1.993561c9.949951,-2.405914 15.846207,-3.984009 16.895798,-4.522049c0.628021,-0.321945 1.49678,-0.586502 1.930603,-0.587906c0.433777,-0.001175 3.139389,-0.636261 6.012543,-1.410782c2.873093,-0.774612 6.716629,-1.703049 8.541122,-2.063278c1.824463,-0.360168 6.022888,-1.388626 9.329788,-2.285385c3.3069,-0.896683 6.945541,-1.87677 8.085831,-2.177963c3.923157,-1.036041 12.444595,-3.538452 15.342377,-4.505402c1.59642,-0.532684 4.488708,-1.353912 6.4272,-1.824936c3.601196,-0.875046 11.806458,-3.274933 17.461258,-5.107132c1.735535,-0.562363 4.534439,-1.388885 6.219833,-1.836899c1.685425,-0.447952 3.437592,-0.985748 3.893707,-1.195099c0.456116,-0.209305 3.348389,-1.013748 6.427246,-1.787628c11.809784,-2.968269 19.15741,-5.066933 29.440765,-8.409073c2.622711,-0.852402 6.261322,-1.954605 8.085846,-2.449394c1.824463,-0.494728 4.996582,-1.419655 7.049194,-2.055283c2.052521,-0.635658 6.250946,-1.883728 9.329803,-2.773521c5.208344,-1.505219 9.750824,-2.86705 23.428192,-7.023857c2.964844,-0.901047 6.976654,-2.198784 8.915192,-2.883904c1.938507,-0.685081 5.017365,-1.657997 6.841858,-2.162079c1.824493,-0.504089 4.250244,-1.232224 5.390533,-1.618134c1.14035,-0.385925 3.635925,-1.149536 5.545807,-1.696884c1.909882,-0.547432 4.242371,-1.33728 5.183197,-1.755241c3.9039,-1.734024 6.91391,-2.862617 10.833282,-4.062119c7.205017,-2.205086 15.741211,-5.026726 16.171692,-5.345627c0.228027,-0.168945 1.040253,-0.438728 1.804962,-0.599541c0.764648,-0.16082 3.65686,-1.203796 6.427185,-2.317764c2.770264,-1.113937 6.623016,-2.467789 8.561493,-3.008461c1.938568,-0.540726 5.110687,-1.544022 7.049194,-2.22953c1.938538,-0.685585 8.656006,-2.963264 14.927734,-5.061661c16.525635,-5.529007 17.82251,-5.967171 20.110962,-6.795471c1.140259,-0.41275 3.379425,-1.036652 4.975861,-1.386497c3.327881,-0.729294 7.6828,-1.955391 10.988495,-3.093773c2.489441,-0.857258 4.037109,-1.153404 12.439728,-2.380325c11.724426,-1.711922 28.932922,-0.753956 47.893066,2.666122c12.186584,2.19825 15.00946,2.940125 16.683594,4.38459c1.291931,1.1147 1.419128,1.407982 1.225647,2.8255c-0.251831,1.845131 -1.142395,2.936615 -3.264404,4.000923c-1.899231,0.952553 -7.733215,3.061623 -10.498169,3.795128c-1.14032,0.302528 -4.405762,1.21666 -7.25647,2.031433c-2.85083,0.814735 -6.116272,1.745338 -7.256592,2.068092c-1.14032,0.322693 -5.618591,1.429169 -9.951782,2.4589c-11.016541,2.617928 -16.020691,3.875702 -17.092163,4.29615c-1.705963,0.669395 -6.117676,1.743248 -7.580048,1.845062c-3.091797,0.215317 -10.573181,2.334747 -14.510529,4.110809c-2.972473,1.34079 -2.949982,0.212296 -0.234314,11.752289c0.369202,1.568871 0.937897,4.319397 1.263885,6.112366c0.325928,1.792961 1.161407,5.9188 1.85675,9.168556c0.695313,3.249687 1.84668,9.025871 2.558655,12.835945c0.711945,3.810013 1.428223,7.073303 1.591644,7.25174c0.336121,0.366989 5.433533,-0.890717 9.691284,-2.391129c4.27832,-1.507675 10.099762,-2.212875 18.201843,-2.204895c8.943298,0.009491 13.772522,0.499954 17.635254,1.793365c5.084534,1.702545 6.364258,3.175308 5.714783,6.577118c-0.346069,1.813034 -3.098694,3.70929 -6.825562,4.702087c-1.503845,0.400665 -5.253357,1.489761 -8.332275,2.420273c-5.88678,1.779205 -8.996094,2.601486 -15.134979,4.00267c-2.052612,0.468506 -6.087524,1.406479 -8.966492,2.084381c-2.879028,0.677902 -5.524658,1.232544 -5.879303,1.232544c-1.533752,0 -1.947937,1.135284 -1.947937,5.339569c0,2.51825 -0.216034,4.566895 -0.569061,5.397293c-0.807617,1.899368 -3.49585,4.269226 -5.443542,4.798828c-1.631195,0.443558 -6.799225,0.252151 -8.28125,-0.306717c-1.121643,-0.422974 -3.052795,-3.707321 -3.981201,-6.770767c-0.471649,-1.556366 -1.067413,-2.753342 -1.370361,-2.753342c-0.294769,0 -1.639679,0.345917 -2.988678,0.768707c-4.74939,1.48851 -11.179077,3.249466 -12.819214,3.510956c-0.912262,0.145462 -2.778229,0.622833 -4.146637,1.060852c-1.368378,0.438019 -6.677673,1.807846 -11.79834,3.044098c-5.120758,1.236252 -9.552399,2.445114 -9.848206,2.68634c-0.349152,0.284805 -0.537689,1.46463 -0.537689,3.365021c0,2.548721 -0.159912,3.17424 -1.238403,4.845535c-2.100952,3.255646 -6.054016,5.146973 -13.689301,6.549667c-7.003296,1.286606 -11.059967,1.968857 -14.927704,2.510544c-2.166626,0.303436 -5.245453,0.734238 -6.841858,0.957321c-1.596436,0.223068 -6.354645,0.869202 -10.573792,1.435776c-4.219208,0.566589 -9.723785,1.316284 -12.232452,1.665909c-2.508667,0.349655 -6.054016,0.801834 -7.87851,1.004929c-1.824524,0.203049 -5.089966,0.570587 -7.256561,0.816727c-2.166565,0.24614 -5.711884,0.615356 -7.87851,0.820572c-10.006439,0.947601 -16.898712,1.653137 -18.037659,1.846512c-0.684174,0.116135 -2.456848,0.28125 -3.93924,0.366898c-1.482391,0.085663 -4.160858,0.400757 -5.952118,0.700302c-4.861267,0.812958 -4.697052,0.385254 -4.986328,12.986557c-0.197205,8.588928 -0.126862,10.841919 0.407257,13.032745c0.91037,3.734711 0.90567,12.298447 -0.008057,14.447098c-1.108368,2.606934 -2.580719,4.168884 -4.981995,5.285187c-2.61322,1.214935 -5.242432,1.357162 -7.642426,0.413467c-2.525452,-0.992996 -5.604034,-5.239929 -6.136536,-8.465363c-0.141907,-0.859619 -0.520813,-1.662109 -0.84201,-1.783188c-0.321167,-0.121201 -1.647552,-0.019882 -2.947571,0.225006c-1.299988,0.244858 -4.882721,0.830078 -7.961548,1.30043c-3.078827,0.470428 -6.717468,1.13028 -8.085846,1.466415c-1.368347,0.336105 -3.312286,0.782745 -4.319824,0.992569c-1.007568,0.209793 -1.914337,0.462479 -2.015106,0.561478c-0.1008,0.099091 -0.269714,1.581924 -0.375488,3.295349c-0.106262,1.722946 -0.537781,3.907471 -0.965332,4.887756c-0.877045,2.010681 -3.62204,4.894028 -5.298889,5.565964c-1.653656,0.662628 -4.675476,1.01297 -6.161407,0.714355l0.000107,0l0.000061,0zm-104.352844,-9.717896l3.352768,-1.593338l0.840149,-2.58345c0.462082,-1.420853 0.953934,-3.532333 1.092987,-4.692154c0.223038,-1.859863 0.156525,-2.138718 -0.564102,-2.363495c-0.449371,-0.140106 -3.952606,0.318512 -7.785019,1.019241c-3.832397,0.700684 -8.180862,1.434692 -9.663269,1.630997c-3.925903,0.52002 -5.392426,1.110672 -5.38147,2.16748c0.01445,1.412277 1.419952,4.019485 3.040131,5.640121c1.764587,1.765167 3.552322,2.261276 8.375809,2.32428c3.08017,0.040253 3.599289,-0.079971 6.691986,-1.549713l0.000031,0.000031zm158.215195,-3.357452c2.388672,-1.232742 3.625763,-8.663513 2.170166,-13.035629c-2.649048,-7.957199 -7.743225,-10.085999 -11.293549,-4.719528c-1.086914,1.642929 -1.138062,1.949112 -1.138062,6.813858c0,4.994858 0.025879,5.137619 1.334534,7.361862c1.479218,2.514206 2.327698,3.396271 3.857239,4.009918c1.084076,0.434967 3.847351,0.200302 5.069702,-0.430511l-0.000031,0.000031zm-1.85495,-8.394501c-1.443878,-1.61586 -1.21579,-4.084808 0.458801,-4.965515c1.072845,-0.564224 1.900513,-0.219376 2.481659,1.034073c0.648621,1.398941 0.589386,2.666931 -0.174683,3.738892c-0.77533,1.08786 -1.896057,1.165863 -2.765778,0.192551zm-38.027313,3.551224c0.441162,-0.23204 0.802063,-0.841324 0.802063,-1.354034c0,-0.512695 -1.049133,-5.319748 -2.33136,-10.682297c-1.282288,-5.362518 -2.511322,-10.699234 -2.731232,-11.85936c-0.21994,-1.16008 -0.616943,-2.186783 -0.882263,-2.281494c-0.483459,-0.172577 -8.194519,1.033829 -9.791443,1.531921c-1.045395,0.326065 -1.136475,2.309662 -0.239395,5.214981c0.330887,1.071732 0.799637,3.088837 1.04158,4.482391c0.773041,4.451965 0.669159,4.268539 2.59671,4.584518c4.251862,0.696899 6.750763,2.90123 8.646179,7.626709c0.812744,2.026352 1.494965,3.158447 1.90329,3.158447c0.101166,0 0.544739,-0.189804 0.98587,-0.421768l0,-0.000015zm5.910614,-1.396698c0.75769,-0.744583 1.33194,-3.328171 1.905426,-8.572495c0.245056,-2.241196 0.72644,-6.568588 1.069702,-9.61644c0.343323,-3.047852 0.624146,-6.373001 0.624146,-7.389206c0,-1.63147 -0.117523,-1.86972 -1.004486,-2.036362c-0.55249,-0.103821 -2.185211,0.054459 -3.628265,0.351532c-1.443054,0.297089 -3.10907,0.544006 -3.702179,0.548676c-0.59314,0.004715 -1.666077,0.209793 -2.384277,0.455841c-1.69165,0.579529 -1.683289,1.022949 0.164215,8.721176c0.806824,3.361816 1.739288,7.487656 2.072205,9.168579c1.72641,8.716705 1.812103,8.964752 3.097961,8.964752c0.648468,0 1.451935,-0.268219 1.785553,-0.596054zm8.943115,-1.408386c1.456696,-0.261978 3.289795,-0.739639 4.073517,-1.061417c1.683929,-0.691437 1.678192,-0.729568 -0.891571,-5.898926c-0.946991,-1.90506 -2.536499,-5.389099 -3.532257,-7.74234c-2.854065,-6.745026 -3.119415,-6.75798 -3.782898,-0.184586c-0.247772,2.454788 -0.808105,6.766464 -1.245209,9.581558c-0.437103,2.815094 -0.794739,5.354874 -0.794739,5.644012c0,0.579102 1.54245,0.494568 6.173157,-0.338303zm8.968628,-1.673691c0.144684,-0.230026 0.314697,-1.930145 0.377808,-3.778061c0.170929,-5.002884 2.023987,-8.517288 5.10968,-9.690872c1.474548,-0.560806 1.419098,-0.814346 -2.286041,-10.452515c-0.881439,-2.292908 -1.698547,-4.263214 -1.815857,-4.378494c-0.250519,-0.246185 -11.32605,2.050339 -12.691772,2.631653c-1.357483,0.577805 -1.175781,1.573639 1.098267,6.019485c2.396027,4.684235 8.533112,17.832718 8.938354,19.150162c0.300079,0.975449 0.837067,1.18631 1.269562,0.498642zm-156.333038,-10.310532c1.59642,-0.348801 5.421616,-1.110382 8.500443,-1.692474c6.789139,-1.283493 7.87854,-1.667099 7.87854,-2.77417c0,-0.458847 -0.453171,-2.591171 -1.00708,-4.738541c-0.553864,-2.147354 -1.310471,-5.279572 -1.68129,-6.960434c-0.370865,-1.680923 -0.941574,-4.068451 -1.268295,-5.305664c-0.326706,-1.237213 -0.76149,-3.070908 -0.966187,-4.07489c-0.204651,-1.003998 -0.953461,-4.467438 -1.663895,-7.696533c-0.71051,-3.229141 -1.291809,-6.473099 -1.291809,-7.208939c0,-0.735779 -0.180511,-1.447403 -0.401154,-1.58139c-0.220581,-0.133957 -2.319748,0.300125 -4.664917,0.964691c-2.345047,0.664536 -6.689484,1.694183 -9.654297,2.288025c-7.555115,1.513214 -8.437027,1.768021 -8.860184,2.559601c-0.253174,0.473511 0.004799,2.014893 0.794243,4.774231c0.642494,2.24115 1.564316,6.275299 2.048615,8.964783c0.484337,2.689423 1.697594,8.373901 2.696243,12.632172c0.998634,4.258255 1.944664,8.38414 2.102196,9.168549c0.157455,0.784409 0.457443,1.533478 0.666504,1.664597c0.418442,0.262512 2.358047,-0.019257 6.772293,-0.983612l0.000031,0zm174.110443,-10.878738c0.159119,-4.936401 0.162689,-9.176544 0.008057,-9.422546c-0.183868,-0.292313 -1.015839,-0.349808 -2.402191,-0.16597c-1.166534,0.154602 -3.541107,0.437347 -5.276855,0.628113c-3.825806,0.420547 -6.588531,1.189651 -6.588531,1.834137c0,0.262131 0.672241,2.11264 1.493896,4.112305c0.821625,1.999634 2.020111,4.91925 2.6633,6.488083l1.169403,2.852463l2.017639,0.250595c2.023102,0.251297 4.403259,1.219528 4.886383,1.987701c0.141907,0.225693 0.591431,0.410385 0.998901,0.410385c0.680115,0 0.764496,-0.735199 1.03006,-8.975296l-0.000061,0l0,0.000031zm-150.819412,6.362076c1.329834,-0.316666 6.802811,-1.517624 12.162277,-2.668777c5.359451,-1.151169 11.703751,-2.53862 14.098389,-3.083282c2.394684,-0.544601 5.367233,-1.178909 6.605743,-1.4095c2.901459,-0.540298 3.875336,-1.375153 3.541702,-3.036438c-0.330719,-1.646637 -1.693832,-7.584412 -2.905624,-12.656952c-1.268982,-5.311798 -3.985626,-17.842361 -4.549774,-20.985748c-0.48645,-2.710693 -1.085968,-3.755554 -2.03157,-3.540802c-0.47728,0.108383 -4.972916,1.204163 -9.990265,2.435089c-5.017365,1.230865 -10.428696,2.463501 -12.025131,2.739166c-1.596405,0.275604 -4.488678,0.911041 -6.427185,1.412048c-1.938538,0.500946 -4.83078,1.13475 -6.4272,1.408386c-4.095566,0.702026 -5.183243,1.172363 -5.183243,2.241241c0,0.490311 1.226334,5.648224 2.725266,11.462189c1.498856,5.813919 2.891083,11.39592 3.093781,12.404465c0.202652,1.00856 0.931488,4.492599 1.619598,7.742294c0.68811,3.249725 1.255203,5.954483 1.260162,6.010529c0.024872,0.2798 2.280655,0.03862 4.433105,-0.473892l-0.000031,-0.000015zm43.254211,-9.770187c2.854019,-0.891388 10.257675,-2.666321 14.313171,-3.431427c1.512177,-0.285233 1.670761,-0.436569 1.795593,-1.713455c0.075317,-0.770355 -0.156204,-2.596939 -0.514557,-4.059006c-0.358353,-1.462128 -1.205185,-5.500626 -1.881958,-8.974503c-1.379807,-7.082687 -2.390823,-11.880753 -3.941254,-18.704391c-0.580627,-2.555328 -1.055695,-5.065826 -1.055695,-5.578964c0,-0.513138 -0.183548,-1.044434 -0.407959,-1.180679c-0.350662,-0.213028 -3.727646,0.609436 -11.617172,2.829193c-1.026245,0.288757 -3.358704,0.938309 -5.183212,1.443451c-1.824493,0.505142 -3.574631,0.990585 -3.889145,1.078796c-0.773621,0.216965 -0.663025,0.824982 2.991669,16.44519c1.704224,7.283859 3.527054,15.39801 4.05069,18.031433c0.720062,3.621368 1.106842,4.787994 1.587265,4.787994c0.34935,0 2.037994,-0.43811 3.752594,-0.973633l-0.000031,0zm30.277542,-7.012344c5.860016,-1.153137 7.256531,-1.575394 7.256531,-2.19429c0,-0.375534 -1.845825,-1.369156 -4.975906,-2.678543c-11.487488,-4.805527 -12.34816,-5.417709 -12.858276,-9.14563c-0.137878,-1.00856 -0.515198,-3.02565 -0.838242,-4.482391c-0.32309,-1.456787 -1.070541,-4.849121 -1.661148,-7.538544c-0.590561,-2.689468 -1.342331,-6.081787 -1.670609,-7.538574c-0.328278,-1.456787 -0.59639,-3.244659 -0.59581,-3.973068c0.000397,-0.728363 -0.16066,-1.324326 -0.358261,-1.324326c-0.77504,0 -4.616562,1.760452 -4.616562,2.115631c0,0.207321 0.574341,2.612564 1.276337,5.344879c0.701981,2.732376 2.101089,9.093781 3.109161,14.136444c1.008011,5.042725 2.005417,9.902008 2.216507,10.798538c0.211044,0.896469 0.614609,3.005219 0.896835,4.686096c0.282227,1.680908 0.662933,3.25032 0.846039,3.48761c0.324707,0.420868 3.533279,-0.032959 11.973373,-1.693832l0.000031,0zm109.921631,-5.657974c3.514587,-0.332336 8.349396,-0.887314 10.744049,-1.233307c2.394653,-0.346008 6.126587,-0.816635 8.293182,-1.045822c6.898376,-0.729813 16.517151,-1.987778 18.44455,-2.412231c1.543304,-0.33989 11.144592,-1.684387 26.338593,-3.688293c4.364532,-0.575592 6.972839,-1.140381 10.322968,-2.235123c6.65387,-2.174408 8.33667,-3.870117 8.33667,-8.400757c0,-1.53569 -0.130341,-2.79213 -0.289581,-2.79213c-0.159271,0 -1.885284,0.457382 -3.835571,1.016403c-1.950287,0.559021 -4.478973,1.282623 -5.619293,1.607971c-1.14035,0.325409 -4.312439,1.064163 -7.049225,1.641678c-2.736725,0.57756 -6.375366,1.411575 -8.085846,1.853439c-1.710449,0.441879 -3.949615,0.985275 -4.975891,1.20752c-2.557556,0.553864 -11.893341,2.853653 -21.354919,5.26059c-4.333191,1.102341 -10.490845,2.592392 -13.683746,3.311325c-13.461914,3.031006 -24.67218,5.829636 -24.67218,6.159363c0,0.445633 -0.4422,0.461273 7.086273,-0.250626l-0.000031,0zm-88.35939,-8.486359c0,-0.517441 0.273972,-1.296829 0.608841,-1.731857c0.334839,-0.435043 0.612427,-1.249405 0.616913,-1.809723c0.012848,-1.676651 3.32962,-16.412247 3.970825,-17.644272c0.535706,-1.029175 1.486877,-4.909515 3.366211,-13.732437c0.358063,-1.680862 1.128204,-4.666595 1.711487,-6.634918c1.324341,-4.46907 1.226471,-4.605942 -2.875854,-4.021515c-10.74678,1.531097 -12.099396,1.884842 -15.503616,4.054779c-3.493622,2.22699 -5.694946,4.718979 -5.407974,6.122086c0.12265,0.59996 0.508835,3.167801 0.858047,5.706375c0.349243,2.538574 0.790176,4.922379 0.979935,5.297379c0.189651,0.374985 0.665756,2.607178 1.057907,4.960464c2.016663,12.102524 3.048691,15.510162 5.068848,16.737122c0.762878,0.463303 1.76738,1.36731 2.232254,2.008835c0.46489,0.641632 1.261215,1.245529 1.769714,1.342072c0.508484,0.096542 1.064453,0.200424 1.235458,0.230972c0.171066,0.030487 0.311005,-0.367859 0.311005,-0.885361zm42.709854,-1.337372c3.260162,-0.69046 13.452728,-3.026703 26.745514,-6.130325c10.134216,-2.366135 31.267426,-7.534042 37.941254,-9.278076c11.815918,-3.08783 22.02002,-5.678955 25.916168,-6.580963c5.657166,-1.309692 6.558167,-1.586594 6.720703,-2.065796c0.156677,-0.461807 -0.460236,-0.779556 -4.64743,-2.394119c-5.232513,-2.017593 -10.703583,-3.899628 -15.342377,-5.27774c-2.508698,-0.745316 -6.431396,-1.915115 -8.717163,-2.599564c-4.660553,-1.395523 -11.582367,-3.0625 -15.333008,-3.692673c-11.948975,-2.007568 -18.99704,-3.035675 -28.529266,-4.161423c-9.570374,-1.13028 -11.194153,-1.23259 -11.694275,-0.736923c-0.319427,0.31662 -1.221741,2.317642 -2.005188,4.446808c-1.511322,4.107254 -4.464905,11.185501 -7.277557,17.440567c-0.937256,2.084335 -1.704071,3.945862 -1.704071,4.136826c0,0.190918 -0.75769,1.969574 -1.683777,3.952637c-0.926086,1.983032 -2.181366,4.705704 -2.789581,6.050446c-0.608185,1.344742 -1.623138,3.411774 -2.255493,4.593491c-0.632324,1.181656 -1.149689,2.327728 -1.149689,2.546814c0,0.59166 2.298767,0.492706 5.805237,-0.249954l0,-0.000031zm184.749329,-15.698563c2.227051,-0.551071 4.603973,-2.932236 4.911469,-4.920258c0.479736,-3.101746 0.588074,-5.501923 0.270996,-6.006058c-0.277893,-0.441879 -0.994598,-0.416107 -4.013794,0.144409c-6.026794,1.118759 -10.711212,2.485504 -10.846436,3.164612c-0.22403,1.124985 1.619598,5.210037 3.000763,6.649139c1.137726,1.185501 1.655273,1.422867 3.10257,1.422867c0.955322,0 2.563812,-0.20459 3.574371,-0.454681l0,-0.000046l0.000061,0.000015zm-78.204926,-10.91304c0.309662,-0.568588 0.088135,-2.265213 -0.837891,-6.417923c-0.692352,-3.104797 -1.610992,-7.393585 -2.041443,-9.530731c-0.950378,-4.718567 -1.454559,-6.097824 -2.229156,-6.097824c-1.151672,0 -4.637299,4.359985 -6.613159,8.272095c-1.58905,3.146362 -2.030579,4.482864 -2.210724,6.692612c-0.323883,3.972092 0.080933,4.677048 3.671387,6.393707c2.710968,1.296173 3.383392,1.448166 6.433716,1.454239c2.924408,0.006302 3.465912,-0.10257 3.827271,-0.76619l0,0.000015zm9.857819,-1.892822c2.866882,-0.793854 5.580841,-1.6371 6.031067,-1.873901c0.970642,-0.510498 0.950043,-0.722443 -0.903564,-9.314972c-1.805237,-8.36792 -2.095154,-9.009995 -4.711151,-10.433167c-1.958282,-1.065414 -2.52243,-1.17482 -5.897308,-1.143524c-3.763275,0.034866 -6.129242,0.719818 -6.529358,1.890244c-0.097443,0.284851 0.049591,1.434769 0.326721,2.555374c0.277069,1.120605 0.799835,3.41272 1.161713,5.093643c0.361847,1.680878 1.130951,5.204025 1.709106,7.829224c0.578125,2.625183 1.051086,5.238235 1.051086,5.806747c0,0.882339 0.186584,1.033646 1.274567,1.033646c0.70105,0 3.62027,-0.649506 6.487091,-1.443298l0.000031,-0.000015zm-26.308899,-3.15657c-0.33609,-2.93013 1.739685,-9.593918 4.061615,-13.038712c1.551544,-2.30191 4.304596,-5.043442 5.856812,-5.83223c1.526947,-0.77594 1.518341,-1.882813 -0.065063,-8.393967c-0.676483,-2.78196 -1.534088,-6.790024 -1.905792,-8.906754c-0.371674,-2.116768 -0.859222,-3.960098 -1.083405,-4.096413c-0.442719,-0.269005 -3.77063,0.478668 -12.159729,2.731903c-7.225647,1.940788 -8.23819,2.391663 -7.95282,3.541092c0.123108,0.496185 0.886536,3.979713 1.69632,7.741234c1.364288,6.336807 3.465729,15.264053 4.385254,18.629028c0.214355,0.784409 0.515381,2.47998 0.669037,3.767944c0.153656,1.287903 0.487091,2.611313 0.740845,2.940964c0.559021,0.726089 5.272034,3.093384 5.67337,2.84964c0.157013,-0.095276 0.194641,-0.965546 0.083649,-1.933746l-0.000092,0l0,0.000015zm37.414246,-0.126541c0.684204,-0.355591 2.736755,-1.004272 4.561249,-1.441528c1.824524,-0.437241 4.810059,-1.173508 6.634521,-1.636139c1.824493,-0.462677 5.089966,-1.257141 7.256531,-1.765625c11.817841,-2.773254 22.205353,-5.557297 22.756866,-6.099319c0.560272,-0.550598 0.550812,-0.912247 -0.088165,-3.374191c-0.393646,-1.516632 -1.185242,-4.957977 -1.759125,-7.6474c-1.550873,-7.267677 -6.210022,-29.847328 -6.642548,-32.19175l-0.375916,-2.03743l-1.658661,0.092438c-2.202362,0.122734 -5.796112,0.913132 -15.964325,3.511345c-2.166656,0.553581 -6.271729,1.586212 -9.122589,2.294739c-2.850739,0.708496 -6.756073,1.750259 -8.678375,2.31501c-1.922394,0.564735 -6.400604,1.752075 -9.951843,2.638565c-3.551117,0.88649 -7.10968,1.798752 -7.907898,2.02726c-0.798157,0.228569 -2.661102,0.685188 -4.13974,1.014717c-1.478668,0.329536 -2.864746,0.772377 -3.0802,0.9841c-0.393829,0.386986 -0.235779,1.304825 1.998444,11.608688c1.937744,8.936714 1.937164,8.935463 3.977539,8.577934c2.800537,-0.490784 7.348267,-0.685059 9.972443,-0.426071c4.690369,0.462875 6.299072,2.44693 7.867584,9.702881c0.444946,2.058212 0.993469,4.475723 1.219086,5.372208c0.225494,0.896454 0.41452,2.745468 0.420013,4.108841c0.012817,3.284836 0.360474,3.589249 2.705109,2.370712l0,0.000015zm-45.596771,-2.851456c-0.157196,-1.030106 -1.024567,-4.743362 -1.927551,-8.251678c-0.902954,-3.508255 -2.007904,-8.304092 -2.455383,-10.657349c-1.278748,-6.724304 -2.13739,-10.720757 -2.515839,-11.709908c-0.302155,-0.789658 -0.494293,-0.856956 -1.439026,-0.503983c-0.59967,0.224045 -2.797729,0.771759 -4.884613,1.21714c-2.086853,0.445389 -5.473663,1.338074 -7.526215,1.983818c-2.052582,0.645737 -5.9711,1.866493 -8.707855,2.712776c-2.736725,0.846283 -5.103088,1.647308 -5.258545,1.78009c-0.155396,0.132858 0.258484,0.974899 0.91983,1.871368c4.123535,5.589462 4.643188,7.769836 2.058136,8.636154c-2.433289,0.815475 -7.708405,0.592392 -16.603851,-0.702087c-4.665649,-0.67897 -9.789185,-1.408432 -11.38562,-1.621002c-1.596436,-0.212692 -3.74231,-0.499191 -4.768585,-0.636642c-1.445526,-0.193695 -3.29361,0.124802 -8.202026,1.413193c-6.427216,1.687195 -8.995483,2.659241 -8.616852,3.261368c0.115112,0.183014 5.112701,0.437256 11.105713,0.565033c11.483643,0.244843 16.218872,0.732666 30.385345,3.130386c18.011719,3.048523 23.08609,4.190704 33.380005,7.513519c3.078888,0.99382 5.852356,1.821335 6.163361,1.838867c0.438873,0.024796 0.501434,-0.387238 0.27951,-1.84108l0.000061,0.000015zm96.038544,-9.535599c1.677094,-0.438293 3.478333,-0.801254 4.002777,-0.806564c1.668304,-0.016708 3.40036,-1.153625 3.40036,-2.231888c0,-0.538422 -0.58017,-3.421783 -1.289368,-6.407532c-1.634277,-6.880997 -2.393311,-10.246483 -2.832581,-12.559616c-0.191467,-1.008553 -0.635834,-3.209007 -0.987518,-4.889885c-0.777649,-3.717331 -2.558868,-13.082619 -3.177582,-16.707115c-0.880066,-5.155769 -0.754639,-4.889885 -2.306732,-4.889885c-1.58313,0 -10.153137,2.245865 -11.901428,3.118935c-0.627228,0.313171 -1.14032,0.702225 -1.140289,0.864571c0.000061,0.511162 1.152832,6.15258 2.724548,13.334831c2.688477,12.284821 3.829132,17.781464 5.229523,25.201706l1.372498,7.272156l1.928345,-0.251373c1.060516,-0.138245 3.300385,-0.610031 4.977448,-1.04834zm73.852234,-73.519173c0.056946,-0.205452 -0.129578,-0.449959 -0.414673,-0.54332c-0.285095,-0.093399 -0.518311,0.135864 -0.518311,0.509354c0,0.69001 0.743347,0.717072 0.932983,0.03392l0,0.000046z"/>
  <title>Layer 1</title>
 </g>
</svg>